Russolo-72ptBold.ufo
<glyph name="exclam" format="2">
  <advance width="518.6666666666666"/>
  <unicode hex="0021"/>
  <note>
exclam
</note>
  <outline>
    <contour>
      <point x="241.90666666666667" y="324.0" type="curve"/>
      <point x="276.76" y="324.0" type="line"/>
      <point x="278.7866666666667" y="917.36"/>
      <point x="383.4133333333333" y="1106.1866666666667"/>
      <point x="383.4133333333333" y="1230.0" type="curve" smooth="yes"/>
      <point x="383.4133333333333" y="1288.5866666666666"/>
      <point x="264.4" y="1324.32"/>
      <point x="276.76" y="1473.4533333333334" type="curve"/>
      <point x="241.90666666666667" y="1473.4533333333334" type="line"/>
      <point x="254.26666666666668" y="1324.32"/>
      <point x="134.74666666666667" y="1288.5866666666666"/>
      <point x="134.74666666666667" y="1230.0" type="curve" smooth="yes"/>
      <point x="134.74666666666667" y="1106.1866666666667"/>
      <point x="239.88" y="917.36"/>
    </contour>
    <contour>
      <point x="259.3333333333333" y="-23.96" type="curve" smooth="yes"/>
      <point x="321.6933333333333" y="-23.96"/>
      <point x="372.5733333333333" y="26.42666666666667"/>
      <point x="372.5733333333333" y="90.29333333333334" type="curve" smooth="yes"/>
      <point x="372.5733333333333" y="153.16"/>
      <point x="321.6933333333333" y="202.53333333333333"/>
      <point x="259.3333333333333" y="202.53333333333333" type="curve" smooth="yes"/>
      <point x="196.97333333333333" y="202.53333333333333"/>
      <point x="145.58666666666667" y="153.16"/>
      <point x="145.58666666666667" y="90.29333333333334" type="curve" smooth="yes"/>
      <point x="145.58666666666667" y="26.42666666666667"/>
      <point x="196.46666666666667" y="-23.96"/>
    </contour>
  </outline>
</glyph>
<glyph name="quotedbl" format="2">
  <advance width="719.8"/>
  <unicode hex="0022"/>
  <note>
quotedbl
</note>
  <outline>
    <contour>
      <point x="436.78666666666663" y="843.0533333333333" type="line"/>
      <point x="565.7866666666666" y="843.0533333333333" type="line"/>
      <point x="585.28" y="1365.4533333333334" type="line"/>
      <point x="420.7866666666667" y="1365.4533333333334" type="line"/>
    </contour>
    <contour>
      <point x="152.52" y="843.0533333333333" type="line"/>
      <point x="281.52" y="843.0533333333333" type="line"/>
      <point x="301.0133333333333" y="1365.4533333333334" type="line"/>
      <point x="136.52" y="1365.4533333333334" type="line"/>
    </contour>
  </outline>
</glyph>
<glyph name="numbersign" format="2">
  <advance width="1328.7066666666667"/>
  <unicode hex="0023"/>
  <note>
numbersign
</note>
  <outline>
    <contour>
      <point x="704.8533333333334" y="-1.0" type="line"/>
      <point x="858.3866666666667" y="-1.0" type="line"/>
      <point x="1167.1733333333334" y="1441.4533333333334" type="line"/>
      <point x="1013.1333333333333" y="1441.4533333333334" type="line"/>
    </contour>
    <contour>
      <point x="68.49333333333334" y="478.1066666666667" type="line"/>
      <point x="1194.7066666666667" y="478.1066666666667" type="line"/>
      <point x="1194.7066666666667" y="503.04" type="line"/>
      <point x="68.49333333333334" y="503.04" type="line"/>
    </contour>
    <contour>
      <point x="169.6" y="-1.0" type="line"/>
      <point x="323.1333333333333" y="-1.0" type="line"/>
      <point x="632.4133333333333" y="1441.4533333333334" type="line"/>
      <point x="478.88" y="1441.4533333333334" type="line"/>
    </contour>
    <contour>
      <point x="130.48" y="950.88" type="line"/>
      <point x="1257.6933333333334" y="950.88" type="line"/>
      <point x="1257.6933333333334" y="975.8133333333333" type="line"/>
      <point x="130.48" y="975.8133333333333" type="line"/>
    </contour>
  </outline>
</glyph>
<glyph name="percent" format="2">
  <advance width="1844.32"/>
  <unicode hex="0025"/>
  <note>
percent
</note>
  <outline>
    <contour>
      <point x="363.32" y="-21.586666666666666" type="line"/>
      <point x="496.44" y="-21.586666666666666" type="line"/>
      <point x="1448.3066666666666" y="1446.52" type="line"/>
      <point x="1315.1866666666667" y="1446.52" type="line"/>
    </contour>
    <contour>
      <point x="1370.0533333333333" y="-30.946666666666665" type="curve" smooth="yes"/>
      <point x="1612.3733333333332" y="-30.946666666666665"/>
      <point x="1752.2933333333333" y="133.54666666666668"/>
      <point x="1752.2933333333333" y="354.0" type="curve" smooth="yes"/>
      <point x="1752.2933333333333" y="566.0"/>
      <point x="1603.8933333333334" y="738.44"/>
      <point x="1370.0533333333333" y="738.44" type="curve" smooth="yes"/>
      <point x="1137.7066666666667" y="738.44"/>
      <point x="986.3333333333334" y="566.0"/>
      <point x="986.3333333333334" y="354.0" type="curve" smooth="yes"/>
      <point x="986.3333333333334" y="141.52"/>
      <point x="1119.7733333333333" y="-30.946666666666665"/>
    </contour>
    <contour>
      <point x="1370.0533333333333" y="-9.480000000000004" type="curve" smooth="yes"/>
      <point x="1248.8933333333334" y="-9.480000000000004"/>
      <point x="1171.3333333333333" y="135.50666666666666"/>
      <point x="1171.3333333333333" y="354.0" type="curve" smooth="yes"/>
      <point x="1171.3333333333333" y="571.9866666666667"/>
      <point x="1248.8933333333334" y="717.48"/>
      <point x="1370.0533333333333" y="717.48" type="curve" smooth="yes"/>
      <point x="1491.2133333333334" y="717.48"/>
      <point x="1568.7733333333333" y="572.4933333333333"/>
      <point x="1568.7733333333333" y="354.0" type="curve" smooth="yes"/>
      <point x="1568.7733333333333" y="135.50666666666666"/>
      <point x="1491.72" y="-9.480000000000004"/>
    </contour>
    <contour>
      <point x="475.25333333333333" y="695.64" type="curve" smooth="yes"/>
      <point x="717.5733333333334" y="695.64"/>
      <point x="857.4933333333333" y="860.1333333333333"/>
      <point x="857.4933333333333" y="1080.5866666666666" type="curve" smooth="yes"/>
      <point x="857.4933333333333" y="1292.5866666666666"/>
      <point x="709.0933333333334" y="1465.0266666666666"/>
      <point x="475.25333333333333" y="1465.0266666666666" type="curve" smooth="yes"/>
      <point x="242.90666666666667" y="1465.0266666666666"/>
      <point x="91.53333333333333" y="1292.5866666666666"/>
      <point x="91.53333333333333" y="1080.5866666666666" type="curve" smooth="yes"/>
      <point x="91.53333333333333" y="868.1066666666667"/>
      <point x="224.97333333333333" y="695.64"/>
    </contour>
    <contour>
      <point x="475.25333333333333" y="717.1066666666667" type="curve" smooth="yes"/>
      <point x="354.09333333333336" y="717.1066666666667"/>
      <point x="276.5333333333333" y="862.6"/>
      <point x="276.5333333333333" y="1080.5866666666666" type="curve" smooth="yes"/>
      <point x="276.5333333333333" y="1298.5733333333333"/>
      <point x="354.09333333333336" y="1443.56"/>
      <point x="475.25333333333333" y="1443.56" type="curve" smooth="yes"/>
      <point x="596.4133333333333" y="1443.56"/>
      <point x="674.48" y="1299.08"/>
      <point x="674.48" y="1080.5866666666666" type="curve" smooth="yes"/>
      <point x="674.48" y="862.6"/>
      <point x="596.92" y="717.1066666666667"/>
    </contour>
  </outline>
</glyph>
<glyph name="ampersand" format="2">
  <advance width="1362.5333333333333"/>
  <unicode hex="0026"/>
  <note>
ampersand
</note>
  <outline>
    <contour>
      <point x="619.0666666666666" y="-33.480000000000004" type="curve" smooth="yes"/>
      <point x="735.1866666666667" y="-33.480000000000004"/>
      <point x="844.1333333333333" y="-12.453333333333335"/>
      <point x="912.68" y="23.61333333333333" type="curve"/>
      <point x="868.36" y="75.46666666666667" type="line"/>
      <point x="822.6133333333333" y="24.38666666666667"/>
      <point x="695.2533333333333" y="-7.039999999999992"/>
      <point x="613.0666666666666" y="-7.039999999999992" type="curve" smooth="yes"/>
      <point x="451.79999999999995" y="-7.039999999999992"/>
      <point x="352.81333333333333" y="200.37333333333333"/>
      <point x="352.81333333333333" y="391.46666666666664" type="curve" smooth="yes"/>
      <point x="352.81333333333333" y="623.0266666666666"/>
      <point x="482.8" y="769.5466666666666"/>
      <point x="629.0666666666667" y="769.5466666666666" type="curve"/>
      <point x="633.0666666666667" y="794.48" type="line"/>
      <point x="522.2266666666667" y="794.48"/>
      <point x="430.81333333333333" y="948.0133333333333"/>
      <point x="430.81333333333333" y="1100.0" type="curve" smooth="yes"/>
      <point x="430.81333333333333" y="1280.0133333333333"/>
      <point x="502.46666666666664" y="1449.5066666666667"/>
      <point x="678.9333333333334" y="1449.5066666666667" type="curve" smooth="yes"/>
      <point x="869.2133333333334" y="1449.5066666666667" type="line"/>
      <point x="869.2133333333334" y="1471.4533333333334" type="line"/>
      <point x="674.9333333333334" y="1471.4533333333334" type="line" smooth="yes"/>
      <point x="366.41333333333336" y="1471.4533333333334"/>
      <point x="203.98666666666668" y="1342.7733333333333"/>
      <point x="203.98666666666668" y="1100.0" type="curve" smooth="yes"/>
      <point x="203.98666666666668" y="953.0133333333333"/>
      <point x="267.61333333333334" y="834.9733333333334"/>
      <point x="399.7866666666667" y="787.4933333333333" type="curve"/>
      <point x="229.24" y="741.08"/>
      <point x="108.52000000000001" y="582.6666666666666"/>
      <point x="108.52000000000001" y="385.46666666666664" type="curve" smooth="yes"/>
      <point x="108.52000000000001" y="123.56"/>
      <point x="320.29333333333335" y="-33.480000000000004"/>
    </contour>
    <contour>
      <point x="1047.4933333333333" y="-29.453333333333333" type="curve" smooth="yes"/>
      <point x="1146.7733333333333" y="-29.453333333333333"/>
      <point x="1269.0133333333333" y="3.4800000000000004"/>
      <point x="1289.0" y="19.44" type="curve"/>
      <point x="1289.0" y="57.893333333333324" type="line"/>
      <point x="1243.5733333333333" y="31.946666666666673"/>
      <point x="1142.28" y="6.9466666666666725"/>
      <point x="1098.3066666666666" y="6.9466666666666725" type="curve" smooth="yes"/>
      <point x="989.0533333333333" y="6.9466666666666725"/>
      <point x="1047.8" y="166.45333333333332"/>
      <point x="1047.8" y="596.2933333333333" type="curve" smooth="yes"/>
      <point x="1047.8" y="769.5466666666666" type="line"/>
      <point x="1225.1333333333334" y="769.5466666666666" type="line"/>
      <point x="1225.1333333333334" y="794.48" type="line"/>
      <point x="1047.8" y="794.48" type="line"/>
      <point x="1047.8" y="1121.48" type="line"/>
      <point x="997.9333333333334" y="1121.48" type="line"/>
      <point x="997.9333333333334" y="828.9333333333333"/>
      <point x="844.44" y="794.48"/>
      <point x="678.52" y="794.48" type="curve" smooth="yes"/>
      <point x="632.56" y="794.48" type="line"/>
      <point x="628.56" y="769.5466666666666" type="line"/>
      <point x="819.0" y="769.5466666666666" type="line"/>
      <point x="819.0" y="338.56" type="line" smooth="yes"/>
      <point x="819.0" y="105.85333333333334"/>
      <point x="857.3466666666667" y="-29.453333333333333"/>
    </contour>
  </outline>
</glyph>
<glyph name="quotesingle" format="2">
  <advance width="435.53333333333336"/>
  <unicode hex="0027"/>
  <note>
quotesingle
</note>
  <outline>
    <contour>
      <point x="152.52" y="843.0533333333333" type="line"/>
      <point x="281.52" y="843.0533333333333" type="line"/>
      <point x="301.0133333333333" y="1365.4533333333334" type="line"/>
      <point x="136.52" y="1365.4533333333334" type="line"/>
    </contour>
  </outline>
</glyph>
<glyph name="parenleft" format="2">
  <advance width="550.1466666666666"/>
  <unicode hex="0028"/>
  <note>
parenleft
</note>
  <outline>
    <contour>
      <point x="427.8933333333333" y="-419.8933333333333" type="curve"/>
      <point x="501.64" y="-378.96" type="line"/>
      <point x="361.18666666666667" y="-96.33333333333333"/>
      <point x="263.97333333333336" y="238.84"/>
      <point x="263.97333333333336" y="576.88" type="curve" smooth="yes"/>
      <point x="263.97333333333336" y="909.96"/>
      <point x="358.21333333333337" y="1245.24"/>
      <point x="502.65333333333336" y="1546.72" type="curve"/>
      <point x="425.8933333333333" y="1577.6666666666667" type="line"/>
      <point x="181.45333333333332" y="1244.5466666666666"/>
      <point x="75.52000000000001" y="943.7466666666667"/>
      <point x="75.52000000000001" y="584.3466666666667" type="curve" smooth="yes"/>
      <point x="75.52000000000001" y="227.90666666666667"/>
      <point x="178.97333333333333" y="-71.97333333333333"/>
    </contour>
  </outline>
</glyph>
<glyph name="parenright" format="2">
  <advance width="550.1466666666666"/>
  <unicode hex="0029"/>
  <note>
parenright
</note>
  <outline>
    <contour>
      <point x="122.25333333333333" y="-419.8933333333333" type="line"/>
      <point x="371.17333333333335" y="-71.97333333333333"/>
      <point x="474.62666666666667" y="227.90666666666667"/>
      <point x="474.62666666666667" y="584.3466666666667" type="curve" smooth="yes"/>
      <point x="474.62666666666667" y="943.7466666666667"/>
      <point x="369.2" y="1244.5466666666666"/>
      <point x="124.25333333333333" y="1577.6666666666667" type="curve"/>
      <point x="47.49333333333333" y="1546.72" type="line"/>
      <point x="191.93333333333334" y="1245.24"/>
      <point x="286.1733333333333" y="909.96"/>
      <point x="286.1733333333333" y="576.88" type="curve" smooth="yes"/>
      <point x="286.1733333333333" y="238.84"/>
      <point x="189.46666666666667" y="-96.33333333333333"/>
      <point x="48.50666666666667" y="-378.96" type="curve"/>
    </contour>
  </outline>
</glyph>
<glyph name="asterisk" format="2">
  <advance width="799.04"/>
  <unicode hex="002A"/>
  <note>
asterisk
</note>
  <outline>
    <contour>
      <point x="409.73333333333335" y="1132.5333333333333" type="line"/>
      <point x="531.6" y="1237.8"/>
      <point x="599.7066666666667" y="1187.12"/>
      <point x="651.5333333333333" y="1217.0133333333333" type="curve" smooth="yes"/>
      <point x="682.44" y="1234.96"/>
      <point x="649.5066666666667" y="1272.88"/>
      <point x="693.5333333333333" y="1288.9333333333334" type="curve"/>
      <point x="667.6266666666667" y="1333.7733333333333" type="line"/>
      <point x="631.0666666666667" y="1304.28"/>
      <point x="613.5866666666667" y="1351.1733333333334"/>
      <point x="583.6933333333334" y="1333.7333333333333" type="curve" smooth="yes"/>
      <point x="534.36" y="1305.3333333333333"/>
      <point x="542.04" y="1219.4"/>
      <point x="390.3066666666667" y="1166.4" type="curve"/>
    </contour>
    <contour>
      <point x="131.41333333333333" y="964.6533333333333" type="line"/>
      <point x="167.97333333333333" y="994.1466666666666"/>
      <point x="183.93333333333334" y="946.7466666666667"/>
      <point x="215.34666666666666" y="964.6933333333334" type="curve" smooth="yes"/>
      <point x="265.6933333333333" y="993.6"/>
      <point x="257.0" y="1079.0266666666666"/>
      <point x="409.73333333333335" y="1132.5333333333333" type="curve"/>
      <point x="390.3066666666667" y="1166.4" type="line"/>
      <point x="267.44" y="1061.1333333333334"/>
      <point x="201.36" y="1113.3333333333333"/>
      <point x="147.50666666666666" y="1081.92" type="curve" smooth="yes"/>
      <point x="113.05333333333334" y="1061.9466666666667"/>
      <point x="149.53333333333333" y="1026.0533333333333"/>
      <point x="105.50666666666666" y="1009.4933333333333" type="curve"/>
    </contour>
    <contour>
      <point x="373.36" y="825.1866666666666" type="curve"/>
      <point x="425.68" y="825.1866666666666" type="line"/>
      <point x="418.2133333333333" y="870.7333333333333"/>
      <point x="467.1066666666667" y="860.2533333333333"/>
      <point x="467.1066666666667" y="897.1466666666666" type="curve" smooth="yes"/>
      <point x="467.1066666666667" y="956.9466666666667"/>
      <point x="388.82666666666665" y="990.6933333333334"/>
      <point x="418.6933333333333" y="1149.4666666666667" type="curve"/>
      <point x="380.3466666666667" y="1149.4666666666667" type="line"/>
      <point x="410.2133333333333" y="990.6933333333334"/>
      <point x="331.93333333333334" y="956.9466666666667"/>
      <point x="331.93333333333334" y="897.1466666666666" type="curve" smooth="yes"/>
      <point x="331.93333333333334" y="860.2533333333333"/>
      <point x="380.82666666666665" y="870.7333333333333"/>
    </contour>
    <contour>
      <point x="390.3066666666667" y="1132.5333333333333" type="curve"/>
      <point x="409.73333333333335" y="1166.4" type="line"/>
      <point x="257.0" y="1219.4"/>
      <point x="264.68" y="1305.3333333333333"/>
      <point x="215.34666666666666" y="1333.7333333333333" type="curve" smooth="yes"/>
      <point x="185.45333333333332" y="1351.1733333333334"/>
      <point x="167.97333333333333" y="1304.28"/>
      <point x="131.41333333333333" y="1333.7733333333333" type="curve"/>
      <point x="105.50666666666666" y="1288.9333333333334" type="line"/>
      <point x="149.53333333333333" y="1272.88"/>
      <point x="116.6" y="1234.96"/>
      <point x="147.50666666666666" y="1217.0133333333333" type="curve" smooth="yes"/>
      <point x="199.33333333333334" y="1187.12"/>
      <point x="267.44" y="1237.8"/>
    </contour>
    <contour>
      <point x="583.6933333333334" y="964.6933333333334" type="curve" smooth="yes"/>
      <point x="615.1066666666667" y="946.7466666666667"/>
      <point x="631.0666666666666" y="994.1466666666666"/>
      <point x="667.6266666666667" y="964.6533333333333" type="curve"/>
      <point x="693.5333333333333" y="1009.4933333333333" type="line"/>
      <point x="649.5066666666667" y="1026.0533333333333"/>
      <point x="685.9866666666667" y="1061.9466666666667"/>
      <point x="651.5333333333333" y="1081.92" type="curve" smooth="yes"/>
      <point x="597.6800000000001" y="1113.3333333333333"/>
      <point x="531.6" y="1061.1333333333334"/>
      <point x="409.73333333333335" y="1166.4" type="curve"/>
      <point x="390.3066666666667" y="1132.5333333333333" type="line"/>
      <point x="542.04" y="1079.0266666666666"/>
      <point x="533.3466666666667" y="993.6"/>
    </contour>
    <contour>
      <point x="380.3466666666667" y="1149.4666666666667" type="curve"/>
      <point x="418.6933333333333" y="1149.4666666666667" type="line"/>
      <point x="388.82666666666665" y="1307.7333333333333"/>
      <point x="467.1066666666667" y="1341.9866666666667"/>
      <point x="467.1066666666667" y="1401.28" type="curve" smooth="yes"/>
      <point x="467.1066666666667" y="1438.1733333333334"/>
      <point x="418.2133333333333" y="1427.6933333333334"/>
      <point x="425.68" y="1473.7466666666667" type="curve"/>
      <point x="373.36" y="1473.7466666666667" type="line"/>
      <point x="380.82666666666665" y="1427.6933333333334"/>
      <point x="331.93333333333334" y="1438.1733333333334"/>
      <point x="331.93333333333334" y="1401.28" type="curve" smooth="yes"/>
      <point x="331.93333333333334" y="1341.9866666666667"/>
      <point x="410.2133333333333" y="1307.7333333333333"/>
    </contour>
  </outline>
</glyph>
<glyph name="plus" format="2">
  <advance width="1018.16"/>
  <unicode hex="002B"/>
  <note>
plus
</note>
  <outline>
    <contour>
      <point x="94.94666666666666" y="590.3066666666666" type="line"/>
      <point x="923.2133333333334" y="590.3066666666666" type="line"/>
      <point x="923.2133333333334" y="746.2" type="line"/>
      <point x="94.94666666666666" y="746.2" type="line"/>
    </contour>
    <contour>
      <point x="431.1333333333333" y="254.12" type="line"/>
      <point x="587.0266666666666" y="254.12" type="line"/>
      <point x="587.0266666666666" y="1082.3866666666668" type="line"/>
      <point x="431.1333333333333" y="1082.3866666666668" type="line"/>
    </contour>
  </outline>
</glyph>
<glyph name="comma" format="2">
  <advance width="495.0"/>
  <unicode hex="002C"/>
  <note>
comma
</note>
  <outline>
    <contour>
      <point x="136.53333333333333" y="-207.73333333333335" type="curve"/>
      <point x="252.62666666666667" y="-207.73333333333335" type="line"/>
      <point x="299.08" y="-86.37333333333333"/>
      <point x="359.4533333333334" y="54.89333333333334"/>
      <point x="380.44000000000005" y="145.93333333333334" type="curve"/>
      <point x="207.44" y="145.93333333333334" type="line"/>
      <point x="169.48" y="54.53333333333333"/>
      <point x="141.53333333333333" y="-122.81333333333335"/>
    </contour>
  </outline>
</glyph>
<glyph name="hyphen" format="2">
  <advance width="695.6"/>
  <unicode hex="002D"/>
  <note>
hyphen
</note>
  <outline>
    <contour>
      <point x="62.53333333333333" y="452.06666666666666" type="line"/>
      <point x="581.2" y="452.06666666666666" type="line"/>
      <point x="633.0666666666666" y="594.2" type="line"/>
      <point x="113.89333333333333" y="594.2" type="line"/>
    </contour>
  </outline>
</glyph>
<glyph name="period" format="2">
  <advance width="443.0133333333333"/>
  <unicode hex="002E"/>
  <note>
period
</note>
  <outline>
    <contour>
      <point x="221.25333333333336" y="-23.96" type="curve" smooth="yes"/>
      <point x="280.6" y="-23.96"/>
      <point x="328.97333333333336" y="23.919999999999998"/>
      <point x="328.97333333333336" y="84.26666666666667" type="curve" smooth="yes"/>
      <point x="328.97333333333336" y="143.61333333333334"/>
      <point x="280.6" y="190.98666666666668"/>
      <point x="221.25333333333336" y="190.98666666666668" type="curve" smooth="yes"/>
      <point x="161.90666666666667" y="190.98666666666668"/>
      <point x="114.03999999999999" y="143.61333333333334"/>
      <point x="114.03999999999999" y="84.26666666666667" type="curve" smooth="yes"/>
      <point x="114.03999999999999" y="23.92"/>
      <point x="161.90666666666667" y="-23.96"/>
    </contour>
  </outline>
</glyph>
<glyph name="slash" format="2">
  <advance width="614.08"/>
  <unicode hex="002F"/>
  <note>
slash
</note>
  <outline>
    <contour>
      <point x="4.52000000000001" y="-415.96" type="line"/>
      <point x="130.60000000000002" y="-415.96" type="line"/>
      <point x="609.56" y="1507.96" type="line"/>
      <point x="483.9866666666667" y="1507.96" type="line"/>
    </contour>
  </outline>
</glyph>
<glyph name="zero" format="2">
  <advance width="1296.68"/>
  <unicode hex="0030"/>
  <note>
zero
</note>
  <anchor x="639.36" y="716.4666666666667" name="center"/>
  <outline>
    <contour>
      <point x="655.3066666666666" y="-37.52" type="curve" smooth="yes"/>
      <point x="1006.6266666666667" y="-29.053333333333335"/>
      <point x="1212.2" y="246.53333333333333"/>
      <point x="1212.2" y="713.48" type="curve" smooth="yes"/>
      <point x="1212.2" y="1127.6533333333334"/>
      <point x="997.1733333333333" y="1469.9333333333334"/>
      <point x="651.8266666666667" y="1469.9333333333334" type="curve" smooth="yes"/>
      <point x="307.97333333333336" y="1469.9333333333334"/>
      <point x="83.98666666666666" y="1176.44"/>
      <point x="83.98666666666666" y="718.4533333333334" type="curve" smooth="yes"/>
      <point x="83.98666666666666" y="310.74666666666667"/>
      <point x="287.56" y="-46.480000000000004"/>
    </contour>
    <contour>
      <point x="655.3066666666666" y="-8.519999999999996" type="curve" smooth="yes"/>
      <point x="483.88" y="-12.0"/>
      <point x="326.6933333333333" y="284.92"/>
      <point x="326.6933333333333" y="730.4" type="curve" smooth="yes"/>
      <point x="326.6933333333333" y="1151.44"/>
      <point x="471.90666666666664" y="1437.4533333333334"/>
      <point x="639.88" y="1440.44" type="curve" smooth="yes"/>
      <point x="812.8266666666666" y="1443.92"/>
      <point x="969.4933333333333" y="1143.48"/>
      <point x="969.4933333333333" y="700.5333333333333" type="curve" smooth="yes"/>
      <point x="969.4933333333333" y="276.94666666666666"/>
      <point x="822.2533333333333" y="-5.533333333333346"/>
    </contour>
  </outline>
</glyph>
<glyph name="one" format="2">
  <advance width="646.1733333333334"/>
  <unicode hex="0031"/>
  <note>
one
</note>
  <outline>
    <contour>
      <point x="254.38666666666666" y="0.0" type="line"/>
      <point x="481.18666666666667" y="0.0" type="line"/>
      <point x="481.18666666666667" y="1438.6" type="line"/>
      <point x="410.48" y="1438.6" type="line"/>
      <point x="20.493333333333354" y="943.3866666666667" type="line"/>
      <point x="76.28" y="904.04" type="line"/>
      <point x="319.73333333333335" y="1218.2666666666667" type="line"/>
      <point x="254.38666666666666" y="1227.0533333333333" type="line"/>
    </contour>
  </outline>
</glyph>
<glyph name="two" format="2">
  <advance width="1118.32"/>
  <unicode hex="0032"/>
  <note>
two
</note>
  <outline>
    <contour>
      <point x="44.480000000000004" y="0.0" type="line"/>
      <point x="1030.9333333333334" y="0.0" type="line"/>
      <point x="1030.9333333333334" y="135.21333333333334" type="line"/>
      <point x="203.60000000000002" y="135.21333333333334" type="line"/>
      <point x="164.12" y="96.70666666666666" type="line"/>
      <point x="427.88" y="304.20000000000005"/>
      <point x="691.5733333333334" y="518.6266666666667"/>
      <point x="843.5466666666666" y="684.6266666666667" type="curve" smooth="yes"/>
      <point x="967.28" y="820.9066666666666"/>
      <point x="1037.84" y="939.9200000000001"/>
      <point x="1037.84" y="1072.0" type="curve" smooth="yes"/>
      <point x="1037.84" y="1324.8133333333333"/>
      <point x="859.9733333333334" y="1471.4533333333334"/>
      <point x="562.2266666666667" y="1471.4533333333334" type="curve" smooth="yes"/>
      <point x="282.96" y="1471.4533333333334"/>
      <point x="92.96000000000001" y="1293.4266666666667"/>
      <point x="92.96000000000001" y="1032.0" type="curve" smooth="yes"/>
      <point x="92.96000000000001" y="1024.4666666666667"/>
      <point x="93.46666666666667" y="1005.5066666666667"/>
      <point x="96.45333333333333" y="983.56" type="curve"/>
      <point x="307.33333333333337" y="999.0" type="line"/>
      <point x="307.33333333333337" y="1024.9333333333334" type="line" smooth="yes"/>
      <point x="307.33333333333337" y="1228.1866666666667"/>
      <point x="395.0133333333333" y="1445.5066666666667"/>
      <point x="562.2" y="1445.5066666666667" type="curve" smooth="yes"/>
      <point x="723.24" y="1445.5066666666667"/>
      <point x="819.9333333333334" y="1317.6533333333334"/>
      <point x="819.9333333333334" y="1123.7333333333333" type="curve" smooth="yes"/>
      <point x="819.9333333333334" y="882.7333333333333"/>
      <point x="659.8533333333334" y="601.4933333333333"/>
      <point x="454.5866666666667" y="400.6933333333333" type="curve" smooth="yes"/>
    </contour>
  </outline>
</glyph>
<glyph name="three" format="2">
  <advance width="1132.3066666666666"/>
  <unicode hex="0033"/>
  <note>
three
</note>
  <outline>
    <contour>
      <point x="535.6533333333333" y="-32.08" type="curve" smooth="yes"/>
      <point x="840.4533333333334" y="-32.08"/>
      <point x="1053.2933333333333" y="135.52"/>
      <point x="1053.2933333333333" y="376.4533333333333" type="curve" smooth="yes"/>
      <point x="1053.2933333333333" y="599.5066666666667"/>
      <point x="877.3066666666666" y="713.0933333333334"/>
      <point x="671.4" y="754.5066666666667" type="curve"/>
      <point x="669.3866666666667" y="739.0533333333333" type="line"/>
      <point x="860.2" y="775.9333333333334"/>
      <point x="1017.3199999999999" y="912.2933333333333"/>
      <point x="1017.3199999999999" y="1109.44" type="curve" smooth="yes"/>
      <point x="1017.3199999999999" y="1313.4"/>
      <point x="846.9466666666667" y="1469.9333333333334"/>
      <point x="569.6533333333333" y="1469.9333333333334" type="curve" smooth="yes"/>
      <point x="294.94666666666666" y="1469.9333333333334"/>
      <point x="93.01333333333334" y="1318.0133333333333"/>
      <point x="87.47999999999999" y="1069.0266666666666" type="curve"/>
      <point x="274.96000000000004" y="1084.9733333333334" type="line"/>
      <point x="277.94666666666666" y="1259.7866666666666"/>
      <point x="366.2133333333333" y="1443.9866666666667"/>
      <point x="565.6533333333333" y="1443.9866666666667" type="curve" smooth="yes"/>
      <point x="759.7733333333333" y="1443.9866666666667"/>
      <point x="819.3466666666667" y="1273.5066666666667"/>
      <point x="819.3466666666667" y="1118.9066666666668" type="curve" smooth="yes"/>
      <point x="819.3466666666667" y="882.48"/>
      <point x="686.4933333333333" y="761.9866666666667"/>
      <point x="526.72" y="761.9866666666667" type="curve" smooth="yes"/>
      <point x="312.94666666666666" y="761.9866666666667" type="line"/>
      <point x="312.94666666666666" y="737.0533333333333" type="line"/>
      <point x="530.72" y="737.0533333333333" type="line" smooth="yes"/>
      <point x="680.5333333333333" y="737.0533333333333"/>
      <point x="814.9466666666667" y="645.2933333333333"/>
      <point x="814.9466666666667" y="379.92" type="curve" smooth="yes"/>
      <point x="814.9466666666667" y="219.06666666666666"/>
      <point x="755.08" y="-8.133333333333326"/>
      <point x="541.6533333333333" y="-8.133333333333326" type="curve" smooth="yes"/>
      <point x="351.1066666666667" y="-8.133333333333326"/>
      <point x="263.4266666666667" y="171.30666666666667"/>
      <point x="263.4266666666667" y="337.48" type="curve" smooth="yes"/>
      <point x="263.4266666666667" y="362.92" type="line"/>
      <point x="61.47999999999999" y="378.8666666666667" type="line"/>
      <point x="61.47999999999999" y="341.92" type="line" smooth="yes"/>
      <point x="61.47999999999999" y="108.90666666666667"/>
      <point x="253.92" y="-32.08"/>
    </contour>
  </outline>
</glyph>
<glyph name="four" format="2">
  <advance width="1053.9466666666667"/>
  <unicode hex="0034"/>
  <note>
four
</note>
  <outline>
    <contour>
      <point x="642.9733333333334" y="0.0" type="line"/>
      <point x="856.4133333333333" y="0.0" type="line"/>
      <point x="856.4133333333333" y="475.62666666666667" type="line"/>
      <point x="724.1600000000001" y="353.0" type="line"/>
      <point x="1029.9866666666667" y="353.0" type="line"/>
      <point x="1029.9866666666667" y="384.9066666666667" type="line"/>
      <point x="724.1600000000001" y="384.9066666666667" type="line"/>
      <point x="856.4133333333333" y="331.04" type="line"/>
      <point x="856.4133333333333" y="797.0" type="line"/>
      <point x="642.9733333333334" y="797.0" type="line"/>
      <point x="642.9733333333334" y="331.04" type="line"/>
      <point x="765.6" y="384.9066666666667" type="line"/>
      <point x="75.29333333333335" y="384.9066666666667" type="line"/>
      <point x="66.88" y="363.9866666666667" type="line"/>
      <point x="321.2133333333333" y="669.8133333333333"/>
      <point x="625.0" y="1084.8533333333332"/>
      <point x="748.0" y="1450.8933333333334" type="curve"/>
      <point x="589.2933333333333" y="1453.9333333333334" type="line"/>
      <point x="472.90666666666664" y="1058.3600000000001"/>
      <point x="248.36" y="688.24"/>
      <point x="23.973333333333343" y="353.0" type="curve"/>
      <point x="765.6" y="353.0" type="line"/>
      <point x="642.9733333333334" y="475.62666666666667" type="line"/>
    </contour>
  </outline>
</glyph>
<glyph name="five" format="2">
  <advance width="1033.8266666666666"/>
  <unicode hex="0035"/>
  <note>
five
</note>
  <outline>
    <contour>
      <point x="443.18666666666667" y="-31.48" type="curve" smooth="yes"/>
      <point x="759.4666666666667" y="-31.48"/>
      <point x="968.32" y="161.98666666666668"/>
      <point x="968.32" y="432.52" type="curve" smooth="yes"/>
      <point x="968.32" y="761.4533333333334"/>
      <point x="674.12" y="869.56"/>
      <point x="471.6933333333333" y="869.56" type="curve" smooth="yes"/>
      <point x="377.68" y="869.56"/>
      <point x="272.65333333333336" y="845.5066666666667"/>
      <point x="152.85333333333332" y="750.76" type="curve"/>
      <point x="169.8" y="748.28" type="line"/>
      <point x="289.3333333333333" y="1352.6266666666666" type="line"/>
      <point x="235.0" y="1251.8666666666666" type="line"/>
      <point x="872.9333333333334" y="1251.8666666666666" type="line"/>
      <point x="872.9333333333334" y="1430.0" type="line"/>
      <point x="234.05333333333334" y="1430.0" type="line"/>
      <point x="104.0" y="748.2266666666667" type="line"/>
      <point x="155.28" y="736.28" type="line"/>
      <point x="277.1066666666667" y="828.04"/>
      <point x="388.56" y="840.1466666666666"/>
      <point x="434.76" y="840.1466666666666" type="curve" smooth="yes"/>
      <point x="628.24" y="840.1466666666666"/>
      <point x="732.9866666666667" y="712.0533333333333"/>
      <point x="732.9866666666667" y="426.5466666666667" type="curve" smooth="yes"/>
      <point x="732.9866666666667" y="285.12"/>
      <point x="743.04" y="-5.0533333333333275"/>
      <point x="439.72" y="-5.0533333333333275" type="curve" smooth="yes"/>
      <point x="259.92" y="-5.0533333333333275"/>
      <point x="122.01333333333334" y="99.74666666666667"/>
      <point x="63.906666666666666" y="174.04" type="curve"/>
      <point x="48.94666666666667" y="162.09333333333333" type="line"/>
      <point x="126.50666666666666" y="58.8"/>
      <point x="244.01333333333332" y="-31.48"/>
    </contour>
  </outline>
</glyph>
<glyph name="six" format="2">
  <advance width="1101.5066666666667"/>
  <unicode hex="0036"/>
  <note>
six
</note>
  <outline>
    <contour>
      <point x="554.2133333333334" y="-40.54666666666667" type="curve" smooth="yes"/>
      <point x="842.1466666666666" y="-41.56"/>
      <point x="1047.52" y="114.17333333333335"/>
      <point x="1047.52" y="402.05333333333334" type="curve" smooth="yes"/>
      <point x="1047.52" y="659.0666666666666"/>
      <point x="865.0133333333333" y="857.56"/>
      <point x="584.2" y="857.56" type="curve" smooth="yes"/>
      <point x="373.16" y="857.56"/>
      <point x="284.9466666666667" y="741.84"/>
      <point x="238.49333333333334" y="574.2533333333333" type="curve"/>
      <point x="263.4533333333333" y="605.8266666666667" type="line"/>
      <point x="283.8666666666667" y="789.92"/>
      <point x="341.64" y="954.04"/>
      <point x="408.53333333333336" y="1069.0800000000002" type="curve" smooth="yes"/>
      <point x="513.0533333333333" y="1251.9733333333334"/>
      <point x="690.3466666666667" y="1386.1866666666667"/>
      <point x="863.4133333333333" y="1428.9733333333334" type="curve"/>
      <point x="863.4133333333333" y="1463.3733333333334" type="line"/>
      <point x="583.6666666666666" y="1388.9333333333334"/>
      <point x="378.84000000000003" y="1254.9866666666667"/>
      <point x="244.36" y="1054.92" type="curve" smooth="yes"/>
      <point x="133.98666666666668" y="891.04"/>
      <point x="74.49333333333333" y="701.1466666666666"/>
      <point x="74.49333333333333" y="493.58666666666664" type="curve" smooth="yes"/>
      <point x="74.49333333333333" y="127.64"/>
      <point x="255.85333333333332" y="-39.53333333333333"/>
    </contour>
    <contour>
      <point x="569.2266666666667" y="-15.093333333333334" type="curve" smooth="yes"/>
      <point x="347.56" y="-14.080000000000013"/>
      <point x="277.91999999999996" y="174.17333333333335"/>
      <point x="276.93333333333334" y="433.5733333333333" type="curve" smooth="yes"/>
      <point x="275.94666666666666" y="695.2"/>
      <point x="413.94666666666666" y="831.6133333333333"/>
      <point x="588.72" y="831.6133333333333" type="curve" smooth="yes"/>
      <point x="790.4666666666667" y="831.6133333333333"/>
      <point x="833.64" y="617.88"/>
      <point x="833.64" y="409.52" type="curve" smooth="yes"/>
      <point x="833.64" y="105.50666666666667"/>
      <point x="741.16" y="-16.10666666666667"/>
    </contour>
  </outline>
</glyph>
<glyph name="seven" format="2">
  <advance width="990.8666666666667"/>
  <unicode hex="0037"/>
  <note>
seven
</note>
  <outline>
    <contour>
      <point x="268.81333333333333" y="0.0" type="curve"/>
      <point x="457.8666666666667" y="0.0" type="line"/>
      <point x="468.5466666666667" y="563.4133333333333"/>
      <point x="741.72" y="1083.3333333333333"/>
      <point x="965.8933333333333" y="1426.4533333333334" type="curve"/>
      <point x="37.44" y="1426.4533333333334" type="line"/>
      <point x="37.44" y="1240.36" type="line"/>
      <point x="812.2533333333333" y="1240.36" type="line"/>
      <point x="871.6" y="1343.1066666666666" type="line"/>
      <point x="664.84" y="1053.3066666666666"/>
      <point x="358.3333333333333" y="569.7866666666666"/>
    </contour>
  </outline>
</glyph>
<glyph name="eight" format="2">
  <advance width="1086.8533333333332"/>
  <unicode hex="0038"/>
  <note>
eight
</note>
  <outline>
    <contour>
      <point x="526.6933333333334" y="-38.04" type="curve" smooth="yes"/>
      <point x="827.9200000000001" y="-38.04"/>
      <point x="1023.3333333333334" y="126.50666666666666"/>
      <point x="1021.84" y="376.93333333333334" type="curve" smooth="yes"/>
      <point x="1020.3466666666667" y="588.92"/>
      <point x="882.8533333333334" y="743.3066666666666"/>
      <point x="590.24" y="848.7066666666667" type="curve" smooth="yes"/>
      <point x="426.62666666666667" y="907.9466666666667"/>
      <point x="315.0" y="974.68"/>
      <point x="313.50666666666666" y="1109.0133333333333" type="curve" smooth="yes"/>
      <point x="312.0133333333333" y="1317.4133333333334"/>
      <point x="423.4266666666667" y="1427.9733333333334"/>
      <point x="541.6266666666667" y="1429.9866666666667" type="curve" smooth="yes"/>
      <point x="738.9733333333334" y="1432.4933333333333"/>
      <point x="882.48" y="1315.0133333333333"/>
      <point x="883.48" y="1135.9066666666668" type="curve" smooth="yes"/>
      <point x="884.9733333333334" y="968.08"/>
      <point x="789.12" y="858.4933333333333"/>
      <point x="638.4666666666667" y="806.52" type="curve"/>
      <point x="670.32" y="804.4933333333333" type="line"/>
      <point x="848.44" y="866.96"/>
      <point x="928.5066666666667" y="989.96"/>
      <point x="925.9866666666667" y="1137.4666666666667" type="curve" smooth="yes"/>
      <point x="922.9733333333334" y="1323.4133333333334"/>
      <point x="774.04" y="1457.4266666666667"/>
      <point x="553.1333333333333" y="1455.9333333333334" type="curve" smooth="yes"/>
      <point x="316.8666666666667" y="1454.44"/>
      <point x="134.0" y="1322.52"/>
      <point x="134.49333333333334" y="1104.5333333333333" type="curve" smooth="yes"/>
      <point x="134.98666666666668" y="904.2"/>
      <point x="246.36" y="784.3199999999999"/>
      <point x="452.14666666666665" y="708.8533333333334" type="curve" smooth="yes"/>
      <point x="726.1066666666667" y="607.12"/>
      <point x="811.44" y="514.92"/>
      <point x="811.44" y="333.56" type="curve" smooth="yes"/>
      <point x="811.44" y="108.01333333333334"/>
      <point x="704.2266666666667" y="-11.093333333333334"/>
      <point x="532.1333333333333" y="-12.093333333333334" type="curve" smooth="yes"/>
      <point x="262.3333333333333" y="-14.080000000000013"/>
      <point x="125.97333333333334" y="129.14666666666665"/>
      <point x="124.48" y="348.56" type="curve" smooth="yes"/>
      <point x="122.98666666666666" y="558.96"/>
      <point x="262.28000000000003" y="699.64"/>
      <point x="404.4" y="755.56" type="curve"/>
      <point x="377.03999999999996" y="761.56" type="line"/>
      <point x="181.06666666666666" y="688.1866666666666"/>
      <point x="77.98666666666666" y="531.0666666666667"/>
      <point x="78.47999999999999" y="347.04" type="curve" smooth="yes"/>
      <point x="79.46666666666667" y="114.17333333333333"/>
      <point x="232.36" y="-38.04"/>
    </contour>
  </outline>
</glyph>
<glyph name="nine" format="2">
  <advance width="1102.4933333333333"/>
  <unicode hex="0039"/>
  <note>
nine
</note>
  <outline>
    <contour>
      <point x="238.58666666666667" y="-40.46666666666667" type="line"/>
      <point x="429.4266666666667" y="10.49333333333334"/>
      <point x="584.8" y="88.95999999999998"/>
      <point x="707.2266666666667" y="197.95999999999998" type="curve" smooth="yes"/>
      <point x="769.7466666666667" y="254.01333333333335"/>
      <point x="815.6533333333333" y="306.94666666666666"/>
      <point x="858.1333333333333" y="370.94666666666666" type="curve" smooth="yes"/>
      <point x="968.0133333333333" y="534.8266666666667"/>
      <point x="1027.5066666666667" y="727.1866666666666"/>
      <point x="1027.5066666666667" y="934.7466666666667" type="curve" smooth="yes"/>
      <point x="1027.5066666666667" y="1292.0266666666666"/>
      <point x="855.7733333333333" y="1469.8133333333333"/>
      <point x="548.2933333333333" y="1471.3333333333333" type="curve" smooth="yes"/>
      <point x="256.81333333333333" y="1472.8533333333332"/>
      <point x="54.480000000000004" y="1313.0933333333332"/>
      <point x="54.480000000000004" y="1026.7733333333333" type="curve" smooth="yes"/>
      <point x="54.480000000000004" y="768.28"/>
      <point x="237.49333333333334" y="568.8"/>
      <point x="518.3066666666666" y="568.8" type="curve" smooth="yes"/>
      <point x="728.84" y="568.8"/>
      <point x="817.0533333333333" y="685.0133333333333"/>
      <point x="863.5066666666667" y="853.5866666666667" type="curve"/>
      <point x="838.5466666666666" y="821.52" type="line"/>
      <point x="818.1333333333333" y="636.44"/>
      <point x="759.8533333333334" y="469.3066666666667"/>
      <point x="693.9733333333334" y="355.79999999999995" type="curve" smooth="yes"/>
      <point x="589.9733333333334" y="172.94666666666666"/>
      <point x="412.15999999999997" y="37.213333333333324"/>
      <point x="238.58666666666667" y="-6.573333333333331" type="curve"/>
    </contour>
    <contour>
      <point x="513.28" y="594.7466666666667" type="curve" smooth="yes"/>
      <point x="312.04" y="594.7466666666667"/>
      <point x="268.8666666666667" y="809.4666666666667"/>
      <point x="268.8666666666667" y="1019.3066666666666" type="curve" smooth="yes"/>
      <point x="268.8666666666667" y="1323.28"/>
      <point x="359.82666666666665" y="1446.4"/>
      <point x="533.28" y="1445.3866666666668" type="curve" smooth="yes"/>
      <point x="754.4399999999999" y="1443.8666666666668"/>
      <point x="825.6" y="1257.16"/>
      <point x="825.5733333333333" y="995.2533333333333" type="curve" smooth="yes"/>
      <point x="826.0533333333333" y="731.6533333333333"/>
      <point x="688.56" y="594.7466666666667"/>
    </contour>
  </outline>
</glyph>
<glyph name="greater" format="2">
  <advance width="1018.16"/>
  <unicode hex="003E"/>
  <note>
greater
</note>
  <outline>
    <contour>
      <point x="94.94666666666666" y="241.62666666666667" type="line"/>
      <point x="943.8" y="631.7333333333333" type="line"/>
      <point x="943.8" y="735.28" type="line"/>
      <point x="94.94666666666666" y="1124.3733333333334" type="line"/>
      <point x="94.94666666666666" y="996.8" type="line"/>
      <point x="781.2" y="684.0" type="line"/>
      <point x="94.94666666666666" y="369.2" type="line"/>
    </contour>
  </outline>
</glyph>
<glyph name="question" format="2">
  <advance width="991.3866666666667"/>
  <unicode hex="003F"/>
  <note>
question
</note>
  <outline>
    <contour>
      <point x="400.4533333333333" y="400.08" type="curve"/>
      <point x="527.5733333333334" y="400.08" type="line"/>
      <point x="499.0933333333333" y="455.09333333333336"/>
      <point x="464.65333333333336" y="564.1866666666667"/>
      <point x="464.65333333333336" y="620.8" type="curve" smooth="yes"/>
      <point x="464.65333333333336" y="838.4266666666666"/>
      <point x="925.36" y="883.48"/>
      <point x="925.36" y="1182.5333333333333" type="curve" smooth="yes"/>
      <point x="925.36" y="1385.56"/>
      <point x="716.0" y="1472.4533333333334"/>
      <point x="459.3066666666667" y="1472.4533333333334" type="curve" smooth="yes"/>
      <point x="163.51999999999998" y="1472.4533333333334"/>
      <point x="59.56" y="1356.9866666666667"/>
      <point x="59.56" y="1182.0" type="curve" smooth="yes"/>
      <point x="59.56" y="1168.48"/>
      <point x="59.56" y="1154.4533333333334"/>
      <point x="60.06666666666666" y="1135.48" type="curve"/>
      <point x="257.08" y="1135.48" type="line"/>
      <point x="251.57333333333335" y="1158.9866666666667"/>
      <point x="250.57333333333332" y="1189.48"/>
      <point x="250.57333333333332" y="1205.0" type="curve" smooth="yes"/>
      <point x="250.57333333333332" y="1325.0933333333332"/>
      <point x="323.12" y="1446.5066666666667"/>
      <point x="456.8" y="1446.5066666666667" type="curve" smooth="yes"/>
      <point x="579.4133333333333" y="1446.5066666666667"/>
      <point x="681.5333333333333" y="1340.6533333333334"/>
      <point x="681.5333333333333" y="1175.5333333333333" type="curve" smooth="yes"/>
      <point x="681.5333333333333" y="888.4533333333334"/>
      <point x="370.94666666666666" y="933.6"/>
      <point x="370.94666666666666" y="610.8266666666667" type="curve" smooth="yes"/>
      <point x="370.94666666666666" y="576.7066666666667"/>
      <point x="374.4666666666667" y="473.04"/>
    </contour>
    <contour>
      <point x="473.74666666666667" y="-23.96" type="curve" smooth="yes"/>
      <point x="536.1066666666667" y="-23.96"/>
      <point x="586.9866666666667" y="26.42666666666667"/>
      <point x="586.9866666666667" y="90.29333333333334" type="curve" smooth="yes"/>
      <point x="586.9866666666667" y="153.16"/>
      <point x="536.1066666666667" y="202.53333333333333"/>
      <point x="473.74666666666667" y="202.53333333333333" type="curve" smooth="yes"/>
      <point x="411.38666666666666" y="202.53333333333333"/>
      <point x="360.0" y="153.16"/>
      <point x="360.0" y="90.29333333333334" type="curve" smooth="yes"/>
      <point x="360.0" y="26.42666666666667"/>
      <point x="410.88" y="-23.96"/>
    </contour>
  </outline>
</glyph>
<glyph name="at" format="2">
  <advance width="1726.0533333333333"/>
  <unicode hex="0040"/>
  <note>
at
</note>
  <outline>
    <contour>
      <point x="902.3066666666666" y="-41.45333333333333" type="curve" smooth="yes"/>
      <point x="1204.68" y="-41.45333333333333"/>
      <point x="1466.0933333333332" y="124.48"/>
      <point x="1553.28" y="286.25333333333333" type="curve"/>
      <point x="1424.2133333333334" y="286.25333333333333" type="line"/>
      <point x="1336.04" y="135.48"/>
      <point x="1136.4" y="-3.0533333333333346"/>
      <point x="902.3066666666666" y="-3.0533333333333346" type="curve" smooth="yes"/>
      <point x="538.6800000000001" y="-3.0533333333333346"/>
      <point x="233.62666666666667" y="329.97333333333336"/>
      <point x="233.62666666666667" y="716.0" type="curve" smooth="yes"/>
      <point x="233.62666666666667" y="1100.0266666666666"/>
      <point x="560.5866666666667" y="1433.0533333333333"/>
      <point x="902.3066666666666" y="1433.0533333333333" type="curve" smooth="yes"/>
      <point x="1220.4666666666667" y="1433.0533333333333"/>
      <point x="1487.8933333333334" y="1171.6933333333334"/>
      <point x="1487.8933333333334" y="854.6666666666666" type="curve" smooth="yes"/>
      <point x="1487.8933333333334" y="783.5333333333333"/>
      <point x="1475.36" y="700.4533333333334"/>
      <point x="1450.8133333333333" y="622.4266666666666" type="curve" smooth="yes"/>
      <point x="1407.2533333333333" y="486.93333333333334"/>
      <point x="1327.1733333333334" y="369.05333333333334"/>
      <point x="1205.24" y="369.05333333333334" type="curve" smooth="yes"/>
      <point x="1145.32" y="369.05333333333334"/>
      <point x="1105.1466666666668" y="412.6666666666667"/>
      <point x="1102.7066666666667" y="465.3333333333333" type="curve"/>
      <point x="1252.1333333333334" y="1062.0533333333333" type="line"/>
      <point x="1083.64" y="1062.0533333333333" type="line"/>
      <point x="1061.5866666666666" y="970.8266666666667" type="line"/>
      <point x="1028.12" y="1062.9466666666667"/>
      <point x="977.6533333333333" y="1082.0533333333333"/>
      <point x="905.44" y="1082.0533333333333" type="curve" smooth="yes"/>
      <point x="651.04" y="1082.0533333333333"/>
      <point x="436.7066666666667" y="819.0133333333333"/>
      <point x="436.7066666666667" y="578.1333333333333" type="curve" smooth="yes"/>
      <point x="436.7066666666667" y="403.2266666666667"/>
      <point x="554.0933333333334" y="311.68"/>
      <point x="728.5066666666667" y="311.68" type="curve" smooth="yes"/>
      <point x="829.0266666666666" y="311.68"/>
      <point x="899.5866666666667" y="342.74666666666667"/>
      <point x="972.5733333333334" y="465.84" type="curve"/>
      <point x="992.0133333333333" y="358.8"/>
      <point x="1081.88" y="324.68"/>
      <point x="1176.84" y="324.68" type="curve" smooth="yes"/>
      <point x="1262.2533333333333" y="324.68"/>
      <point x="1335.6933333333334" y="347.18666666666667"/>
      <point x="1396.64" y="386.6933333333333" type="curve" smooth="yes"/>
      <point x="1450.6266666666666" y="421.72"/>
      <point x="1494.6133333333332" y="469.76"/>
      <point x="1528.6" y="525.8" type="curve" smooth="yes"/>
      <point x="1584.52" y="617.7733333333333"/>
      <point x="1613.4933333333333" y="732.72"/>
      <point x="1613.4933333333333" y="850.6666666666666" type="curve" smooth="yes"/>
      <point x="1613.4933333333333" y="1236.4133333333334"/>
      <point x="1295.7466666666667" y="1471.4533333333334"/>
      <point x="902.3066666666666" y="1471.4533333333334" type="curve" smooth="yes"/>
      <point x="459.94666666666666" y="1471.4533333333334"/>
      <point x="108.02666666666667" y="1131.9733333333334"/>
      <point x="108.02666666666667" y="716.0" type="curve" smooth="yes"/>
      <point x="108.02666666666667" y="297.53333333333336"/>
      <point x="468.90666666666664" y="-41.45333333333333"/>
    </contour>
    <contour>
      <point x="755.4533333333334" y="364.02666666666664" type="curve" smooth="yes"/>
      <point x="674.2533333333333" y="364.02666666666664"/>
      <point x="608.6533333333333" y="439.56"/>
      <point x="608.6533333333333" y="577.0666666666667" type="curve" smooth="yes"/>
      <point x="608.6533333333333" y="847.0266666666666"/>
      <point x="787.6266666666667" y="1030.2266666666667"/>
      <point x="918.92" y="1030.2266666666667" type="curve" smooth="yes"/>
      <point x="998.04" y="1030.2266666666667"/>
      <point x="1001.2133333333334" y="935.28"/>
      <point x="1001.2133333333334" y="852.6" type="curve" smooth="yes"/>
      <point x="1001.2133333333334" y="628.4"/>
      <point x="895.24" y="364.02666666666664"/>
    </contour>
  </outline>
</glyph>
<glyph name="A" format="2">
  <advance width="1374.7333333333333"/>
  <unicode hex="0041"/>
  <note>
A
</note>
  <anchor x="659.36" y="-59.733333333333334" name="bottom"/>
  <anchor x="1178.8266666666666" y="0.0" name="ogonek"/>
  <anchor x="677.28" y="1377.7333333333333" name="top"/>
  <outline>
    <contour>
      <point x="35.533333333333346" y="0.0" type="line"/>
      <point x="124.24" y="0.0" type="line"/>
      <point x="636.0" y="1149.0133333333333" type="line"/>
      <point x="603.5733333333334" y="1124.5733333333333" type="line"/>
      <point x="1079.96" y="0.0" type="line"/>
      <point x="1338.2133333333334" y="0.0" type="line"/>
      <point x="704.2933333333333" y="1494.4266666666667" type="line"/>
    </contour>
    <contour>
      <point x="251.0" y="360.0133333333333" type="line"/>
      <point x="981.16" y="360.0133333333333" type="line"/>
      <point x="960.7333333333333" y="381.96000000000004" type="line"/>
      <point x="272.92" y="381.96000000000004" type="line"/>
    </contour>
  </outline>
</glyph>
<glyph name="B" format="2">
  <advance width="1297.9733333333334"/>
  <unicode hex="0042"/>
  <note>
B
</note>
  <anchor x="687.6800000000001" y="3.552713678800501e-15" name="bottom"/>
  <anchor x="687.6800000000001" y="1437.4666666666667" name="top"/>
  <outline>
    <contour>
      <point x="170.02666666666667" y="0.0" type="line"/>
      <point x="680.4133333333333" y="0.0" type="line" smooth="yes"/>
      <point x="1050.3733333333334" y="0.0"/>
      <point x="1213.9466666666667" y="106.02666666666667"/>
      <point x="1213.9466666666667" y="392.97333333333336" type="curve" smooth="yes"/>
      <point x="1213.9466666666667" y="675.2933333333333"/>
      <point x="1056.0266666666666" y="767.0133333333333"/>
      <point x="809.1733333333333" y="797.3333333333334" type="curve"/>
      <point x="812.1600000000001" y="790.8533333333334" type="line"/>
      <point x="1040.3466666666666" y="812.7466666666667"/>
      <point x="1157.0133333333333" y="916.36"/>
      <point x="1157.0133333333333" y="1096.4" type="curve" smooth="yes"/>
      <point x="1157.0133333333333" y="1323.3066666666666"/>
      <point x="976.0133333333333" y="1441.4533333333334"/>
      <point x="655.7466666666667" y="1441.4533333333334" type="curve" smooth="yes"/>
      <point x="170.02666666666667" y="1441.4533333333334" type="line"/>
    </contour>
    <contour>
      <point x="382.40000000000003" y="12.986666666666668" type="line"/>
      <point x="382.40000000000003" y="778.8933333333333" type="line"/>
      <point x="343.8666666666667" y="774.9066666666666" type="line"/>
      <point x="630.8133333333334" y="774.9066666666666" type="line" smooth="yes"/>
      <point x="851.4533333333334" y="774.9066666666666"/>
      <point x="1003.9733333333334" y="693.0533333333333"/>
      <point x="1003.9733333333334" y="395.50666666666666" type="curve" smooth="yes"/>
      <point x="1003.9733333333334" y="97.22666666666666"/>
      <point x="848.2133333333334" y="21.946666666666665"/>
      <point x="603.2133333333334" y="21.946666666666665" type="curve" smooth="yes"/>
      <point x="215.56" y="21.946666666666665" type="line"/>
    </contour>
    <contour>
      <point x="382.40000000000003" y="792.36" type="line"/>
      <point x="382.40000000000003" y="1428.4666666666667" type="line"/>
      <point x="213.02666666666667" y="1419.5066666666667" type="line"/>
      <point x="561.08" y="1419.5066666666667" type="line" smooth="yes"/>
      <point x="856.1066666666667" y="1419.5066666666667"/>
      <point x="944.0533333333333" y="1277.8666666666668"/>
      <point x="944.0533333333333" y="1091.4" type="curve" smooth="yes"/>
      <point x="944.0533333333333" y="866.7733333333333"/>
      <point x="815.9333333333333" y="796.8533333333334"/>
      <point x="643.2133333333334" y="796.8533333333334" type="curve" smooth="yes"/>
      <point x="349.84000000000003" y="796.8533333333334" type="line"/>
    </contour>
  </outline>
</glyph>
<glyph name="C" format="2">
  <advance width="1497.6"/>
  <unicode hex="0043"/>
  <note>
C
</note>
  <anchor x="788.8266666666667" y="-14.933333333333326" name="bottom"/>
  <anchor x="801.68" y="1437.4666666666667" name="top"/>
  <outline>
    <contour>
      <point x="824.4133333333333" y="-32.38666666666667" type="curve" smooth="yes"/>
      <point x="1096.7733333333333" y="-32.38666666666667"/>
      <point x="1324.4533333333334" y="106.46666666666667"/>
      <point x="1450.6" y="326.92" type="curve"/>
      <point x="1207.4133333333334" y="334.38666666666666" type="line"/>
      <point x="1105.1733333333334" y="122.85333333333332"/>
      <point x="974.0133333333333" y="22.92"/>
      <point x="821.4533333333334" y="22.92" type="curve" smooth="yes"/>
      <point x="553.0933333333334" y="22.92"/>
      <point x="353.6933333333333" y="310.52"/>
      <point x="353.6933333333333" y="716.0133333333333" type="curve" smooth="yes"/>
      <point x="353.6933333333333" y="1127.52"/>
      <point x="556.6" y="1411.5866666666666"/>
      <point x="820.4266666666666" y="1411.5866666666666" type="curve" smooth="yes"/>
      <point x="971.9866666666667" y="1411.5866666666666"/>
      <point x="1107.2133333333334" y="1311.1466666666668"/>
      <point x="1201.9066666666668" y="1102.12" type="curve"/>
      <point x="1442.08" y="1109.5866666666666" type="line"/>
      <point x="1343.4133333333334" y="1307.6933333333334"/>
      <point x="1091.72" y="1466.3866666666668"/>
      <point x="819.44" y="1466.3866666666668" type="curve" smooth="yes"/>
      <point x="424.4533333333333" y="1466.3866666666668"/>
      <point x="75.02666666666667" y="1155.0"/>
      <point x="75.02666666666667" y="717.4933333333333" type="curve" smooth="yes"/>
      <point x="75.02666666666667" y="289.84"/>
      <point x="409.06666666666666" y="-32.38666666666667"/>
    </contour>
  </outline>
</glyph>
<glyph name="D" format="2">
  <advance width="1460.5333333333333"/>
  <unicode hex="0044"/>
  <note>
D
</note>
  <anchor x="767.12" y="0.0" name="bottom"/>
  <anchor x="287.2" y="718.4533333333334" name="center"/>
  <anchor x="767.12" y="1439.9333333333334" name="top"/>
  <outline>
    <contour>
      <point x="171.01333333333332" y="-4.053333333333334" type="line"/>
      <point x="562.7866666666666" y="-4.053333333333334" type="line" smooth="yes"/>
      <point x="829.0799999999999" y="-4.053333333333334"/>
      <point x="1033.44" y="52.89333333333333"/>
      <point x="1171.3600000000001" y="171.74666666666667" type="curve" smooth="yes"/>
      <point x="1308.96" y="288.2266666666667"/>
      <point x="1380.9866666666667" y="465.28"/>
      <point x="1380.9866666666667" y="703.0133333333333" type="curve" smooth="yes"/>
      <point x="1380.9866666666667" y="936.7066666666667"/>
      <point x="1310.4933333333333" y="1112.7733333333333"/>
      <point x="1177.9066666666668" y="1233.7466666666667" type="curve" smooth="yes"/>
      <point x="1029.4933333333333" y="1371.0666666666666"/>
      <point x="801.6133333333333" y="1441.4533333333334"/>
      <point x="500.78666666666663" y="1441.4533333333334" type="curve" smooth="yes"/>
      <point x="171.01333333333332" y="1441.4533333333334" type="line"/>
    </contour>
    <contour>
      <point x="386.93333333333334" y="0.4533333333333349" type="line"/>
      <point x="386.93333333333334" y="1436.9466666666667" type="line"/>
      <point x="225.05333333333334" y="1419.5066666666667" type="line"/>
      <point x="515.4" y="1419.5066666666667" type="line" smooth="yes"/>
      <point x="916.68" y="1419.5066666666667"/>
      <point x="1128.1866666666667" y="1169.0933333333332"/>
      <point x="1128.1866666666667" y="709.0" type="curve" smooth="yes"/>
      <point x="1128.1866666666667" y="248.38666666666666"/>
      <point x="916.1733333333333" y="18.4"/>
      <point x="513.3733333333333" y="18.4" type="curve" smooth="yes"/>
      <point x="225.05333333333334" y="18.4" type="line"/>
    </contour>
  </outline>
</glyph>
<glyph name="E" format="2">
  <advance width="1173.64"/>
  <unicode hex="0045"/>
  <note>
E
</note>
  <anchor x="578.2933333333333" y="3.552713678800501e-15" name="bottom"/>
  <anchor x="1053.6933333333334" y="0.0" name="ogonek"/>
  <anchor x="628.96" y="1441.96" name="top"/>
  <anchor x="3.426666666666666" y="1437.4" name="topleft"/>
  <outline>
    <contour>
      <point x="171.01333333333332" y="0.0" type="line"/>
      <point x="1106.1333333333332" y="0.0" type="line"/>
      <point x="1106.1333333333332" y="21.946666666666665" type="line"/>
      <point x="245.95999999999998" y="21.946666666666665" type="line"/>
      <point x="386.93333333333334" y="11.986666666666666" type="line"/>
      <point x="386.93333333333334" y="747.9466666666667" type="line"/>
      <point x="263.32" y="717.0266666666666" type="line"/>
      <point x="1106.1333333333332" y="717.0266666666666" type="line"/>
      <point x="1106.1333333333332" y="738.9733333333334" type="line"/>
      <point x="245.95999999999998" y="738.9733333333334" type="line"/>
      <point x="386.93333333333334" y="714.08" type="line"/>
      <point x="386.93333333333334" y="1428.9733333333334" type="line"/>
      <point x="236.49333333333334" y="1419.5066666666667" type="line"/>
      <point x="1106.1333333333332" y="1419.5066666666667" type="line"/>
      <point x="1106.1333333333332" y="1441.4533333333334" type="line"/>
      <point x="171.01333333333332" y="1441.4533333333334" type="line"/>
    </contour>
  </outline>
</glyph>
<glyph name="F" format="2">
  <advance width="1152.6399999999999"/>
  <unicode hex="0046"/>
  <note>
F
</note>
  <anchor x="553.92" y="3.552713678800501e-15" name="bottom"/>
  <anchor x="553.92" y="1437.4666666666667" name="top"/>
  <outline>
    <contour>
      <point x="171.01333333333332" y="0.0" type="line"/>
      <point x="386.93333333333334" y="0.0" type="line"/>
      <point x="386.93333333333334" y="697.9466666666667" type="line"/>
      <point x="263.32" y="667.0266666666666" type="line"/>
      <point x="1106.1333333333332" y="667.0266666666666" type="line"/>
      <point x="1106.1333333333332" y="688.9733333333334" type="line"/>
      <point x="245.96" y="688.9733333333334" type="line"/>
      <point x="386.93333333333334" y="664.08" type="line"/>
      <point x="386.93333333333334" y="1428.9733333333334" type="line"/>
      <point x="214.09333333333333" y="1419.5066666666667" type="line"/>
      <point x="1106.1333333333332" y="1419.5066666666667" type="line"/>
      <point x="1106.1333333333332" y="1441.4533333333334" type="line"/>
      <point x="171.01333333333332" y="1441.4533333333334" type="line"/>
    </contour>
  </outline>
</glyph>
<glyph name="G" format="2">
  <advance width="1598.2133333333334"/>
  <unicode hex="0047"/>
  <note>
G
</note>
  <anchor x="800.8266666666667" y="3.552713678800501e-15" name="bottom"/>
  <anchor x="800.8266666666667" y="1437.4666666666667" name="top"/>
  <outline>
    <contour>
      <point x="826.3199999999999" y="-37.45333333333333" type="curve" smooth="yes"/>
      <point x="1223.24" y="-26.999999999999993"/>
      <point x="1521.6533333333334" y="270.94666666666666"/>
      <point x="1552.6933333333334" y="654.8666666666667" type="curve"/>
      <point x="1305.88" y="654.8666666666667" type="line"/>
      <point x="1286.2933333333333" y="281.4266666666667"/>
      <point x="1072.0933333333332" y="-5.533333333333331"/>
      <point x="825.3199999999999" y="-11.50666666666666" type="curve"/>
      <point x="564.0" y="-17.480000000000004"/>
      <point x="328.81333333333333" y="293.09333333333336"/>
      <point x="323.33333333333337" y="701.5733333333334" type="curve" smooth="yes"/>
      <point x="318.36" y="1112.0666666666666"/>
      <point x="549.6" y="1438.5333333333333"/>
      <point x="814.3733333333333" y="1444.5066666666667" type="curve"/>
      <point x="975.0666666666667" y="1448.4933333333333"/>
      <point x="1187.96" y="1335.9333333333334"/>
      <point x="1258.1466666666668" y="1107.5866666666666" type="curve"/>
      <point x="1423.7866666666666" y="1189.72" type="line"/>
      <point x="1313.24" y="1388.2266666666667"/>
      <point x="1041.5066666666667" y="1476.4266666666667"/>
      <point x="814.3733333333333" y="1470.4533333333334" type="curve" smooth="yes"/>
      <point x="385.4666666666667" y="1459.5066666666667"/>
      <point x="70.05333333333333" y="1115.5466666666666"/>
      <point x="76.02666666666667" y="692.6" type="curve" smooth="yes"/>
      <point x="82.0" y="272.16"/>
      <point x="401.88" y="-48.4"/>
    </contour>
    <contour>
      <point x="801.7466666666667" y="637.4" type="line"/>
      <point x="1390.68" y="637.4" type="line"/>
      <point x="1390.68" y="654.8666666666667" type="line"/>
      <point x="801.7466666666667" y="654.8666666666667" type="line"/>
    </contour>
  </outline>
</glyph>
<glyph name="H" format="2">
  <advance width="1634.0266666666666"/>
  <unicode hex="0048"/>
  <note>
H
</note>
  <anchor x="815.7466666666667" y="3.552713678800501e-15" name="bottom"/>
  <anchor x="815.7466666666667" y="718.9466666666667" name="center"/>
  <anchor x="815.7466666666667" y="1439.9333333333334" name="top"/>
  <anchor x="39.25333333333334" y="1439.9333333333334" name="topleft"/>
  <outline>
    <contour>
      <point x="171.01333333333332" y="0.0" type="line"/>
      <point x="401.8666666666667" y="0.0" type="line"/>
      <point x="401.8666666666667" y="753.84" type="line"/>
      <point x="253.0" y="713.4933333333333" type="line"/>
      <point x="1381.0266666666666" y="713.4933333333333" type="line"/>
      <point x="1232.16" y="753.84" type="line"/>
      <point x="1232.16" y="0.0" type="line"/>
      <point x="1463.0133333333333" y="0.0" type="line"/>
      <point x="1463.0133333333333" y="1441.4533333333334" type="line"/>
      <point x="1232.16" y="1441.4533333333334" type="line"/>
      <point x="1232.16" y="695.0933333333334" type="line"/>
      <point x="1381.0266666666666" y="735.44" type="line"/>
      <point x="253.0" y="735.44" type="line"/>
      <point x="401.8666666666667" y="695.0933333333334" type="line"/>
      <point x="401.8666666666667" y="1441.4533333333334" type="line"/>
      <point x="171.01333333333332" y="1441.4533333333334" type="line"/>
    </contour>
  </outline>
</glyph>
<glyph name="I" format="2">
  <advance width="565.3066666666666"/>
  <unicode hex="0049"/>
  <note>
I
</note>
  <anchor x="282.6533333333333" y="3.552713678800501e-15" name="bottom"/>
  <anchor x="309.36" y="-8.881784197001252e-16" name="ogonek"/>
  <anchor x="282.6533333333333" y="1437.4666666666667" name="top"/>
  <anchor x="19.520000000000003" y="1437.4666666666667" name="topleft"/>
  <outline>
    <contour>
      <point x="170.52" y="0.0" type="line"/>
      <point x="394.7866666666667" y="0.0" type="line"/>
      <point x="394.7866666666667" y="1441.4533333333334" type="line"/>
      <point x="170.52" y="1441.4533333333334" type="line"/>
    </contour>
  </outline>
</glyph>
<glyph name="J" format="2">
  <advance width="871.4933333333333"/>
  <unicode hex="004A"/>
  <note>
J
</note>
  <anchor x="424.05333333333334" y="3.552713678800501e-15" name="bottom"/>
  <anchor x="454.4533333333334" y="1437.4666666666667" name="top"/>
  <outline>
    <contour>
      <point x="30.49333333333334" y="-27.22666666666666" type="line"/>
      <point x="74.66666666666666" y="-100.13333333333333"/>
      <point x="169.42666666666668" y="-163.45333333333332"/>
      <point x="346.41333333333336" y="-163.45333333333332" type="curve" smooth="yes"/>
      <point x="569.5866666666666" y="-163.45333333333332"/>
      <point x="710.9466666666667" y="15.346666666666664"/>
      <point x="710.9466666666667" y="343.09333333333336" type="curve" smooth="yes"/>
      <point x="710.9466666666667" y="1441.4533333333334" type="line"/>
      <point x="480.09333333333336" y="1441.4533333333334" type="line"/>
      <point x="480.09333333333336" y="292.4266666666667" type="line" smooth="yes"/>
      <point x="480.09333333333336" y="-38.30666666666666"/>
      <point x="428.24" y="-135.53333333333333"/>
      <point x="315.0133333333333" y="-135.53333333333333" type="curve" smooth="yes"/>
      <point x="211.22666666666666" y="-135.53333333333333"/>
      <point x="142.24" y="-56.693333333333335"/>
      <point x="75.29333333333334" y="92.89333333333335" type="curve"/>
    </contour>
  </outline>
</glyph>
<glyph name="K" format="2">
  <advance width="1395.7066666666667"/>
  <unicode hex="004B"/>
  <note>
K
</note>
  <anchor x="708.6666666666666" y="3.552713678800501e-15" name="bottom"/>
  <anchor x="708.6666666666666" y="1437.4666666666667" name="top"/>
  <outline>
    <contour>
      <point x="170.52" y="0.0" type="line"/>
      <point x="401.37333333333333" y="0.0" type="line"/>
      <point x="401.37333333333333" y="1441.4533333333334" type="line"/>
      <point x="170.52" y="1441.4533333333334" type="line"/>
    </contour>
    <contour>
      <point x="346.93333333333334" y="399.33333333333337" type="line"/>
      <point x="1209.04" y="1441.4533333333334" type="line"/>
      <point x="1126.8133333333333" y="1441.4533333333334" type="line"/>
      <point x="322.64" y="471.2266666666667" type="line"/>
    </contour>
    <contour>
      <point x="1094.9866666666667" y="0.0" type="line"/>
      <point x="1370.1733333333334" y="0.0" type="line"/>
      <point x="654.8133333333333" y="824.8666666666667" type="line"/>
      <point x="528.1733333333334" y="654.9066666666666" type="line"/>
    </contour>
  </outline>
</glyph>
<glyph name="M" format="2">
  <advance width="1775.92"/>
  <unicode hex="004D"/>
  <note>
M
</note>
  <anchor x="887.96" y="3.552713678800501e-15" name="bottom"/>
  <anchor x="887.96" y="1437.4666666666667" name="top"/>
  <outline>
    <contour>
      <point x="170.51999999999998" y="0.0" type="line"/>
      <point x="219.34666666666666" y="0.0" type="line"/>
      <point x="219.34666666666666" y="1394.1066666666666" type="line"/>
      <point x="203.90666666666667" y="1363.2266666666667" type="line"/>
      <point x="825.2" y="22.386666666666656" type="line"/>
      <point x="1440.8" y="1399.52" type="line"/>
      <point x="1331.2133333333334" y="1410.4" type="line"/>
      <point x="1331.2133333333334" y="0.0" type="line"/>
      <point x="1605.4" y="0.0" type="line"/>
      <point x="1605.4" y="1441.4533333333334" type="line"/>
      <point x="1339.2" y="1441.4533333333334" type="line"/>
      <point x="838.3066666666666" y="285.81333333333333" type="line"/>
      <point x="931.9466666666667" y="342.1333333333333" type="line"/>
      <point x="445.84000000000003" y="1441.4533333333334" type="line"/>
      <point x="170.51999999999998" y="1441.4533333333334" type="line"/>
    </contour>
  </outline>
</glyph>
<glyph name="N" format="2">
  <advance width="1527.7866666666666"/>
  <unicode hex="004E"/>
  <note>
N
</note>
  <anchor x="763.8933333333333" y="3.552713678800501e-15" name="bottom"/>
  <anchor x="763.8933333333333" y="1437.4666666666667" name="top"/>
  <outline>
    <contour>
      <point x="171.01333333333332" y="0.0" type="line"/>
      <point x="219.84" y="0.0" type="line"/>
      <point x="219.84" y="1334.32" type="line"/>
      <point x="183.97333333333333" y="1165.7333333333333" type="line"/>
      <point x="1328.88" y="-10.133333333333333" type="line"/>
      <point x="1356.7733333333333" y="-10.133333333333333" type="line"/>
      <point x="1356.7733333333333" y="1441.4533333333334" type="line"/>
      <point x="1307.9466666666667" y="1441.4533333333334" type="line"/>
      <point x="1307.9466666666667" y="104.43999999999998" type="line"/>
      <point x="1342.8" y="269.72" type="line"/>
      <point x="193.92" y="1449.0533333333333" type="line"/>
      <point x="171.01333333333332" y="1449.0533333333333" type="line"/>
    </contour>
  </outline>
</glyph>
<glyph name="O" format="2">
  <advance width="1631.2266666666667"/>
  <unicode hex="004F"/>
  <note>
O
</note>
  <anchor x="815.8666666666667" y="0.0" name="bottom"/>
  <anchor x="815.8666666666667" y="715.0" name="center"/>
  <anchor x="994.7466666666667" y="0.0" name="ogonek"/>
  <anchor x="815.8666666666667" y="1430.0" name="top"/>
  <anchor x="26.520000000000007" y="1430.0" name="topleft"/>
  <anchor x="1400.3066666666666" y="1430.0" name="topright"/>
  <outline>
    <contour>
      <point x="826.32" y="-37.45333333333333" type="curve" smooth="yes"/>
      <point x="1249.76" y="-26.0"/>
      <point x="1560.68" y="311.48"/>
      <point x="1555.2" y="732.4266666666666" type="curve" smooth="yes"/>
      <point x="1549.2266666666667" y="1157.8533333333332"/>
      <point x="1221.88" y="1481.9066666666668"/>
      <point x="806.9066666666666" y="1470.4533333333334" type="curve" smooth="yes"/>
      <point x="388.4533333333333" y="1459.5066666666667"/>
      <point x="70.05333333333333" y="1115.5466666666666"/>
      <point x="76.02666666666667" y="692.6" type="curve" smooth="yes"/>
      <point x="82.0" y="272.15999999999997"/>
      <point x="401.88" y="-48.4"/>
    </contour>
    <contour>
      <point x="825.32" y="-11.50666666666666" type="curve"/>
      <point x="564.0" y="-17.480000000000004"/>
      <point x="328.81333333333333" y="293.09333333333336"/>
      <point x="323.3333333333333" y="701.5733333333334" type="curve" smooth="yes"/>
      <point x="318.36" y="1110.5733333333333"/>
      <point x="546.6133333333333" y="1438.5333333333333"/>
      <point x="806.9066666666666" y="1444.5066666666667" type="curve"/>
      <point x="1066.2" y="1450.48"/>
      <point x="1302.92" y="1133.9733333333334"/>
      <point x="1307.8933333333334" y="724.9733333333334" type="curve" smooth="yes"/>
      <point x="1313.3733333333332" y="317.9866666666667"/>
      <point x="1087.64" y="-5.533333333333331"/>
    </contour>
  </outline>
</glyph>
<glyph name="P" format="2">
  <advance width="1152.1333333333332"/>
  <unicode hex="0050"/>
  <note>
P
</note>
  <anchor x="589.3199999999999" y="7.105427357601002e-15" name="bottom"/>
  <anchor x="589.3199999999999" y="1439.9333333333334" name="top"/>
  <outline>
    <contour>
      <point x="169.02666666666667" y="0.0" type="line"/>
      <point x="399.88" y="0.0" type="line"/>
      <point x="399.88" y="630.72" type="line"/>
      <point x="243.9066666666667" y="616.28" type="line"/>
      <point x="585.96" y="616.7733333333333" type="line" smooth="yes"/>
      <point x="744.76" y="617.7733333333333"/>
      <point x="878.64" y="647.3333333333334"/>
      <point x="970.5866666666667" y="724.8266666666667" type="curve" smooth="yes"/>
      <point x="1052.08" y="793.8533333333334"/>
      <point x="1096.1066666666666" y="901.8666666666667"/>
      <point x="1094.12" y="1048.2666666666667" type="curve" smooth="yes"/>
      <point x="1092.1333333333332" y="1178.24"/>
      <point x="1050.5866666666666" y="1272.8"/>
      <point x="973.0666666666666" y="1335.8533333333332" type="curve" smooth="yes"/>
      <point x="884.5866666666667" y="1407.3733333333332"/>
      <point x="749.6933333333334" y="1441.4533333333334"/>
      <point x="571.4533333333334" y="1441.4533333333334" type="curve" smooth="yes"/>
      <point x="169.02666666666667" y="1441.4533333333334" type="line"/>
    </contour>
    <contour>
      <point x="399.88" y="625.7733333333333" type="line"/>
      <point x="399.88" y="1427.4933333333333" type="line"/>
      <point x="210.05333333333334" y="1421.0" type="line"/>
      <point x="536.6133333333333" y="1419.5066666666667" type="line" smooth="yes"/>
      <point x="729.6666666666666" y="1418.5066666666667"/>
      <point x="873.3066666666667" y="1269.84"/>
      <point x="876.7866666666666" y="1032.3333333333333" type="curve" smooth="yes"/>
      <point x="880.2666666666667" y="793.2933333333333"/>
      <point x="741.5733333333334" y="638.2266666666667"/>
      <point x="545.5733333333333" y="638.72" type="curve" smooth="yes"/>
      <point x="242.90666666666664" y="639.72" type="line"/>
    </contour>
  </outline>
</glyph>
<glyph name="Q" format="2">
  <advance width="1631.2266666666667"/>
  <unicode hex="0051"/>
  <note>
Q
</note>
  <anchor x="813.3466666666667" y="3.552713678800501e-15" name="bottom"/>
  <anchor x="813.3466666666667" y="1430.0" name="top"/>
  <anchor x="815.8666666666667" y="715.2546" name="center"/>
  <anchor x="994.7466666666667" y="-1.0133333333333354" name="ogonek"/>
  <anchor x="26.520000000000007" y="1431.5225333333333" name="topleft"/>
  <anchor x="1400.3066666666666" y="1431.5225333333333" name="topright"/>
  <outline>
    <contour>
      <point x="1109.32" y="-411.85333333333335" type="curve" smooth="yes"/>
      <point x="1204.0666666666666" y="-411.85333333333335"/>
      <point x="1248.9733333333334" y="-394.4"/>
      <point x="1305.8" y="-343.1066666666667" type="curve"/>
      <point x="1240.04" y="-372.97333333333336"/>
      <point x="1188.2133333333334" y="-380.93333333333334"/>
      <point x="1137.3866666666668" y="-380.44" type="curve" smooth="yes"/>
      <point x="996.28" y="-379.9466666666667"/>
      <point x="917.5333333333333" y="-296.1333333333333"/>
      <point x="917.5333333333333" y="-187.38666666666666" type="curve" smooth="yes"/>
      <point x="917.5333333333333" y="-22.493333333333325" type="line"/>
      <point x="691.7466666666667" y="-22.493333333333325" type="line"/>
      <point x="691.7466666666667" y="-146.18666666666667" type="line" smooth="yes"/>
      <point x="691.7466666666667" y="-240.13333333333333"/>
      <point x="770.1066666666667" y="-340.38666666666666"/>
      <point x="854.4133333333333" y="-373.3466666666667" type="curve" smooth="yes"/>
      <point x="935.2533333333333" y="-405.32"/>
      <point x="1017.1733333333333" y="-411.85333333333335"/>
    </contour>
    <component base="O" yScale="1.0017733333333334" yOffset="-1.0133333333333354"/>
  </outline>
</glyph>
<glyph name="R" format="2">
  <advance width="1241.9733333333334"/>
  <unicode hex="0052"/>
  <note>
R
</note>
  <anchor x="628.7466666666667" y="3.552713678800501e-15" name="bottom"/>
  <anchor x="628.7466666666667" y="1437.4666666666667" name="top"/>
  <outline>
    <contour>
      <point x="170.02666666666667" y="0.0" type="line"/>
      <point x="400.88" y="0.0" type="line"/>
      <point x="400.88" y="633.48" type="line"/>
      <point x="278.25333333333333" y="624.5066666666667" type="line"/>
      <point x="569.2266666666667" y="624.5066666666667" type="line"/>
      <point x="651.5733333333333" y="627.4933333333333" type="line"/>
      <point x="932.48" y="642.96"/>
      <point x="1099.6" y="768.0133333333333"/>
      <point x="1095.12" y="1042.36" type="curve" smooth="yes"/>
      <point x="1089.1466666666668" y="1369.0133333333333"/>
      <point x="838.8266666666666" y="1441.4533333333334"/>
      <point x="572.4533333333334" y="1441.4533333333334" type="curve" smooth="yes"/>
      <point x="170.02666666666667" y="1441.4533333333334" type="line"/>
    </contour>
    <contour>
      <point x="278.25333333333333" y="646.4533333333334" type="line"/>
      <point x="400.88" y="639.96" type="line"/>
      <point x="400.88" y="1429.9866666666667" type="line"/>
      <point x="278.25333333333333" y="1421.4933333333333" type="line"/>
      <point x="537.1066666666667" y="1419.5066666666667" type="line" smooth="yes"/>
      <point x="730.16" y="1418.0133333333333"/>
      <point x="873.8000000000001" y="1263.9333333333334"/>
      <point x="877.7866666666666" y="1026.4266666666667" type="curve" smooth="yes"/>
      <point x="880.7733333333333" y="787.3866666666667"/>
      <point x="742.0666666666667" y="646.4533333333334"/>
      <point x="546.0666666666666" y="646.4533333333334" type="curve" smooth="yes"/>
    </contour>
    <contour>
      <point x="563.1466666666666" y="625.52" type="line"/>
      <point x="654.9733333333334" y="612.5333333333333"/>
      <point x="711.5733333333333" y="617.1466666666666"/>
      <point x="786.76" y="520.5600000000001" type="curve" smooth="yes"/>
      <point x="835.32" y="456.06666666666666"/>
      <point x="857.96" y="404.94666666666666"/>
      <point x="891.16" y="271.68" type="curve" smooth="yes"/>
      <point x="911.64" y="160.0"/>
      <point x="936.6933333333334" y="78.42666666666666"/>
      <point x="964.6533333333333" y="0.0" type="curve"/>
      <point x="1170.9466666666667" y="0.0" type="line"/>
      <point x="1150.92" y="72.98666666666666"/>
      <point x="1110.92" y="190.94666666666666"/>
      <point x="1087.88" y="301.76" type="curve" smooth="yes"/>
      <point x="1059.3333333333333" y="440.0133333333333"/>
      <point x="1002.36" y="507.18666666666667"/>
      <point x="959.72" y="547.8533333333334" type="curve" smooth="yes"/>
      <point x="868.4" y="629.72"/>
      <point x="793.8933333333333" y="642.4933333333333"/>
      <point x="688.84" y="646.9333333333334" type="curve"/>
    </contour>
  </outline>
</glyph>
<glyph name="S" format="2">
  <advance width="1226.5466666666666"/>
  <unicode hex="0053"/>
  <note>
S
</note>
  <anchor x="613.2666666666667" y="3.552713678800501e-15" name="bottom"/>
  <anchor x="613.2666666666667" y="1437.4666666666667" name="top"/>
  <outline>
    <contour>
      <point x="580.36" y="-39.44" type="curve" smooth="yes"/>
      <point x="925.36" y="-39.44"/>
      <point x="1156.52" y="92.25333333333333"/>
      <point x="1156.52" y="426.76" type="curve" smooth="yes"/>
      <point x="1156.52" y="679.8533333333334"/>
      <point x="1019.5866666666667" y="795.1733333333333"/>
      <point x="641.1866666666667" y="893.64" type="curve" smooth="yes"/>
      <point x="526.9866666666667" y="928.92"/>
      <point x="322.49333333333334" y="996.0533333333333"/>
      <point x="322.49333333333334" y="1145.1333333333334" type="curve" smooth="yes"/>
      <point x="322.49333333333334" y="1310.68"/>
      <point x="428.6" y="1445.0266666666666"/>
      <point x="610.3333333333334" y="1445.0266666666666" type="curve" smooth="yes"/>
      <point x="766.5333333333333" y="1445.0266666666666"/>
      <point x="946.4933333333333" y="1354.8666666666668"/>
      <point x="984.4" y="1209.7066666666667" type="curve"/>
      <point x="1091.1866666666667" y="1222.6533333333334" type="line"/>
      <point x="1058.6933333333334" y="1359.4"/>
      <point x="880.2133333333334" y="1475.4533333333334"/>
      <point x="618.3333333333334" y="1475.4533333333334" type="curve" smooth="yes"/>
      <point x="312.37333333333333" y="1475.4533333333334"/>
      <point x="110.57333333333332" y="1304.9733333333334"/>
      <point x="112.06666666666666" y="1075.76" type="curve" smooth="yes"/>
      <point x="113.06666666666666" y="870.32"/>
      <point x="259.1066666666667" y="753.8533333333334"/>
      <point x="557.8933333333333" y="665.84" type="curve" smooth="yes"/>
      <point x="804.4933333333333" y="592.24"/>
      <point x="947.5733333333334" y="520.1733333333333"/>
      <point x="947.5733333333334" y="339.02666666666664" type="curve" smooth="yes"/>
      <point x="947.5733333333334" y="123.98666666666666"/>
      <point x="824.1866666666667" y="-7.520000000000003"/>
      <point x="595.8133333333333" y="-7.520000000000003" type="curve" smooth="yes"/>
      <point x="344.37333333333333" y="-7.520000000000003"/>
      <point x="203.30666666666667" y="114.44"/>
      <point x="169.8" y="309.37333333333333" type="curve"/>
      <point x="62.013333333333335" y="289.96" type="line"/>
      <point x="94.0" y="74.12"/>
      <point x="260.02666666666664" y="-39.44"/>
    </contour>
  </outline>
</glyph>
<glyph name="T" format="2">
  <advance width="1290.1066666666666"/>
  <unicode hex="0054"/>
  <note>
T
</note>
  <anchor x="645.0533333333333" y="3.552713678800501e-15" name="bottom"/>
  <anchor x="645.0533333333333" y="715.0" name="center"/>
  <anchor x="645.0533333333333" y="1437.4666666666667" name="top"/>
  <outline>
    <contour>
      <point x="530.8666666666667" y="0.0" type="line"/>
      <point x="761.72" y="0.0" type="line"/>
      <point x="761.72" y="1435.96" type="line"/>
      <point x="554.48" y="1419.5066666666667" type="line"/>
      <point x="1264.0933333333332" y="1419.5066666666667" type="line"/>
      <point x="1264.0933333333332" y="1441.4533333333334" type="line"/>
      <point x="26.013333333333335" y="1441.4533333333334" type="line"/>
      <point x="26.013333333333335" y="1419.5066666666667" type="line"/>
      <point x="738.1066666666667" y="1419.5066666666667" type="line"/>
      <point x="530.8666666666667" y="1435.96" type="line"/>
    </contour>
  </outline>
</glyph>
<glyph name="U" format="2">
  <advance width="1485.0666666666666"/>
  <unicode hex="0055"/>
  <note>
U
</note>
  <anchor x="752.4133333333333" y="3.552713678800501e-15" name="bottom"/>
  <anchor x="964.2933333333333" y="0.0" name="ogonek"/>
  <anchor x="752.4133333333333" y="1437.4666666666667" name="top"/>
  <anchor x="1344.4" y="1437.4666666666667" name="topright"/>
  <outline>
    <contour>
      <point x="771.16" y="-36.946666666666665" type="curve" smooth="yes"/>
      <point x="1158.3066666666666" y="-36.946666666666665"/>
      <point x="1345.5733333333333" y="185.76"/>
      <point x="1345.5733333333333" y="549.64" type="curve" smooth="yes"/>
      <point x="1345.5733333333333" y="1441.4533333333334" type="line"/>
      <point x="1293.2" y="1441.4533333333334" type="line"/>
      <point x="1293.2" y="531.6266666666667" type="line" smooth="yes"/>
      <point x="1293.2" y="211.61333333333334"/>
      <point x="1058.48" y="19.426666666666662"/>
      <point x="772.1466666666666" y="19.426666666666662" type="curve" smooth="yes"/>
      <point x="479.84000000000003" y="19.426666666666662"/>
      <point x="373.2266666666667" y="219.07999999999998"/>
      <point x="373.2266666666667" y="554.0266666666666" type="curve" smooth="yes"/>
      <point x="373.2266666666667" y="1441.4533333333334" type="line"/>
      <point x="137.01333333333332" y="1441.4533333333334" type="line"/>
      <point x="137.01333333333332" y="557.9733333333334" type="line" smooth="yes"/>
      <point x="137.01333333333332" y="177.04"/>
      <point x="387.15999999999997" y="-36.946666666666665"/>
    </contour>
  </outline>
</glyph>
<glyph name="V" format="2">
  <advance width="1433.7333333333333"/>
  <unicode hex="0056"/>
  <note>
V
</note>
  <anchor x="717.12" y="3.552713678800501e-15" name="bottom"/>
  <anchor x="717.12" y="1437.4666666666667" name="top"/>
  <outline>
    <contour>
      <point x="739.5466666666666" y="-52.946666666666665" type="line"/>
      <point x="1398.2" y="1440.9466666666667" type="line"/>
      <point x="1334.9333333333334" y="1440.9466666666667" type="line"/>
      <point x="783.3733333333333" y="202.6" type="line"/>
      <point x="846.72" y="261.09333333333336" type="line"/>
      <point x="281.7733333333333" y="1441.4533333333334" type="line"/>
      <point x="34.533333333333346" y="1440.9466666666667" type="line"/>
    </contour>
  </outline>
</glyph>
<glyph name="X" format="2">
  <advance width="1288.9066666666668"/>
  <unicode hex="0058"/>
  <note>
X
</note>
  <anchor x="643.6666666666666" y="3.552713678800501e-15" name="bottom"/>
  <anchor x="643.6666666666666" y="1437.4666666666667" name="top"/>
  <outline>
    <contour>
      <point x="981.2133333333334" y="1.4933333333333334" type="line"/>
      <point x="1252.8533333333332" y="0.0" type="line"/>
      <point x="299.8" y="1440.4533333333334" type="line"/>
      <point x="46.57333333333332" y="1440.4533333333334" type="line"/>
    </contour>
    <contour>
      <point x="70.30666666666667" y="0.0" type="line"/>
      <point x="150.56" y="0.0" type="line"/>
      <point x="641.2266666666667" y="704.08" type="line"/>
      <point x="594.88" y="765.4133333333333" type="line"/>
    </contour>
    <contour>
      <point x="665.6533333333333" y="704.08" type="line"/>
      <point x="1174.1066666666666" y="1440.4533333333334" type="line"/>
      <point x="1085.8933333333334" y="1441.4533333333334" type="line"/>
      <point x="619.3066666666666" y="765.4133333333333" type="line"/>
    </contour>
  </outline>
</glyph>
<glyph name="Y" format="2">
  <advance width="1255.1466666666668"/>
  <unicode hex="0059"/>
  <note>
Y
</note>
  <anchor x="632.1333333333333" y="-1.7763568394002505e-15" name="bottom"/>
  <anchor x="627.0666666666667" y="1437.4666666666667" name="top"/>
  <anchor x="12.000000000000004" y="1437.4666666666667" name="topleft"/>
  <outline>
    <contour>
      <point x="518.4" y="0.0" type="line"/>
      <point x="749.2533333333333" y="0.0" type="line"/>
      <point x="749.2533333333333" y="582.0" type="line"/>
      <point x="1223.6266666666668" y="1441.4533333333334" type="line"/>
      <point x="1133.96" y="1441.4533333333334" type="line"/>
      <point x="662.5066666666667" y="585.8666666666667" type="line"/>
      <point x="748.7333333333333" y="644.7466666666667" type="line"/>
      <point x="300.26666666666665" y="1441.4533333333334" type="line"/>
      <point x="31.01333333333335" y="1441.4533333333334" type="line"/>
      <point x="518.4" y="571.4" type="line"/>
    </contour>
  </outline>
</glyph>
<glyph name="Z" format="2">
  <advance width="1258.7733333333333"/>
  <unicode hex="005A"/>
  <note>
Z
</note>
  <anchor x="630.1466666666666" y="3.552713678800501e-15" name="bottom"/>
  <anchor x="630.1466666666666" y="715.0" name="center"/>
  <anchor x="630.1466666666666" y="1437.4666666666667" name="top"/>
  <outline>
    <contour>
      <point x="38.02666666666667" y="-11.453333333333333" type="line"/>
      <point x="1215.7466666666667" y="-11.453333333333333" type="line"/>
      <point x="1216.24" y="15.053333333333356" type="line"/>
      <point x="81.47999999999999" y="15.053333333333356" type="line"/>
      <point x="253.45333333333332" y="2.0533333333333346" type="line"/>
      <point x="1183.3066666666666" y="1441.4533333333334" type="line"/>
      <point x="103.97333333333333" y="1441.4533333333334" type="line"/>
      <point x="103.47999999999999" y="1415.4533333333334" type="line"/>
      <point x="1148.8133333333333" y="1415.4533333333334" type="line"/>
      <point x="970.36" y="1422.4666666666667" type="line"/>
    </contour>
  </outline>
</glyph>
<glyph name="bracketleft" format="2">
  <advance width="622.08"/>
  <unicode hex="005B"/>
  <note>
bracketleft
</note>
  <outline>
    <contour>
      <point x="167.01333333333332" y="-413.4533333333333" type="line"/>
      <point x="580.08" y="-413.4533333333333" type="line"/>
      <point x="580.08" y="-326.12" type="line"/>
      <point x="326.48" y="-326.12" type="line"/>
      <point x="326.48" y="1386.12" type="line"/>
      <point x="580.08" y="1386.12" type="line"/>
      <point x="580.08" y="1473.4533333333334" type="line"/>
      <point x="167.01333333333332" y="1473.4533333333334" type="line"/>
    </contour>
  </outline>
</glyph>
<glyph name="bracketright" format="2">
  <advance width="622.08"/>
  <unicode hex="005D"/>
  <note>
bracketright
</note>
  <outline>
    <contour>
      <point x="42.0" y="-413.4533333333333" type="line"/>
      <point x="455.06666666666666" y="-413.4533333333333" type="line"/>
      <point x="455.06666666666666" y="1473.4533333333334" type="line"/>
      <point x="42.0" y="1473.4533333333334" type="line"/>
      <point x="42.0" y="1386.12" type="line"/>
      <point x="295.6" y="1386.12" type="line"/>
      <point x="295.6" y="-326.12" type="line"/>
      <point x="42.0" y="-326.12" type="line"/>
    </contour>
  </outline>
</glyph>
<glyph name="asciicircum" format="2">
  <advance width="1040.32"/>
  <unicode hex="005E"/>
  <note>
asciicircum
</note>
  <outline>
    <contour>
      <point x="91.52" y="838.0933333333334" type="line"/>
      <point x="258.44" y="838.0933333333334" type="line"/>
      <point x="537.6133333333333" y="1335.4266666666667" type="line"/>
      <point x="500.70666666666665" y="1335.4266666666667" type="line"/>
      <point x="781.3733333333333" y="838.0933333333334" type="line"/>
      <point x="948.8" y="838.0933333333334" type="line"/>
      <point x="605.8266666666667" y="1449.0533333333333" type="line"/>
      <point x="433.9866666666667" y="1449.0533333333333" type="line"/>
    </contour>
  </outline>
</glyph>
<glyph name="underscore" format="2">
  <advance width="1559.3333333333335"/>
  <unicode hex="005F"/>
  <note>
underscore
</note>
  <outline>
    <contour>
      <point x="77.49333333333334" y="-418.6" type="line"/>
      <point x="1481.8400000000001" y="-418.6" type="line"/>
      <point x="1481.8400000000001" y="-333.8" type="line"/>
      <point x="77.49333333333334" y="-333.8" type="line"/>
    </contour>
  </outline>
</glyph>
<glyph name="a" format="2">
  <advance width="1253.8133333333333"/>
  <unicode hex="0061"/>
  <note>
a
</note>
  <anchor x="584.72" y="0.0" name="bottom"/>
  <anchor x="1049.4933333333333" y="0.0" name="ogonek"/>
  <anchor x="589.6533333333333" y="931.2666666666667" name="top"/>
  <outline>
    <contour>
      <point x="546.7733333333333" y="-32.46666666666667" type="curve" smooth="yes"/>
      <point x="745.2533333333333" y="-32.46666666666667"/>
      <point x="897.2533333333333" y="52.160000000000004"/>
      <point x="913.4666666666667" y="364.04" type="curve"/>
      <point x="897.5066666666667" y="251.09333333333333" type="line"/>
      <point x="897.5066666666667" y="0.0" type="line"/>
      <point x="1128.2933333333333" y="0.0" type="line"/>
      <point x="1128.2933333333333" y="924.9466666666667" type="line"/>
      <point x="897.5066666666667" y="924.9466666666667" type="line"/>
      <point x="897.5066666666667" y="736.56" type="line"/>
      <point x="927.4" y="536.0" type="line"/>
      <point x="912.6800000000001" y="817.5333333333333"/>
      <point x="788.0666666666667" y="962.4"/>
      <point x="560.2133333333334" y="962.4" type="curve" smooth="yes"/>
      <point x="243.48" y="962.4"/>
      <point x="54.49333333333334" y="775.8266666666667"/>
      <point x="50.013333333333335" y="459.97333333333336" type="curve" smooth="yes"/>
      <point x="45.53333333333333" y="147.12"/>
      <point x="253.93333333333334" y="-32.46666666666667"/>
    </contour>
    <contour>
      <point x="585.6" y="-5.026666666666671" type="curve" smooth="yes"/>
      <point x="391.48" y="-5.026666666666671"/>
      <point x="275.85333333333335" y="200.97333333333333"/>
      <point x="278.84000000000003" y="463.0" type="curve" smooth="yes"/>
      <point x="281.82666666666665" y="745.9866666666667"/>
      <point x="398.49333333333334" y="935.4666666666667"/>
      <point x="582.6133333333333" y="935.4666666666667" type="curve" smooth="yes"/>
      <point x="788.2" y="935.4666666666667"/>
      <point x="897.3466666666667" y="766.3066666666666"/>
      <point x="894.36" y="459.97333333333336" type="curve" smooth="yes"/>
      <point x="891.3733333333333" y="158.05333333333334"/>
      <point x="781.6666666666666" y="-5.026666666666671"/>
    </contour>
  </outline>
</glyph>
<glyph name="b" format="2">
  <advance width="1209.5066666666667"/>
  <unicode hex="0062"/>
  <note>
b
</note>
  <anchor x="624.6800000000001" y="-3.552713678800501e-15" name="bottom"/>
  <anchor x="624.6800000000001" y="1521.4666666666667" name="top"/>
  <outline>
    <contour>
      <point x="700.04" y="-32.96" type="curve" smooth="yes"/>
      <point x="983.9466666666667" y="-32.96"/>
      <point x="1160.0" y="164.04"/>
      <point x="1160.0" y="458.48" type="curve" smooth="yes"/>
      <point x="1160.0" y="766.36"/>
      <point x="966.0266666666666" y="954.4266666666666"/>
      <point x="689.5866666666667" y="954.4266666666666" type="curve" smooth="yes"/>
      <point x="479.24" y="954.4266666666666"/>
      <point x="389.50666666666666" y="846.0133333333333"/>
      <point x="337.41333333333336" y="663.1866666666667" type="curve"/>
      <point x="405.14666666666665" y="619.3333333333334" type="line"/>
      <point x="405.14666666666665" y="1521.4" type="line"/>
      <point x="139.01333333333332" y="1521.4" type="line"/>
      <point x="139.01333333333332" y="0.0" type="line"/>
      <point x="402.16" y="0.0" type="line"/>
      <point x="402.16" y="286.6933333333333" type="line"/>
      <point x="326.96000000000004" y="250.8" type="line"/>
      <point x="382.04" y="69.97333333333333"/>
      <point x="494.66666666666663" y="-32.96"/>
    </contour>
    <contour>
      <point x="661.7066666666667" y="24.34666666666667" type="curve" smooth="yes"/>
      <point x="516.8399999999999" y="24.34666666666667"/>
      <point x="396.72" y="210.42666666666668"/>
      <point x="396.72" y="451.05333333333334" type="curve" smooth="yes"/>
      <point x="396.72" y="698.6933333333334"/>
      <point x="521.3733333333333" y="897.6266666666667"/>
      <point x="665.6933333333334" y="897.6266666666667" type="curve" smooth="yes"/>
      <point x="800.0933333333334" y="897.6266666666667"/>
      <point x="889.36" y="730.4666666666667"/>
      <point x="889.36" y="461.96" type="curve" smooth="yes"/>
      <point x="889.36" y="191.42666666666668"/>
      <point x="799.56" y="24.34666666666667"/>
    </contour>
  </outline>
</glyph>
<glyph name="c" format="2">
  <advance width="977.5333333333333"/>
  <unicode hex="0063"/>
  <note>
c
</note>
  <anchor x="489.8" y="-5.066666666666666" name="bottom"/>
  <anchor x="554.7333333333333" y="947.8533333333334" name="top"/>
  <outline>
    <contour>
      <point x="574.7066666666667" y="-32.96" type="curve" smooth="yes"/>
      <point x="688.76" y="-31.46666666666667"/>
      <point x="792.2933333333333" y="-5.386666666666665"/>
      <point x="926.5466666666666" y="107.94666666666666" type="curve"/>
      <point x="926.5466666666666" y="214.84" type="line"/>
      <point x="838.64" y="68.96000000000001"/>
      <point x="698.76" y="-4.533333333333346"/>
      <point x="582.1733333333333" y="-6.026666666666671" type="curve" smooth="yes"/>
      <point x="404.44" y="-8.013333333333335"/>
      <point x="299.24" y="150.69333333333333"/>
      <point x="299.24" y="458.52" type="curve" smooth="yes"/>
      <point x="299.24" y="747.9733333333334"/>
      <point x="395.0266666666667" y="931.9733333333334"/>
      <point x="567.24" y="933.96" type="curve" smooth="yes"/>
      <point x="684.84" y="935.4533333333334"/>
      <point x="835.16" y="852.0"/>
      <point x="926.5466666666666" y="722.5466666666666" type="curve"/>
      <point x="926.5466666666666" y="836.9066666666666" type="line"/>
      <point x="792.7866666666666" y="940.2933333333333"/>
      <point x="683.7866666666666" y="962.8933333333333"/>
      <point x="574.7066666666667" y="961.4" type="curve" smooth="yes"/>
      <point x="250.95999999999998" y="956.92"/>
      <point x="50.013333333333335" y="760.8933333333333"/>
      <point x="50.013333333333335" y="452.0133333333333" type="curve" smooth="yes"/>
      <point x="50.013333333333335" y="146.12"/>
      <point x="245.9733333333333" y="-37.44"/>
    </contour>
  </outline>
</glyph>
<glyph name="d" format="2">
  <advance width="1209.5066666666667"/>
  <unicode hex="0064"/>
  <note>
d
</note>
  <anchor x="531.7733333333333" y="-3.552713678800501e-15" name="bottom"/>
  <anchor x="921.7333333333333" y="1277.4666666666667" name="center"/>
  <anchor x="586.84" y="1521.4666666666667" name="top"/>
  <anchor x="1220.3733333333334" y="1517.9866666666667" name="topright"/>
  <outline>
    <contour>
      <point x="509.97333333333336" y="-32.96" type="curve" smooth="yes"/>
      <point x="714.84" y="-32.96"/>
      <point x="827.4666666666667" y="69.97333333333333"/>
      <point x="883.0533333333333" y="250.8" type="curve"/>
      <point x="807.3466666666667" y="286.6933333333333" type="line"/>
      <point x="807.3466666666667" y="0.0" type="line"/>
      <point x="1070.4933333333333" y="0.0" type="line"/>
      <point x="1070.4933333333333" y="1521.4" type="line"/>
      <point x="804.36" y="1521.4" type="line"/>
      <point x="804.36" y="619.3333333333334" type="line"/>
      <point x="872.6" y="663.1866666666667" type="line"/>
      <point x="820.0" y="846.0133333333333"/>
      <point x="730.7733333333333" y="954.4266666666666"/>
      <point x="520.4266666666666" y="954.4266666666666" type="curve" smooth="yes"/>
      <point x="243.48" y="954.4266666666666"/>
      <point x="50.013333333333335" y="767.8533333333334"/>
      <point x="50.013333333333335" y="458.48" type="curve" smooth="yes"/>
      <point x="50.013333333333335" y="165.53333333333333"/>
      <point x="226.06666666666666" y="-32.96"/>
    </contour>
    <contour>
      <point x="547.8" y="24.346666666666664" type="curve" smooth="yes"/>
      <point x="410.94666666666666" y="24.346666666666664"/>
      <point x="320.14666666666665" y="189.93333333333334"/>
      <point x="320.14666666666665" y="461.96" type="curve" smooth="yes"/>
      <point x="320.14666666666665" y="728.9733333333334"/>
      <point x="408.91999999999996" y="897.6266666666667"/>
      <point x="544.32" y="897.6266666666667" type="curve" smooth="yes"/>
      <point x="687.64" y="897.6266666666667"/>
      <point x="812.7866666666666" y="698.6933333333334"/>
      <point x="812.7866666666666" y="451.05333333333334" type="curve" smooth="yes"/>
      <point x="812.7866666666666" y="210.42666666666668"/>
      <point x="693.6666666666666" y="24.346666666666664"/>
    </contour>
  </outline>
</glyph>
<glyph name="e" format="2">
  <advance width="1135.4"/>
  <unicode hex="0065"/>
  <note>
e
</note>
  <anchor x="587.5333333333333" y="-10.0" name="bottom"/>
  <anchor x="748.56" y="2.533333333333333" name="ogonek"/>
  <anchor x="577.6666666666666" y="932.7866666666666" name="top"/>
  <outline>
    <contour>
      <point x="574.1733333333333" y="-32.96" type="curve" smooth="yes"/>
      <point x="831.9333333333334" y="-30.46666666666667"/>
      <point x="990.56" y="76.54666666666667"/>
      <point x="1061.9733333333334" y="261.50666666666666" type="curve"/>
      <point x="974.0266666666666" y="261.50666666666666" type="line"/>
      <point x="891.5733333333334" y="80.54666666666667"/>
      <point x="738.1733333333333" y="-4.533333333333346"/>
      <point x="581.64" y="-6.026666666666671" type="curve" smooth="yes"/>
      <point x="402.97333333333336" y="-7.519999999999996"/>
      <point x="293.26666666666665" y="156.56"/>
      <point x="293.26666666666665" y="456.49333333333334" type="curve" smooth="yes"/>
      <point x="293.26666666666665" y="762.8666666666667"/>
      <point x="410.4" y="931.4666666666667"/>
      <point x="581.64" y="933.96" type="curve" smooth="yes"/>
      <point x="752.2533333333333" y="935.9466666666667"/>
      <point x="861.0" y="769.56"/>
      <point x="867.5866666666667" y="487.5866666666667" type="curve"/>
      <point x="1092.4266666666667" y="487.5866666666667" type="line"/>
      <point x="1109.76" y="792.9466666666667"/>
      <point x="885.28" y="965.88"/>
      <point x="574.1733333333334" y="961.4" type="curve" smooth="yes"/>
      <point x="242.97333333333333" y="956.92"/>
      <point x="51.506666666666675" y="751.3333333333334"/>
      <point x="51.506666666666675" y="449.48" type="curve" smooth="yes"/>
      <point x="51.506666666666675" y="134.70666666666665"/>
      <point x="228.97333333333333" y="-36.44"/>
    </contour>
    <contour>
      <point x="288.1733333333333" y="487.09333333333336" type="line"/>
      <point x="976.68" y="487.5866666666667" type="line"/>
      <point x="976.68" y="512.52" type="line"/>
      <point x="271.74666666666667" y="512.52" type="line"/>
    </contour>
  </outline>
</glyph>
<glyph name="f" format="2">
  <advance width="612.9733333333334"/>
  <unicode hex="0066"/>
  <note>
f
</note>
  <anchor x="312.52" y="-3.552713678800501e-15" name="bottom"/>
  <anchor x="312.52" y="1521.4666666666667" name="top"/>
  <outline>
    <contour>
      <point x="173.96000000000004" y="0.0" type="line"/>
      <point x="403.77333333333337" y="0.0" type="line"/>
      <point x="403.77333333333337" y="996.2133333333334" type="line" smooth="yes"/>
      <point x="403.77333333333337" y="1249.8533333333332"/>
      <point x="337.17333333333335" y="1524.9866666666667"/>
      <point x="445.56" y="1541.3866666666668" type="curve" smooth="yes"/>
      <point x="509.02666666666664" y="1550.84"/>
      <point x="575.8933333333333" y="1461.0133333333333"/>
      <point x="575.8933333333333" y="1374.0666666666666" type="curve" smooth="yes"/>
      <point x="575.8933333333333" y="1356.5333333333333"/>
      <point x="573.3866666666667" y="1319.0666666666666"/>
      <point x="566.3866666666667" y="1284.1333333333332" type="curve"/>
      <point x="693.04" y="1314.0" type="line"/>
      <point x="698.5466666666666" y="1344.56"/>
      <point x="700.0533333333334" y="1378.0533333333333"/>
      <point x="700.0533333333334" y="1392.5866666666666" type="curve" smooth="yes"/>
      <point x="700.0533333333334" y="1513.4"/>
      <point x="593.28" y="1566.84"/>
      <point x="445.53333333333336" y="1566.84" type="curve" smooth="yes"/>
      <point x="234.78666666666666" y="1566.84"/>
      <point x="173.96000000000004" y="1441.6533333333334"/>
      <point x="173.96000000000004" y="1070.88" type="curve" smooth="yes"/>
    </contour>
    <contour>
      <point x="9.079999999999998" y="899.5066666666667" type="line"/>
      <point x="615.96" y="899.5066666666667" type="line"/>
      <point x="615.96" y="924.44" type="line"/>
      <point x="9.079999999999998" y="924.44" type="line"/>
    </contour>
  </outline>
</glyph>
<glyph name="g" format="2">
  <advance width="1211.5333333333333"/>
  <unicode hex="0067"/>
  <note>
g
</note>
  <anchor x="599.2933333333333" y="-526.0" name="bottom"/>
  <anchor x="554.2266666666667" y="935.3199999999999" name="top"/>
  <outline>
    <contour>
      <point x="538.84" y="-572.52" type="curve" smooth="yes"/>
      <point x="984.6133333333333" y="-572.52"/>
      <point x="1073.0133333333333" y="-320.28000000000003"/>
      <point x="1073.52" y="94.61333333333333" type="curve" smooth="yes"/>
      <point x="1074.5333333333333" y="924.9466666666667" type="line"/>
      <point x="845.7333333333333" y="924.9466666666667" type="line"/>
      <point x="845.7333333333333" y="658.4133333333333" type="line"/>
      <point x="921.4266666666666" y="667.9066666666666" type="line"/>
      <point x="866.88" y="844.9066666666666"/>
      <point x="727.8266666666667" y="950.9466666666667"/>
      <point x="526.36" y="950.9466666666667" type="curve" smooth="yes"/>
      <point x="247.45333333333332" y="950.9466666666667"/>
      <point x="50.50666666666667" y="748.9466666666667"/>
      <point x="50.50666666666667" y="447.53333333333336" type="curve" smooth="yes"/>
      <point x="50.50666666666667" y="146.12"/>
      <point x="248.45333333333335" y="-51.879999999999995"/>
      <point x="530.84" y="-51.879999999999995" type="curve" smooth="yes"/>
      <point x="732.3066666666666" y="-51.879999999999995"/>
      <point x="868.3733333333333" y="49.66666666666666"/>
      <point x="923.4133333333333" y="222.17333333333335" type="curve"/>
      <point x="848.72" y="265.02666666666664" type="line"/>
      <point x="848.72" y="45.33333333333333" type="line"/>
      <point x="848.72" y="-308.73333333333335"/>
      <point x="781.0666666666666" y="-546.0933333333334"/>
      <point x="516.3733333333333" y="-546.0933333333334" type="curve" smooth="yes"/>
      <point x="303.82666666666665" y="-546.0933333333334"/>
      <point x="249.64" y="-389.3066666666667"/>
      <point x="236.06666666666666" y="-230.92" type="curve"/>
      <point x="54.08" y="-230.92" type="line"/>
      <point x="102.17333333333335" y="-465.4"/>
      <point x="247.65333333333336" y="-572.52"/>
    </contour>
    <contour>
      <point x="554.24" y="-24.440000000000012" type="curve" smooth="yes"/>
      <point x="415.8666666666667" y="-24.440000000000012"/>
      <point x="291.28" y="184.54666666666665"/>
      <point x="291.28" y="453.5466666666667" type="curve" smooth="yes"/>
      <point x="291.28" y="723.5866666666667"/>
      <point x="416.90666666666664" y="923.5066666666667"/>
      <point x="550.2533333333333" y="923.5066666666667" type="curve" smooth="yes"/>
      <point x="694.1066666666667" y="923.5066666666667"/>
      <point x="809.7333333333333" y="690.64"/>
      <point x="809.7333333333333" y="445.04" type="curve" smooth="yes"/>
      <point x="809.7333333333333" y="202.37333333333333"/>
      <point x="695.5466666666666" y="-24.440000000000012"/>
    </contour>
  </outline>
</glyph>
<glyph name="h" format="2">
  <advance width="1195.76"/>
  <unicode hex="0068"/>
  <note>
h
</note>
  <anchor x="633.52" y="0.0" name="bottom"/>
  <anchor x="255.07999999999998" y="1258.4666666666667" name="center"/>
  <anchor x="633.52" y="1514.0" name="top"/>
  <outline>
    <contour>
      <point x="139.01333333333332" y="0.0" type="line"/>
      <point x="367.81333333333333" y="0.0" type="line"/>
      <point x="367.81333333333333" y="641.8666666666667" type="line" smooth="yes"/>
      <point x="367.81333333333333" y="829.76"/>
      <point x="556.7066666666667" y="921.0266666666666"/>
      <point x="675.1066666666667" y="921.0266666666666" type="curve" smooth="yes"/>
      <point x="824.2666666666667" y="921.0266666666666"/>
      <point x="869.44" y="764.7066666666667"/>
      <point x="869.44" y="544.48" type="curve" smooth="yes"/>
      <point x="869.44" y="0.0" type="line"/>
      <point x="1098.24" y="0.0" type="line"/>
      <point x="1098.24" y="589.76" type="line" smooth="yes"/>
      <point x="1098.24" y="808.5066666666667"/>
      <point x="932.4133333333334" y="950.9466666666666"/>
      <point x="700.04" y="950.9466666666666" type="curve" smooth="yes"/>
      <point x="499.56" y="950.9466666666666"/>
      <point x="344.48" y="843.8933333333333"/>
      <point x="348.8666666666667" y="594.6800000000001" type="curve"/>
      <point x="365.8266666666667" y="538.5066666666667" type="line"/>
      <point x="367.8133333333334" y="1521.4" type="line"/>
      <point x="139.01333333333332" y="1521.4" type="line"/>
    </contour>
  </outline>
</glyph>
<glyph name="k" format="2">
  <advance width="1042.6533333333334"/>
  <unicode hex="006B"/>
  <note>
k
</note>
  <anchor x="547.5333333333333" y="0.0" name="bottom"/>
  <anchor x="547.5333333333333" y="1518.9333333333334" name="top"/>
  <outline>
    <contour>
      <point x="139.01333333333332" y="0.0" type="line"/>
      <point x="369.33333333333337" y="0.0" type="line"/>
      <point x="369.33333333333337" y="1521.4" type="line"/>
      <point x="139.01333333333332" y="1521.4" type="line"/>
    </contour>
    <contour>
      <point x="846.0933333333334" y="0.0" type="line"/>
      <point x="1041.16" y="0.0" type="line"/>
      <point x="569.4133333333334" y="602.7733333333333" type="line"/>
      <point x="454.20000000000005" y="496.5333333333333" type="line"/>
    </contour>
    <contour>
      <point x="276.6666666666667" y="276.64" type="line"/>
      <point x="914.8533333333334" y="924.9466666666667" type="line"/>
      <point x="871.3866666666667" y="924.9466666666667" type="line"/>
      <point x="334.3466666666667" y="384.28" type="line"/>
    </contour>
  </outline>
</glyph>
<glyph name="l" format="2">
  <advance width="544.16"/>
  <unicode hex="006C"/>
  <note>
l
</note>
  <anchor x="237.28" y="0.0" name="bottom"/>
  <anchor x="272.08" y="771.12" name="center"/>
  <anchor x="631.7466666666667" y="783.0" name="dot"/>
  <anchor x="384.08000000000004" y="1522.9866666666667" name="top"/>
  <anchor x="524.1466666666668" y="1496.4" name="topright"/>
  <outline>
    <contour>
      <point x="139.01333333333332" y="0.0" type="line"/>
      <point x="405.1466666666667" y="0.0" type="line"/>
      <point x="405.1466666666667" y="1521.4" type="line"/>
      <point x="139.01333333333332" y="1521.4" type="line"/>
    </contour>
  </outline>
</glyph>
<glyph name="m" format="2">
  <advance width="1874.1066666666666"/>
  <unicode hex="006D"/>
  <note>
m
</note>
  <anchor x="940.5466666666666" y="0.0" name="bottom"/>
  <anchor x="940.5466666666666" y="927.8533333333334" name="top"/>
  <outline>
    <contour>
      <point x="125.52" y="0.0" type="line"/>
      <point x="355.81333333333333" y="0.0" type="line"/>
      <point x="355.81333333333333" y="634.4" type="line" smooth="yes"/>
      <point x="355.81333333333333" y="813.3333333333334"/>
      <point x="530.24" y="921.0266666666666"/>
      <point x="653.5866666666667" y="921.0266666666666" type="curve" smooth="yes"/>
      <point x="796.7333333333333" y="921.0266666666666"/>
      <point x="836.9066666666666" y="764.7066666666667"/>
      <point x="836.9066666666666" y="544.48" type="curve" smooth="yes"/>
      <point x="836.9066666666666" y="0.0" type="line"/>
      <point x="1067.2" y="0.0" type="line"/>
      <point x="1066.6933333333334" y="634.4" type="line" smooth="yes"/>
      <point x="1066.6933333333334" y="810.8"/>
      <point x="1235.6266666666668" y="921.0266666666666"/>
      <point x="1358.9733333333334" y="921.0266666666666" type="curve" smooth="yes"/>
      <point x="1502.6266666666666" y="921.0266666666666"/>
      <point x="1546.7866666666666" y="764.7066666666667"/>
      <point x="1546.7866666666666" y="544.48" type="curve" smooth="yes"/>
      <point x="1546.7866666666666" y="0.0" type="line"/>
      <point x="1777.08" y="0.0" type="line"/>
      <point x="1777.08" y="589.76" type="line" smooth="yes"/>
      <point x="1777.08" y="808.5066666666667"/>
      <point x="1598.3466666666666" y="950.9466666666667"/>
      <point x="1383.4133333333334" y="950.9466666666667" type="curve" smooth="yes"/>
      <point x="1199.8933333333334" y="950.9466666666667"/>
      <point x="1039.84" y="817.0"/>
      <point x="1042.2533333333333" y="591.72" type="curve"/>
      <point x="1062.68" y="610.6133333333333" type="line"/>
      <point x="1058.08" y="814.6266666666667"/>
      <point x="887.36" y="950.9466666666667"/>
      <point x="677.52" y="950.9466666666667" type="curve" smooth="yes"/>
      <point x="505.0" y="950.9466666666667"/>
      <point x="354.44" y="837.0133333333333"/>
      <point x="337.37333333333333" y="634.6666666666666" type="curve"/>
      <point x="354.32" y="605.2533333333333" type="line"/>
      <point x="355.81333333333333" y="924.9466666666667" type="line"/>
      <point x="125.52" y="924.9466666666667" type="line"/>
    </contour>
  </outline>
</glyph>
<glyph name="n" format="2">
  <advance width="1181.76"/>
  <unicode hex="006E"/>
  <note>
n
</note>
  <anchor x="590.0666666666666" y="0.0" name="bottom"/>
  <anchor x="590.0666666666666" y="927.8533333333334" name="top"/>
  <outline>
    <contour>
      <point x="125.52000000000001" y="0.0" type="line"/>
      <point x="354.32" y="0.0" type="line"/>
      <point x="354.32" y="634.4" type="line" smooth="yes"/>
      <point x="354.32" y="813.3333333333334"/>
      <point x="533.7466666666667" y="921.0266666666666"/>
      <point x="661.6133333333333" y="921.0266666666666" type="curve" smooth="yes"/>
      <point x="809.7733333333333" y="921.0266666666666"/>
      <point x="855.44" y="764.7066666666667"/>
      <point x="855.44" y="544.48" type="curve" smooth="yes"/>
      <point x="855.44" y="0.0" type="line"/>
      <point x="1084.24" y="0.0" type="line"/>
      <point x="1084.24" y="589.76" type="line" smooth="yes"/>
      <point x="1084.24" y="808.5066666666667"/>
      <point x="906.9733333333334" y="950.9466666666667"/>
      <point x="686.5466666666666" y="950.9466666666667" type="curve" smooth="yes"/>
      <point x="489.5466666666666" y="950.9466666666667"/>
      <point x="322.52" y="808.0533333333333"/>
      <point x="334.8666666666667" y="564.8133333333333" type="curve"/>
      <point x="351.82666666666665" y="516.1066666666667" type="line"/>
      <point x="354.32" y="924.9466666666667" type="line"/>
      <point x="125.52000000000001" y="924.9466666666667" type="line"/>
    </contour>
  </outline>
</glyph>
<glyph name="o" format="2">
  <advance width="1156.3866666666668"/>
  <unicode hex="006F"/>
  <note>
o
</note>
  <anchor x="578.6933333333334" y="0.0" name="bottom"/>
  <anchor x="578.6933333333334" y="460.94666666666666" name="center"/>
  <anchor x="731.52" y="0.0" name="ogonek"/>
  <anchor x="578.6933333333334" y="931.2666666666667" name="top"/>
  <anchor x="1117.9466666666667" y="921.4" name="topright"/>
  <outline>
    <contour>
      <point x="574.7066666666667" y="-32.96" type="curve" smooth="yes"/>
      <point x="899.4533333333334" y="-28.48"/>
      <point x="1106.88" y="166.02666666666667"/>
      <point x="1106.88" y="466.94666666666666" type="curve" smooth="yes"/>
      <point x="1106.88" y="781.2933333333333"/>
      <point x="910.4133333333333" y="965.88"/>
      <point x="574.7066666666667" y="961.4" type="curve" smooth="yes"/>
      <point x="255.44" y="956.92"/>
      <point x="50.013333333333335" y="756.9066666666666"/>
      <point x="50.013333333333335" y="452.0133333333333" type="curve" smooth="yes"/>
      <point x="50.013333333333335" y="142.64"/>
      <point x="243.98666666666668" y="-37.44"/>
    </contour>
    <contour>
      <point x="582.1733333333333" y="-6.026666666666671" type="curve" smooth="yes"/>
      <point x="405.96000000000004" y="-8.013333333333335"/>
      <point x="299.24" y="165.58666666666667"/>
      <point x="299.24" y="458.52" type="curve" smooth="yes"/>
      <point x="299.24" y="764.8933333333333"/>
      <point x="397.0133333333333" y="931.9733333333334"/>
      <point x="567.24" y="933.96" type="curve" smooth="yes"/>
      <point x="746.4666666666667" y="936.4533333333334"/>
      <point x="859.64" y="749.88"/>
      <point x="859.64" y="461.96" type="curve" smooth="yes"/>
      <point x="859.64" y="154.48"/>
      <point x="753.3066666666666" y="-4.039999999999992"/>
    </contour>
  </outline>
</glyph>
<glyph name="p" format="2">
  <advance width="1211.4933333333333"/>
  <unicode hex="0070"/>
  <note>
p
</note>
  <anchor x="626.16" y="-3.552713678800501e-15" name="bottom"/>
  <anchor x="626.16" y="917.9866666666667" name="top"/>
  <outline>
    <contour>
      <point x="141.0" y="-544.7466666666667" type="line"/>
      <point x="407.1333333333333" y="-544.7466666666667" type="line"/>
      <point x="407.1333333333333" y="298.6533333333333" type="line"/>
      <point x="339.4" y="254.8" type="line"/>
      <point x="391.49333333333334" y="71.97333333333333"/>
      <point x="483.21333333333337" y="-36.946666666666665"/>
      <point x="691.5733333333333" y="-36.946666666666665" type="curve" smooth="yes"/>
      <point x="970.5066666666667" y="-36.946666666666665"/>
      <point x="1161.9866666666667" y="158.09333333333333"/>
      <point x="1161.9866666666667" y="466.97333333333336" type="curve" smooth="yes"/>
      <point x="1161.9866666666667" y="760.92"/>
      <point x="987.9200000000001" y="963.4133333333333"/>
      <point x="702.0266666666666" y="963.4133333333333" type="curve" smooth="yes"/>
      <point x="499.14666666666665" y="963.4133333333333"/>
      <point x="384.02666666666664" y="862.9466666666667"/>
      <point x="328.9466666666666" y="682.12" type="curve"/>
      <point x="404.1466666666667" y="631.2933333333333" type="line"/>
      <point x="404.1466666666667" y="924.9466666666667" type="line"/>
      <point x="141.0" y="924.9466666666667" type="line"/>
    </contour>
    <contour>
      <point x="667.6800000000001" y="20.36" type="curve" smooth="yes"/>
      <point x="524.8533333333334" y="20.36"/>
      <point x="398.7066666666667" y="219.29333333333332"/>
      <point x="398.7066666666667" y="466.93333333333334" type="curve" smooth="yes"/>
      <point x="398.7066666666667" y="707.56"/>
      <point x="517.3333333333333" y="906.1066666666667"/>
      <point x="663.6933333333334" y="906.1066666666667" type="curve" smooth="yes"/>
      <point x="800.0533333333333" y="906.1066666666667"/>
      <point x="891.3466666666667" y="735.52"/>
      <point x="891.3466666666667" y="463.49333333333334" type="curve" smooth="yes"/>
      <point x="891.3466666666667" y="196.48"/>
      <point x="803.5733333333334" y="20.36"/>
    </contour>
  </outline>
</glyph>
<glyph name="q" format="2">
  <advance width="1196.52"/>
  <unicode hex="0071"/>
  <note>
q
</note>
  <anchor x="567.88" y="-3.552713678800501e-15" name="bottom"/>
  <anchor x="567.88" y="917.9866666666667" name="top"/>
  <outline>
    <contour>
      <point x="804.8666666666667" y="-544.7466666666667" type="line"/>
      <point x="1071.0" y="-544.7466666666667" type="line"/>
      <point x="1071.0" y="924.9466666666667" type="line"/>
      <point x="807.8533333333334" y="924.9466666666667" type="line"/>
      <point x="807.8533333333334" y="631.2933333333333" type="line"/>
      <point x="883.0533333333333" y="682.12" type="line"/>
      <point x="827.9733333333334" y="862.9466666666667"/>
      <point x="712.8533333333334" y="964.8666666666667"/>
      <point x="509.97333333333336" y="964.8666666666667" type="curve" smooth="yes"/>
      <point x="224.08" y="964.8666666666667"/>
      <point x="50.013333333333335" y="761.4133333333333"/>
      <point x="50.013333333333335" y="466.97333333333336" type="curve" smooth="yes"/>
      <point x="50.013333333333335" y="159.09333333333333"/>
      <point x="241.49333333333334" y="-36.946666666666665"/>
      <point x="520.4266666666666" y="-36.946666666666665" type="curve" smooth="yes"/>
      <point x="728.7866666666666" y="-36.946666666666665"/>
      <point x="820.5066666666667" y="71.97333333333333"/>
      <point x="872.6" y="254.8" type="curve"/>
      <point x="804.8666666666667" y="298.6533333333333" type="line"/>
    </contour>
    <contour>
      <point x="544.3199999999999" y="20.36" type="curve" smooth="yes"/>
      <point x="408.4266666666667" y="20.36"/>
      <point x="320.6533333333333" y="196.48"/>
      <point x="320.6533333333333" y="463.49333333333334" type="curve" smooth="yes"/>
      <point x="320.6533333333333" y="735.52"/>
      <point x="411.94666666666666" y="907.56"/>
      <point x="548.3066666666666" y="907.56" type="curve" smooth="yes"/>
      <point x="694.6666666666666" y="907.56"/>
      <point x="813.2933333333333" y="707.56"/>
      <point x="813.2933333333333" y="466.93333333333334" type="curve" smooth="yes"/>
      <point x="813.2933333333333" y="219.29333333333332"/>
      <point x="687.1466666666666" y="20.36"/>
    </contour>
  </outline>
</glyph>
<glyph name="r" format="2">
  <advance width="893.24"/>
  <unicode hex="0072"/>
  <note>
r
</note>
  <anchor x="202.1466666666667" y="0.0" name="bottom"/>
  <anchor x="574.4133333333333" y="927.8533333333334" name="top"/>
  <outline>
    <contour>
      <point x="125.52" y="0.0" type="line"/>
      <point x="354.32" y="0.0" type="line"/>
      <point x="354.32" y="606.8" type="line" smooth="yes"/>
      <point x="354.32" y="741.64"/>
      <point x="458.32000000000005" y="920.52"/>
      <point x="586.44" y="920.52" type="curve" smooth="yes"/>
      <point x="712.8266666666667" y="920.52"/>
      <point x="740.04" y="843.6"/>
      <point x="740.04" y="778.9733333333334" type="curve" smooth="yes"/>
      <point x="740.04" y="717.1466666666666"/>
      <point x="723.5866666666667" y="688.6133333333333"/>
      <point x="707.1066666666667" y="668.5866666666667" type="curve"/>
      <point x="845.72" y="634.16" type="line"/>
      <point x="868.2133333333334" y="689.04"/>
      <point x="876.2533333333333" y="725.04"/>
      <point x="876.2533333333333" y="757.0666666666666" type="curve" smooth="yes"/>
      <point x="876.2533333333333" y="878.4933333333333"/>
      <point x="776.6666666666666" y="950.9466666666667"/>
      <point x="634.7866666666666" y="950.9466666666667" type="curve" smooth="yes"/>
      <point x="490.2266666666667" y="950.9466666666667"/>
      <point x="384.1866666666667" y="858.36"/>
      <point x="344.24" y="655.04" type="curve"/>
      <point x="354.32" y="642.4266666666666" type="line"/>
      <point x="354.32" y="924.9466666666667" type="line"/>
      <point x="125.52" y="924.9466666666667" type="line"/>
    </contour>
  </outline>
</glyph>
<glyph name="s" format="2">
  <advance width="892.2533333333333"/>
  <unicode hex="0073"/>
  <note>
s
</note>
  <anchor x="415.12" y="-10.0" name="bottom"/>
  <anchor x="445.12" y="929.88" name="top"/>
  <outline>
    <contour>
      <point x="436.6" y="-32.96" type="curve" smooth="yes"/>
      <point x="658.4666666666667" y="-32.96"/>
      <point x="855.24" y="51.026666666666664"/>
      <point x="852.7466666666667" y="264.44" type="curve" smooth="yes"/>
      <point x="850.2533333333333" y="485.3066666666667"/>
      <point x="577.7866666666666" y="560.24"/>
      <point x="463.62666666666667" y="590.76" type="curve" smooth="yes"/>
      <point x="306.21333333333337" y="633.7066666666667"/>
      <point x="262.92" y="676.2"/>
      <point x="262.92" y="751.36" type="curve" smooth="yes"/>
      <point x="262.92" y="865.52"/>
      <point x="345.16" y="932.4666666666667"/>
      <point x="460.12" y="932.4666666666667" type="curve" smooth="yes"/>
      <point x="579.16" y="932.4666666666667"/>
      <point x="705.3466666666667" y="859.4133333333333"/>
      <point x="750.4133333333333" y="788.3466666666667" type="curve"/>
      <point x="814.6266666666667" y="825.5733333333334" type="line"/>
      <point x="734.2666666666667" y="921.8933333333333"/>
      <point x="595.0266666666666" y="961.4"/>
      <point x="461.12" y="961.4" type="curve" smooth="yes"/>
      <point x="245.89333333333335" y="961.4"/>
      <point x="76.42666666666668" y="864.0"/>
      <point x="77.92" y="692.56" type="curve" smooth="yes"/>
      <point x="79.41333333333333" y="527.72"/>
      <point x="231.44" y="457.68"/>
      <point x="384.25333333333333" y="415.6" type="curve" smooth="yes"/>
      <point x="588.3333333333334" y="358.71999999999997"/>
      <point x="631.3733333333333" y="273.9333333333333"/>
      <point x="631.3733333333333" y="212.06666666666666" type="curve" smooth="yes"/>
      <point x="631.3733333333333" y="9.733333333333306"/>
      <point x="504.49333333333334" y="-3.0266666666666637"/>
      <point x="426.64" y="-3.0266666666666637" type="curve" smooth="yes"/>
      <point x="242.73333333333332" y="-3.0266666666666495"/>
      <point x="140.86666666666667" y="87.4"/>
      <point x="106.21333333333334" y="202.85333333333332" type="curve"/>
      <point x="30.053333333333327" y="164.58666666666667" type="line"/>
      <point x="71.12" y="70.76"/>
      <point x="192.07999999999998" y="-32.96"/>
    </contour>
  </outline>
</glyph>
<glyph name="t" format="2">
  <advance width="637.0133333333333"/>
  <unicode hex="0074"/>
  <note>
t
</note>
  <anchor x="355.64" y="-5.066666666666666" name="bottom"/>
  <anchor x="275.64" y="637.7733333333333" name="center"/>
  <anchor x="325.50666666666666" y="925.4533333333334" name="top"/>
  <anchor x="550.8133333333334" y="1382.3866666666668" name="topright"/>
  <outline>
    <contour>
      <point x="383.97333333333336" y="-29.453333333333333" type="curve" smooth="yes"/>
      <point x="482.74666666666667" y="-29.453333333333333"/>
      <point x="605.4933333333333" y="3.4800000000000004"/>
      <point x="624.9733333333334" y="19.44" type="curve"/>
      <point x="624.9733333333334" y="57.89333333333333" type="line"/>
      <point x="580.0533333333333" y="31.946666666666665"/>
      <point x="478.76" y="6.946666666666665"/>
      <point x="434.28000000000003" y="6.946666666666665" type="curve" smooth="yes"/>
      <point x="325.02666666666664" y="6.946666666666665"/>
      <point x="384.28000000000003" y="166.45333333333335"/>
      <point x="384.28000000000003" y="596.2933333333334" type="curve" smooth="yes"/>
      <point x="384.28000000000003" y="899.5066666666667" type="line"/>
      <point x="561.6133333333333" y="899.5066666666667" type="line"/>
      <point x="561.6133333333333" y="924.44" type="line"/>
      <point x="384.28000000000003" y="924.44" type="line"/>
      <point x="384.28000000000003" y="1308.5066666666667" type="line"/>
      <point x="334.41333333333336" y="1308.5066666666667" type="line"/>
      <point x="334.41333333333336" y="958.8933333333333"/>
      <point x="180.92" y="923.9333333333333"/>
      <point x="20.066666666666663" y="924.44" type="curve"/>
      <point x="20.066666666666663" y="899.5066666666667" type="line"/>
      <point x="155.48" y="899.5066666666667" type="line"/>
      <point x="155.48" y="338.56" type="line" smooth="yes"/>
      <point x="155.48" y="63.54666666666667"/>
      <point x="219.70666666666668" y="-29.453333333333333"/>
    </contour>
  </outline>
</glyph>
<glyph name="u" format="2">
  <advance width="1177.1866666666667"/>
  <unicode hex="0075"/>
  <note>
u
</note>
  <anchor x="531.0266666666666" y="-4.933333333333334" name="bottom"/>
  <anchor x="974.8666666666667" y="0.0" name="ogonek"/>
  <anchor x="586.0933333333334" y="924.44" name="top"/>
  <anchor x="1212.1066666666666" y="924.44" name="topright"/>
  <outline>
    <contour>
      <point x="452.41333333333336" y="-31.44" type="curve" smooth="yes"/>
      <point x="674.92" y="-31.44"/>
      <point x="846.6933333333334" y="80.17333333333333"/>
      <point x="843.32" y="387.36" type="curve"/>
      <point x="826.8666666666667" y="394.68" type="line"/>
      <point x="824.3733333333333" y="0.0" type="line"/>
      <point x="1053.1733333333334" y="0.0" type="line"/>
      <point x="1053.1733333333334" y="924.9466666666667" type="line"/>
      <point x="824.3733333333333" y="924.9466666666667" type="line"/>
      <point x="824.3733333333333" y="368.5466666666667" type="line" smooth="yes"/>
      <point x="824.3733333333333" y="111.39999999999998"/>
      <point x="650.1733333333333" y="-1.519999999999996"/>
      <point x="484.81333333333333" y="-1.519999999999996" type="curve" smooth="yes"/>
      <point x="341.09333333333336" y="-1.519999999999996"/>
      <point x="328.32" y="151.76"/>
      <point x="328.32" y="375.53333333333336" type="curve" smooth="yes"/>
      <point x="328.32" y="924.9466666666667" type="line"/>
      <point x="99.52" y="924.9466666666667" type="line"/>
      <point x="99.52" y="325.18666666666667" type="line" smooth="yes"/>
      <point x="99.52" y="105.93333333333334"/>
      <point x="228.89333333333335" y="-31.44"/>
    </contour>
  </outline>
</glyph>
<glyph name="v" format="2">
  <advance width="927.4266666666667"/>
  <unicode hex="0076"/>
  <note>
v
</note>
  <anchor x="463.96" y="-3.552713678800501e-15" name="bottom"/>
  <anchor x="463.96" y="925.4533333333334" name="top"/>
  <outline>
    <contour>
      <point x="460.48" y="-30.933333333333334" type="line"/>
      <point x="463.0" y="-30.933333333333334" type="line"/>
      <point x="918.9066666666666" y="924.9466666666667" type="line"/>
      <point x="867.0799999999999" y="924.9466666666667" type="line"/>
      <point x="502.84" y="162.37333333333333" type="line"/>
      <point x="559.2133333333334" y="209.85333333333335" type="line"/>
      <point x="219.92000000000002" y="924.9466666666667" type="line"/>
      <point x="8.013333333333335" y="924.9466666666667" type="line"/>
    </contour>
  </outline>
</glyph>
<glyph name="w" format="2">
  <advance width="1508.4"/>
  <unicode hex="0077"/>
  <note>
w
</note>
  <anchor x="754.2" y="0.0" name="bottom"/>
  <anchor x="754.2" y="925.4533333333334" name="top"/>
  <outline>
    <contour>
      <point x="984.3466666666667" y="-5.053333333333333" type="line"/>
      <point x="1082.44" y="-5.053333333333333" type="line"/>
      <point x="1498.88" y="924.9466666666667" type="line"/>
      <point x="1448.0533333333333" y="924.9466666666667" type="line"/>
      <point x="1088.92" y="126.03999999999999" type="line"/>
      <point x="1130.8666666666666" y="154.6" type="line"/>
      <point x="786.2133333333334" y="924.9466666666667" type="line"/>
      <point x="572.3333333333334" y="924.9466666666667" type="line"/>
    </contour>
    <contour>
      <point x="422.02666666666664" y="-5.053333333333333" type="line"/>
      <point x="520.12" y="-5.053333333333333" type="line"/>
      <point x="808.5333333333333" y="639.8266666666666" type="line"/>
      <point x="821.9466666666667" y="784.76" type="line"/>
      <point x="535.5600000000001" y="143.95999999999998" type="line"/>
      <point x="563.0666666666667" y="165.54666666666668" type="line"/>
      <point x="224.38666666666666" y="924.9466666666667" type="line"/>
      <point x="10.013333333333335" y="924.9466666666667" type="line"/>
    </contour>
    <contour>
      <point x="862.84" y="719.9733333333334" type="line"/>
      <point x="953.04" y="924.9466666666667" type="line"/>
      <point x="902.2133333333334" y="924.9466666666667" type="line"/>
      <point x="840.4133333333333" y="783.2666666666667" type="line"/>
    </contour>
  </outline>
</glyph>
<glyph name="x" format="2">
  <advance width="873.0666666666667"/>
  <unicode hex="0078"/>
  <note>
x
</note>
  <anchor x="438.26666666666665" y="-3.552713678800501e-15" name="bottom"/>
  <anchor x="438.26666666666665" y="925.4533333333334" name="top"/>
  <outline>
    <contour>
      <point x="621.1600000000001" y="0.0" type="line"/>
      <point x="853.4933333333333" y="0.0" type="line"/>
      <point x="268.9066666666667" y="924.9466666666667" type="line"/>
      <point x="36.080000000000005" y="924.9466666666667" type="line"/>
    </contour>
    <contour>
      <point x="31.946666666666665" y="0.0" type="line"/>
      <point x="88.80000000000001" y="0.0" type="line"/>
      <point x="389.49333333333334" y="399.76" type="line"/>
      <point x="405.37333333333333" y="497.4266666666667" type="line"/>
    </contour>
    <contour>
      <point x="453.2266666666667" y="439.08" type="line"/>
      <point x="810.2" y="924.9466666666667" type="line"/>
      <point x="753.8266666666666" y="924.9466666666667" type="line"/>
      <point x="466.6666666666667" y="535.2933333333333" type="line"/>
    </contour>
  </outline>
</glyph>
<glyph name="y" format="2">
  <advance width="927.4266666666666"/>
  <unicode hex="0079"/>
  <note>
y
</note>
  <anchor x="653.2933333333333" y="0.0" name="bottom"/>
  <anchor x="483.6933333333333" y="925.4533333333334" name="top"/>
  <outline>
    <contour>
      <point x="209.92000000000002" y="-553.48" type="curve" smooth="yes"/>
      <point x="338.16" y="-553.48"/>
      <point x="358.21333333333337" y="-452.17333333333335"/>
      <point x="399.2133333333333" y="-330.2" type="curve" smooth="yes"/>
      <point x="446.78666666666663" y="-189.05333333333334"/>
      <point x="513.64" y="70.78666666666669"/>
      <point x="611.3466666666667" y="276.18666666666667" type="curve"/>
      <point x="918.9066666666666" y="924.9466666666667" type="line"/>
      <point x="867.08" y="924.9466666666667" type="line"/>
      <point x="491.4533333333333" y="137.10666666666668" type="line"/>
      <point x="555.7333333333333" y="216.81333333333333" type="line"/>
      <point x="219.92000000000002" y="924.9466666666667" type="line"/>
      <point x="8.013333333333335" y="924.9466666666667" type="line"/>
      <point x="467.96000000000004" y="-48.373333333333335" type="line"/>
      <point x="482.90666666666664" y="75.73333333333332" type="line"/>
      <point x="353.90666666666664" y="-308.17333333333335" type="line" smooth="yes"/>
      <point x="335.82666666666665" y="-364.37333333333333"/>
      <point x="300.36" y="-506.62666666666667"/>
      <point x="222.4" y="-524.5466666666666" type="curve" smooth="yes"/>
      <point x="160.01333333333332" y="-524.5466666666666"/>
      <point x="127.89333333333333" y="-458.25333333333333"/>
      <point x="130.42666666666668" y="-350.70666666666665" type="curve"/>
      <point x="28.680000000000007" y="-363.14666666666665" type="line"/>
      <point x="31.21333333333334" y="-501.06666666666666"/>
      <point x="122.58666666666667" y="-553.48"/>
    </contour>
  </outline>
</glyph>
<glyph name="z" format="2">
  <advance width="870.5066666666667"/>
  <unicode hex="007A"/>
  <note>
z
</note>
  <anchor x="434.76" y="0.0" name="bottom"/>
  <anchor x="434.76" y="462.97333333333336" name="center"/>
  <anchor x="434.76" y="924.9466666666667" name="top"/>
  <outline>
    <contour>
      <point x="18.520000000000003" y="0.0" type="line"/>
      <point x="822.52" y="0.0" type="line"/>
      <point x="822.0133333333333" y="24.933333333333337" type="line"/>
      <point x="112.92000000000002" y="24.933333333333337" type="line"/>
      <point x="220.46666666666667" y="13.466666666666665" type="line"/>
      <point x="847.0" y="924.9466666666667" type="line"/>
      <point x="57.986666666666665" y="924.9466666666667" type="line"/>
      <point x="58.49333333333333" y="900.0133333333333" type="line"/>
      <point x="753.1066666666667" y="900.0133333333333" type="line"/>
      <point x="648.04" y="914.96" type="line"/>
    </contour>
  </outline>
</glyph>
<glyph name="braceleft" format="2">
  <advance width="612.6"/>
  <unicode hex="007B"/>
  <note>
braceleft
</note>
  <outline>
    <contour>
      <point x="571.1066666666667" y="-410.96" type="curve"/>
      <point x="571.1066666666667" y="-320.14666666666665" type="line"/>
      <point x="401.06666666666666" y="-347.52"/>
      <point x="317.50666666666666" y="-242.86666666666667"/>
      <point x="317.50666666666666" y="8.0" type="curve" smooth="yes"/>
      <point x="317.50666666666666" y="330.0" type="line" smooth="yes"/>
      <point x="317.50666666666666" y="388.05333333333334"/>
      <point x="276.4266666666667" y="430.0933333333333"/>
      <point x="210.04000000000002" y="478.0" type="curve"/>
      <point x="278.41333333333336" y="530.4"/>
      <point x="317.50666666666666" y="568.9466666666667"/>
      <point x="317.50666666666666" y="626.0" type="curve" smooth="yes"/>
      <point x="317.50666666666666" y="1052.0" type="line" smooth="yes"/>
      <point x="317.50666666666666" y="1302.8666666666666"/>
      <point x="401.06666666666666" y="1407.52"/>
      <point x="571.1066666666667" y="1380.1466666666668" type="curve"/>
      <point x="571.1066666666667" y="1470.96" type="line"/>
      <point x="317.3333333333333" y="1491.3733333333334"/>
      <point x="158.04000000000002" y="1351.3733333333334"/>
      <point x="158.04000000000002" y="1122.0" type="curve" smooth="yes"/>
      <point x="158.04000000000002" y="626.0" type="line" smooth="yes"/>
      <point x="158.04000000000002" y="561.48"/>
      <point x="121.93333333333335" y="516.96"/>
      <point x="65.01333333333332" y="478.0" type="curve"/>
      <point x="121.93333333333332" y="439.04"/>
      <point x="158.04000000000002" y="395.02666666666664"/>
      <point x="158.04000000000002" y="330.0" type="curve" smooth="yes"/>
      <point x="158.04000000000002" y="-62.0" type="line" smooth="yes"/>
      <point x="158.04000000000002" y="-291.8666666666667"/>
      <point x="315.82666666666665" y="-430.37333333333333"/>
    </contour>
  </outline>
</glyph>
<glyph name="braceright" format="2">
  <advance width="612.6"/>
  <unicode hex="007D"/>
  <note>
braceright
</note>
  <outline>
    <contour>
      <point x="41.49333333333333" y="-410.96" type="line"/>
      <point x="296.7733333333333" y="-430.37333333333333"/>
      <point x="454.56" y="-291.8666666666667"/>
      <point x="454.56" y="-62.0" type="curve" smooth="yes"/>
      <point x="454.56" y="330.0" type="line" smooth="yes"/>
      <point x="454.56" y="395.02666666666664"/>
      <point x="490.6666666666667" y="439.04"/>
      <point x="548.0933333333334" y="478.0" type="curve"/>
      <point x="490.6666666666667" y="516.96"/>
      <point x="454.56" y="561.48"/>
      <point x="454.56" y="626.0" type="curve" smooth="yes"/>
      <point x="454.56" y="1122.0" type="line" smooth="yes"/>
      <point x="454.56" y="1351.3733333333334"/>
      <point x="295.7733333333333" y="1491.3733333333334"/>
      <point x="41.49333333333333" y="1470.96" type="curve"/>
      <point x="41.49333333333333" y="1380.1466666666668" type="line"/>
      <point x="212.04" y="1407.52"/>
      <point x="295.09333333333336" y="1302.8666666666666"/>
      <point x="295.09333333333336" y="1052.0" type="curve" smooth="yes"/>
      <point x="295.09333333333336" y="626.0" type="line" smooth="yes"/>
      <point x="295.09333333333336" y="568.9466666666667"/>
      <point x="334.18666666666667" y="530.4"/>
      <point x="402.56" y="478.0" type="curve"/>
      <point x="336.68" y="430.09333333333336"/>
      <point x="295.09333333333336" y="388.05333333333334"/>
      <point x="295.09333333333336" y="330.0" type="curve" smooth="yes"/>
      <point x="295.09333333333336" y="8.0" type="line" smooth="yes"/>
      <point x="295.09333333333336" y="-242.86666666666667"/>
      <point x="212.04" y="-347.52"/>
      <point x="41.49333333333333" y="-320.14666666666665" type="curve"/>
    </contour>
  </outline>
</glyph>
<glyph name="asciitilde" format="2">
  <advance width="1278.3600000000001"/>
  <unicode hex="007E"/>
  <note>
asciitilde
</note>
  <outline>
    <contour>
      <point x="839.2533333333333" y="574.84" type="curve" smooth="yes"/>
      <point x="967.1466666666666" y="574.84"/>
      <point x="1102.3466666666668" y="649.7066666666667"/>
      <point x="1173.32" y="710.8666666666667" type="curve"/>
      <point x="1104.0266666666666" y="816.48" type="line"/>
      <point x="973.92" y="731.5733333333334"/>
      <point x="889.88" y="708.92"/>
      <point x="837.7333333333333" y="708.92" type="curve" smooth="yes"/>
      <point x="769.24" y="708.92"/>
      <point x="719.7866666666666" y="745.92"/>
      <point x="669.3866666666667" y="774.3866666666667" type="curve" smooth="yes"/>
      <point x="580.12" y="824.8"/>
      <point x="499.73333333333335" y="849.3733333333333"/>
      <point x="437.5733333333333" y="849.3733333333333" type="curve" smooth="yes"/>
      <point x="333.06666666666666" y="849.3733333333333"/>
      <point x="192.38666666666666" y="780.9733333333334"/>
      <point x="104.53333333333333" y="696.9066666666666" type="curve"/>
      <point x="175.33333333333334" y="591.8" type="line"/>
      <point x="305.44" y="683.68"/>
      <point x="381.96000000000004" y="714.28"/>
      <point x="437.5866666666667" y="714.28" type="curve" smooth="yes"/>
      <point x="503.1066666666667" y="714.28"/>
      <point x="586.8933333333333" y="664.3333333333334"/>
      <point x="625.44" y="642.2933333333333" type="curve" smooth="yes"/>
      <point x="737.1066666666667" y="579.9466666666667"/>
      <point x="807.5333333333333" y="574.84"/>
    </contour>
  </outline>
</glyph>
<glyph name=".notdef" format="2">
  <advance width="1399.1733333333334"/>
  <unicode hex="007F"/>
  <note>
.notdef
</note>
  <outline>
    <contour>
      <point x="151.05333333333334" y="-365.4533333333333" type="line"/>
      <point x="1248.12" y="-365.4533333333333" type="line"/>
      <point x="1248.12" y="1421.4533333333334" type="line"/>
      <point x="151.05333333333334" y="1421.4533333333334" type="line"/>
    </contour>
    <contour>
      <point x="360.12" y="-231.05333333333334" type="line"/>
      <point x="360.12" y="1287.0533333333333" type="line"/>
      <point x="1039.0533333333333" y="1287.0533333333333" type="line"/>
      <point x="1039.0533333333333" y="-231.05333333333334" type="line"/>
    </contour>
  </outline>
</glyph>
<glyph name="Euro" format="2">
  <advance width="1527.8"/>
  <unicode hex="0080"/>
  <note>
Euro
</note>
  <outline>
    <contour>
      <point x="917.5466666666666" y="-41.34666666666667" type="curve" smooth="yes"/>
      <point x="1198.72" y="-41.34666666666667"/>
      <point x="1365.08" y="124.38666666666667"/>
      <point x="1421.28" y="295.56" type="curve"/>
      <point x="1222.44" y="295.56" type="line"/>
      <point x="1136.3733333333334" y="122.36000000000001"/>
      <point x="1011.7866666666666" y="16.039999999999992"/>
      <point x="926.0266666666666" y="16.039999999999992" type="curve" smooth="yes"/>
      <point x="693.72" y="16.039999999999992"/>
      <point x="494.20000000000005" y="338.4"/>
      <point x="494.20000000000005" y="707.5466666666666" type="curve" smooth="yes"/>
      <point x="494.20000000000005" y="1087.2"/>
      <point x="691.2533333333333" y="1397.56"/>
      <point x="927.4933333333333" y="1397.56" type="curve" smooth="yes"/>
      <point x="1007.28" y="1397.56"/>
      <point x="1136.4133333333334" y="1285.76"/>
      <point x="1222.9466666666667" y="1109.5866666666666" type="curve"/>
      <point x="1420.7733333333333" y="1109.5866666666666" type="line"/>
      <point x="1367.1066666666666" y="1282.8"/>
      <point x="1195.6666666666667" y="1454.44"/>
      <point x="917.5466666666666" y="1454.44" type="curve" smooth="yes"/>
      <point x="524.7866666666666" y="1454.44"/>
      <point x="247.50666666666666" y="1146.04"/>
      <point x="247.50666666666666" y="707.04" type="curve" smooth="yes"/>
      <point x="262.44" y="244.54666666666668"/>
      <point x="525.3199999999999" y="-41.34666666666667"/>
    </contour>
    <contour>
      <point x="92.50666666666666" y="522.0666666666667" type="line"/>
      <point x="1035.7733333333333" y="522.0666666666667" type="line"/>
      <point x="1048.7466666666667" y="577.9333333333333" type="line"/>
      <point x="104.97333333333333" y="577.9333333333333" type="line"/>
    </contour>
    <contour>
      <point x="140.50666666666666" y="822.5733333333334" type="line"/>
      <point x="1083.7733333333333" y="822.5733333333334" type="line"/>
      <point x="1096.7466666666667" y="878.44" type="line"/>
      <point x="152.97333333333333" y="878.44" type="line"/>
    </contour>
  </outline>
</glyph>
<glyph name="sterling" format="2">
  <advance width="1356.92"/>
  <unicode hex="00A3"/>
  <note>
sterling
</note>
  <outline>
    <contour>
      <point x="294.17333333333335" y="51.373333333333335" type="curve" smooth="yes"/>
      <point x="543.2666666666667" y="57.34666666666667"/>
      <point x="871.76" y="186.0"/>
      <point x="871.76" y="473.28" type="curve" smooth="yes"/>
      <point x="871.76" y="586.3199999999999"/>
      <point x="824.8933333333333" y="735.9866666666667"/>
      <point x="642.96" y="838.0266666666666" type="curve" smooth="yes"/>
      <point x="480.49333333333334" y="927.8"/>
      <point x="383.4" y="1008.32"/>
      <point x="383.4" y="1148.0133333333333" type="curve" smooth="yes"/>
      <point x="383.4" y="1301.5866666666666"/>
      <point x="497.93333333333334" y="1445.0266666666666"/>
      <point x="652.0666666666666" y="1445.0266666666666" type="curve" smooth="yes"/>
      <point x="811.1733333333333" y="1445.0266666666666"/>
      <point x="990.12" y="1349.2933333333333"/>
      <point x="1028.0266666666666" y="1205.6533333333334" type="curve"/>
      <point x="1134.3066666666666" y="1218.6" type="line"/>
      <point x="1100.8" y="1359.4"/>
      <point x="923.84" y="1475.4533333333334"/>
      <point x="667.5333333333333" y="1475.4533333333334" type="curve" smooth="yes"/>
      <point x="370.28" y="1475.4533333333334"/>
      <point x="175.46666666666667" y="1305.56"/>
      <point x="175.46666666666667" y="1078.24" type="curve" smooth="yes"/>
      <point x="175.46666666666667" y="944.2266666666667"/>
      <point x="231.26666666666665" y="807.5333333333333"/>
      <point x="400.5333333333333" y="713.5466666666666" type="curve" smooth="yes"/>
      <point x="523.4933333333333" y="644.48"/>
      <point x="652.3466666666667" y="539.5466666666666"/>
      <point x="652.3466666666667" y="410.4" type="curve" smooth="yes"/>
      <point x="652.3466666666667" y="253.89333333333332"/>
      <point x="454.3466666666667" y="57.84000000000001"/>
      <point x="264.4666666666667" y="58.83999999999999" type="curve"/>
      <point x="277.1333333333333" y="54.85333333333334"/>
      <point x="276.52" y="51.866666666666674"/>
    </contour>
    <contour>
      <point x="140.45333333333332" y="0.0" type="line"/>
      <point x="1269.3600000000001" y="0.0" type="line"/>
      <point x="1269.3600000000001" y="62.31999999999998" type="line"/>
      <point x="140.45333333333332" y="62.31999999999998" type="line"/>
    </contour>
    <contour>
      <point x="140.54666666666668" y="637.6133333333333" type="line"/>
      <point x="1117.2266666666667" y="637.6133333333333" type="line"/>
      <point x="1117.2266666666667" y="691.92" type="line"/>
      <point x="140.54666666666668" y="691.92" type="line"/>
    </contour>
  </outline>
</glyph>
<glyph name="currency" format="2">
  <advance width="1341.72"/>
  <unicode hex="00A4"/>
  <note>
currency
</note>
  <outline>
    <contour>
      <point x="216.86666666666667" y="166.61333333333334" type="line"/>
      <point x="378.25333333333333" y="330.02666666666664" type="line"/>
      <point x="458.6" y="264.69333333333327"/>
      <point x="560.88" y="225.30666666666664"/>
      <point x="672.1333333333333" y="225.30666666666664" type="curve" smooth="yes"/>
      <point x="782.88" y="225.30666666666664"/>
      <point x="885.1466666666666" y="264.1866666666666"/>
      <point x="964.4933333333333" y="329.0" type="curve"/>
      <point x="1127.3466666666666" y="164.64000000000001" type="line"/>
      <point x="1199.8666666666668" y="237.68" type="line"/>
      <point x="1037.04" y="403.02666666666664" type="line"/>
      <point x="1099.4533333333334" y="481.8933333333333"/>
      <point x="1136.8933333333334" y="581.24"/>
      <point x="1136.8933333333334" y="690.0666666666667" type="curve" smooth="yes"/>
      <point x="1136.8933333333334" y="801.3733333333333"/>
      <point x="1098.4533333333334" y="904.68"/>
      <point x="1029.1333333333332" y="987.4933333333333" type="curve"/>
      <point x="1189.5066666666667" y="1149.8933333333334" type="line"/>
      <point x="1116.4666666666667" y="1223.9333333333334" type="line"/>
      <point x="954.6" y="1060.04" type="line"/>
      <point x="876.24" y="1119.9066666666668"/>
      <point x="778.4266666666667" y="1155.8266666666666"/>
      <point x="672.1333333333333" y="1155.8266666666666" type="curve" smooth="yes"/>
      <point x="564.3199999999999" y="1155.8266666666666"/>
      <point x="465.49333333333334" y="1119.4"/>
      <point x="387.1333333333333" y="1058.0133333333333" type="curve"/>
      <point x="223.74666666666667" y="1223.9333333333334" type="line"/>
      <point x="150.2" y="1150.3866666666668" type="line"/>
      <point x="312.6" y="985.96" type="line"/>
      <point x="246.76" y="905.6133333333333"/>
      <point x="206.86666666666667" y="802.8266666666667"/>
      <point x="206.86666666666667" y="690.56" type="curve" smooth="yes"/>
      <point x="206.86666666666667" y="581.7466666666667"/>
      <point x="244.30666666666667" y="482.4133333333333"/>
      <point x="306.2" y="403.5466666666666" type="curve"/>
      <point x="143.82666666666665" y="239.6533333333333" type="line"/>
    </contour>
    <contour>
      <point x="672.1333333333333" y="319.82666666666665" type="curve" smooth="yes"/>
      <point x="467.05333333333334" y="319.82666666666665"/>
      <point x="301.38666666666666" y="484.9866666666667"/>
      <point x="301.38666666666666" y="690.0666666666667" type="curve" smooth="yes"/>
      <point x="301.38666666666666" y="895.1466666666666"/>
      <point x="467.05333333333334" y="1060.8133333333333"/>
      <point x="672.1333333333333" y="1060.8133333333333" type="curve" smooth="yes"/>
      <point x="877.2133333333334" y="1060.8133333333333"/>
      <point x="1042.3733333333334" y="895.1466666666666"/>
      <point x="1042.3733333333334" y="690.0666666666667" type="curve" smooth="yes"/>
      <point x="1042.3733333333334" y="484.9866666666667"/>
      <point x="877.2133333333334" y="319.82666666666665"/>
    </contour>
  </outline>
</glyph>
<glyph name="brokenbar" format="2">
  <advance width="607.8933333333333"/>
  <unicode hex="00A6"/>
  <note>
brokenbar
</note>
  <outline>
    <contour>
      <point x="213.01333333333332" y="-300.0" type="line"/>
      <point x="394.88" y="-300.0" type="line"/>
      <point x="394.88" y="523.6666666666666" type="line"/>
      <point x="213.01333333333332" y="523.6666666666666" type="line"/>
    </contour>
    <contour>
      <point x="213.01333333333332" y="868.3333333333334" type="line"/>
      <point x="394.88" y="868.3333333333334" type="line"/>
      <point x="394.88" y="1664.0" type="line"/>
      <point x="213.01333333333332" y="1664.0" type="line"/>
    </contour>
  </outline>
</glyph>
<glyph name="section" format="2">
  <advance width="1200.6933333333334"/>
  <unicode hex="00A7"/>
  <note>
section
</note>
  <outline>
    <contour>
      <point x="584.0133333333333" y="-473.17333333333335" type="curve" smooth="yes"/>
      <point x="831.1866666666666" y="-473.17333333333335"/>
      <point x="1034.1733333333334" y="-363.26666666666665"/>
      <point x="1033.16" y="-154.86666666666667" type="curve" smooth="yes"/>
      <point x="1032.6533333333334" y="21.706666666666663"/>
      <point x="890.32" y="132.46666666666667"/>
      <point x="666.1333333333334" y="190.45333333333332" type="curve"/>
      <point x="662.64" y="175.98666666666668" type="line"/>
      <point x="938.8533333333334" y="164.42666666666668"/>
      <point x="1096.68" y="290.5466666666667"/>
      <point x="1095.6666666666667" y="506.12" type="curve" smooth="yes"/>
      <point x="1095.16" y="694.9333333333333"/>
      <point x="893.48" y="769.3066666666666"/>
      <point x="631.1600000000001" y="873.1466666666666" type="curve" smooth="yes"/>
      <point x="472.14666666666665" y="935.6"/>
      <point x="394.4533333333333" y="1027.52"/>
      <point x="393.94666666666666" y="1181.4266666666667" type="curve" smooth="yes"/>
      <point x="393.44" y="1292.04"/>
      <point x="460.1333333333333" y="1473.8133333333333"/>
      <point x="609.7066666666667" y="1473.8133333333333" type="curve" smooth="yes"/>
      <point x="729.88" y="1473.8133333333333"/>
      <point x="813.9333333333334" y="1361.2666666666667"/>
      <point x="816.88" y="1152.1066666666666" type="curve"/>
      <point x="1030.24" y="1152.1066666666666" type="line"/>
      <point x="1030.24" y="1183.0533333333333" type="line" smooth="yes"/>
      <point x="1030.24" y="1381.7866666666666"/>
      <point x="876.4" y="1501.2533333333333"/>
      <point x="618.6800000000001" y="1501.2533333333333" type="curve" smooth="yes"/>
      <point x="357.56" y="1501.2533333333333"/>
      <point x="163.04000000000002" y="1384.3733333333334"/>
      <point x="164.05333333333334" y="1184.44" type="curve" smooth="yes"/>
      <point x="164.56" y="1016.3333333333334"/>
      <point x="307.38666666666666" y="919.0133333333333"/>
      <point x="551.4933333333333" y="835.64" type="curve"/>
      <point x="536.0666666666667" y="853.08" type="line"/>
      <point x="281.76" y="886.0533333333333"/>
      <point x="111.47999999999999" y="763.4266666666666"/>
      <point x="112.49333333333334" y="522.4666666666667" type="curve" smooth="yes"/>
      <point x="113.0" y="344.09333333333336"/>
      <point x="246.97333333333333" y="280.68"/>
      <point x="568.04" y="164.4" type="curve" smooth="yes"/>
      <point x="708.6" y="113.90666666666665"/>
      <point x="806.24" y="26.46666666666667"/>
      <point x="806.7466666666667" y="-148.86666666666667" type="curve" smooth="yes"/>
      <point x="807.2533333333333" y="-305.28"/>
      <point x="729.6133333333333" y="-446.2266666666667"/>
      <point x="587.5066666666667" y="-446.2266666666667" type="curve" smooth="yes"/>
      <point x="473.3066666666667" y="-446.2266666666667"/>
      <point x="370.84000000000003" y="-357.08000000000004"/>
      <point x="367.38666666666666" y="-118.05333333333333" type="curve"/>
      <point x="152.04000000000002" y="-118.05333333333333" type="line"/>
      <point x="152.04000000000002" y="-149.0" type="line" smooth="yes"/>
      <point x="152.04000000000002" y="-340.26666666666665"/>
      <point x="311.85333333333335" y="-473.17333333333335"/>
    </contour>
    <contour>
      <point x="603.1066666666667" y="214.84" type="curve" smooth="yes"/>
      <point x="461.50666666666666" y="214.84"/>
      <point x="344.92" y="355.50666666666666"/>
      <point x="344.41333333333336" y="518.0" type="curve" smooth="yes"/>
      <point x="343.4" y="681.4933333333333"/>
      <point x="456.44" y="821.6933333333334"/>
      <point x="600.5733333333333" y="821.6933333333334" type="curve" smooth="yes"/>
      <point x="743.1733333333333" y="821.6933333333334"/>
      <point x="863.24" y="683.5333333333333"/>
      <point x="864.2533333333333" y="520.5333333333333" type="curve" smooth="yes"/>
      <point x="864.76" y="358.04"/>
      <point x="744.2133333333334" y="214.84"/>
    </contour>
  </outline>
</glyph>
<glyph name="copyright" format="2">
  <advance width="1748.6266666666668"/>
  <unicode hex="00A9"/>
  <note>
copyright
</note>
  <outline>
    <contour>
      <point x="872.8133333333334" y="-21.453333333333333" type="curve" smooth="yes"/>
      <point x="1082.2133333333334" y="-21.453333333333333"/>
      <point x="1287.6133333333332" y="68.49333333333334"/>
      <point x="1418.16" y="196.04" type="curve" smooth="yes"/>
      <point x="1569.0933333333332" y="342.97333333333336"/>
      <point x="1639.0933333333332" y="510.52"/>
      <point x="1639.0933333333332" y="708.0" type="curve" smooth="yes"/>
      <point x="1639.0933333333332" y="907.9866666666667"/>
      <point x="1566.5866666666666" y="1076.5333333333333"/>
      <point x="1419.16" y="1224.4666666666667" type="curve" smooth="yes"/>
      <point x="1289.6266666666668" y="1353.0"/>
      <point x="1085.24" y="1437.4533333333334"/>
      <point x="872.8133333333334" y="1437.4533333333334" type="curve" smooth="yes"/>
      <point x="677.8133333333333" y="1437.4533333333334"/>
      <point x="472.94666666666666" y="1364.9466666666667"/>
      <point x="336.4666666666667" y="1225.4666666666667" type="curve" smooth="yes"/>
      <point x="186.02666666666667" y="1072.0266666666666"/>
      <point x="108.02666666666667" y="904.48"/>
      <point x="108.02666666666667" y="708.0" type="curve" smooth="yes"/>
      <point x="108.02666666666667" y="512.0133333333333"/>
      <point x="183.02666666666667" y="343.97333333333336"/>
      <point x="334.46666666666664" y="194.04" type="curve" smooth="yes"/>
      <point x="470.49333333333334" y="58.50666666666667"/>
      <point x="670.88" y="-21.453333333333333"/>
    </contour>
    <contour>
      <point x="873.8533333333334" y="257.05333333333334" type="curve" smooth="yes"/>
      <point x="1092.2133333333334" y="257.05333333333334"/>
      <point x="1257.04" y="382.48"/>
      <point x="1269.1333333333334" y="552.8666666666667" type="curve"/>
      <point x="1087.6933333333334" y="552.8666666666667" type="line"/>
      <point x="1059.12" y="407.37333333333333"/>
      <point x="982.0266666666666" y="317.4"/>
      <point x="880.8666666666667" y="317.4" type="curve" smooth="yes"/>
      <point x="739.6800000000001" y="317.4"/>
      <point x="641.44" y="464.90666666666664"/>
      <point x="641.44" y="706.0" type="curve" smooth="yes"/>
      <point x="641.44" y="949.56"/>
      <point x="738.16" y="1103.1066666666666"/>
      <point x="880.8666666666667" y="1103.1066666666666" type="curve" smooth="yes"/>
      <point x="974.52" y="1103.1066666666666"/>
      <point x="1049.12" y="1020.1333333333333"/>
      <point x="1077.68" y="886.1466666666666" type="curve"/>
      <point x="1259.1333333333334" y="886.1466666666666" type="line"/>
      <point x="1247.5333333333333" y="1042.04"/>
      <point x="1089.2266666666667" y="1161.4533333333334"/>
      <point x="883.8533333333334" y="1161.4533333333334" type="curve" smooth="yes"/>
      <point x="619.9866666666667" y="1161.4533333333334"/>
      <point x="444.50666666666666" y="982.9733333333334"/>
      <point x="444.50666666666666" y="704.0" type="curve" smooth="yes"/>
      <point x="444.50666666666666" y="430.5466666666667"/>
      <point x="612.9733333333334" y="257.05333333333334"/>
    </contour>
    <contour>
      <point x="872.8133333333334" y="29.98666666666667" type="curve" smooth="yes"/>
      <point x="700.7866666666666" y="29.98666666666667"/>
      <point x="556.16" y="97.0"/>
      <point x="424.17333333333335" y="230.98666666666668" type="curve" smooth="yes"/>
      <point x="314.08" y="342.08"/>
      <point x="235.61333333333334" y="523.04"/>
      <point x="235.61333333333334" y="708.0" type="curve" smooth="yes"/>
      <point x="235.61333333333334" y="888.5066666666667"/>
      <point x="308.1066666666667" y="1071.9466666666667"/>
      <point x="426.17333333333335" y="1192.0133333333333" type="curve" smooth="yes"/>
      <point x="557.1466666666666" y="1324.9866666666667"/>
      <point x="694.28" y="1388.52"/>
      <point x="872.8133333333334" y="1388.52" type="curve" smooth="yes"/>
      <point x="1047.8533333333332" y="1388.52"/>
      <point x="1191.9733333333334" y="1324.9866666666667"/>
      <point x="1327.4533333333334" y="1190.0133333333333" type="curve" smooth="yes"/>
      <point x="1440.52" y="1076.9466666666667"/>
      <point x="1514.0133333333333" y="888.5066666666667"/>
      <point x="1514.0133333333333" y="708.0" type="curve" smooth="yes"/>
      <point x="1514.0133333333333" y="519.0"/>
      <point x="1439.0133333333333" y="339.05333333333334"/>
      <point x="1329.9466666666667" y="232.98666666666668" type="curve" smooth="yes"/>
      <point x="1195.9733333333334" y="102.01333333333334"/>
      <point x="1044.8666666666666" y="29.98666666666667"/>
    </contour>
  </outline>
</glyph>
<glyph name="ordfeminine" format="2">
  <advance width="962.0933333333334"/>
  <unicode hex="00AA"/>
  <note>
ordfeminine
</note>
  <outline>
    <contour>
      <point x="428.14666666666665" y="830.0666666666666" type="curve" smooth="yes"/>
      <point x="478.61333333333334" y="830.0666666666666"/>
      <point x="563.8933333333333" y="844.5066666666667"/>
      <point x="607.1733333333333" y="939.7466666666667" type="curve"/>
      <point x="607.1733333333333" y="840.6" type="line"/>
      <point x="800.5866666666667" y="840.6" type="line"/>
      <point x="800.5866666666667" y="1449.9333333333334" type="line"/>
      <point x="605.1733333333333" y="1449.9333333333334" type="line"/>
      <point x="605.1733333333333" y="1355.2533333333333" type="line"/>
      <point x="561.8933333333333" y="1451.4933333333333"/>
      <point x="474.12" y="1465.9333333333334"/>
      <point x="424.14666666666665" y="1465.9333333333334" type="curve" smooth="yes"/>
      <point x="239.30666666666667" y="1465.9333333333334"/>
      <point x="118.96000000000001" y="1335.4533333333334"/>
      <point x="118.96000000000001" y="1146.0" type="curve" smooth="yes"/>
      <point x="118.96000000000001" y="952.52"/>
      <point x="242.29333333333335" y="830.0666666666666"/>
    </contour>
    <contour>
      <point x="441.1066666666667" y="862.08" type="curve" smooth="yes"/>
      <point x="335.72" y="862.08"/>
      <point x="306.02666666666664" y="1002.8533333333334"/>
      <point x="306.02666666666664" y="1154.96" type="curve" smooth="yes"/>
      <point x="306.02666666666664" y="1300.9466666666667"/>
      <point x="333.17333333333335" y="1434.4266666666667"/>
      <point x="439.1066666666667" y="1434.4266666666667" type="curve" smooth="yes"/>
      <point x="556.2666666666667" y="1434.4266666666667"/>
      <point x="606.16" y="1307.1066666666666"/>
      <point x="606.16" y="1144.5066666666667" type="curve" smooth="yes"/>
      <point x="606.16" y="1014.6266666666667"/>
      <point x="560.7866666666666" y="862.08"/>
    </contour>
    <contour>
      <point x="111.65333333333334" y="706.8666666666667" type="line"/>
      <point x="820.5333333333333" y="706.8666666666667" type="line"/>
      <point x="820.5333333333333" y="759.5333333333333" type="line"/>
      <point x="111.65333333333334" y="759.5333333333333" type="line"/>
    </contour>
  </outline>
</glyph>
<glyph name="logicalnot" format="2">
  <advance width="1018.16"/>
  <unicode hex="00AC"/>
  <note>
logicalnot
</note>
  <outline>
    <contour>
      <point x="1122.92" y="337.56" type="line"/>
      <point x="1313.7466666666667" y="337.56" type="line"/>
      <point x="1313.7466666666667" y="855.0266666666666" type="line"/>
      <point x="104.94666666666666" y="855.0266666666666" type="line"/>
      <point x="104.94666666666666" y="740.92" type="line"/>
      <point x="1122.92" y="740.92" type="line"/>
    </contour>
  </outline>
</glyph>
<glyph name="registered" format="2">
  <advance width="1748.12"/>
  <unicode hex="00AE"/>
  <note>
registered
</note>
  <outline>
    <contour>
      <point x="872.8133333333334" y="-21.453333333333333" type="curve" smooth="yes"/>
      <point x="1073.2533333333333" y="-21.453333333333333"/>
      <point x="1277.6533333333334" y="61.02666666666667"/>
      <point x="1416.6666666666667" y="196.04" type="curve" smooth="yes"/>
      <point x="1567.6" y="342.97333333333336"/>
      <point x="1639.0933333333332" y="507.5333333333333"/>
      <point x="1639.0933333333332" y="708.0" type="curve" smooth="yes"/>
      <point x="1639.0933333333332" y="906.4933333333333"/>
      <point x="1566.0933333333332" y="1075.04"/>
      <point x="1419.16" y="1222.9733333333334" type="curve" smooth="yes"/>
      <point x="1284.6533333333334" y="1357.48"/>
      <point x="1081.2533333333333" y="1437.4533333333334"/>
      <point x="872.8133333333334" y="1437.4533333333334" type="curve" smooth="yes"/>
      <point x="673.8266666666667" y="1437.4533333333334"/>
      <point x="471.4533333333333" y="1362.96"/>
      <point x="337.96" y="1227.96" type="curve" smooth="yes"/>
      <point x="181.54666666666668" y="1070.04"/>
      <point x="108.02666666666667" y="902.9866666666667"/>
      <point x="108.02666666666667" y="708.0" type="curve" smooth="yes"/>
      <point x="108.02666666666667" y="513.0133333333333"/>
      <point x="181.53333333333333" y="346.46666666666664"/>
      <point x="332.97333333333336" y="195.53333333333333" type="curve" smooth="yes"/>
      <point x="467.50666666666666" y="60.0"/>
      <point x="670.3866666666667" y="-21.453333333333333"/>
    </contour>
    <contour>
      <point x="871.32" y="33.466666666666676" type="curve" smooth="yes"/>
      <point x="702.7733333333333" y="33.466666666666676"/>
      <point x="559.1466666666666" y="98.0"/>
      <point x="426.16" y="233.48" type="curve" smooth="yes"/>
      <point x="311.09333333333336" y="350.5466666666667"/>
      <point x="238.6" y="531.5066666666667"/>
      <point x="238.6" y="708.0" type="curve" smooth="yes"/>
      <point x="238.6" y="887.5066666666667"/>
      <point x="312.58666666666664" y="1071.4533333333334"/>
      <point x="429.6533333333333" y="1191.0133333333333" type="curve" smooth="yes"/>
      <point x="561.6266666666667" y="1324.4933333333333"/>
      <point x="696.76" y="1384.5333333333333"/>
      <point x="872.8133333333334" y="1384.5333333333333" type="curve" smooth="yes"/>
      <point x="1047.8533333333332" y="1384.5333333333333"/>
      <point x="1190.48" y="1323.0"/>
      <point x="1326.4533333333334" y="1185.5333333333333" type="curve" smooth="yes"/>
      <point x="1439.52" y="1072.96"/>
      <point x="1511.0266666666666" y="887.5066666666667"/>
      <point x="1511.0266666666666" y="705.0133333333333" type="curve" smooth="yes"/>
      <point x="1511.0266666666666" y="523.9866666666667"/>
      <point x="1438.5333333333333" y="344.5466666666667"/>
      <point x="1325.4666666666667" y="233.98666666666668" type="curve" smooth="yes"/>
      <point x="1188.5066666666667" y="98.53333333333333"/>
      <point x="1044.88" y="33.466666666666676"/>
    </contour>
    <contour>
      <point x="582.52" y="333.8933333333333" type="line"/>
      <point x="753.9066666666666" y="333.8933333333333" type="line"/>
      <point x="753.9066666666666" y="664.5733333333334" type="line"/>
      <point x="882.9333333333333" y="664.5733333333334" type="line"/>
      <point x="1078.4666666666667" y="333.8933333333333" type="line"/>
      <point x="1225.96" y="333.8933333333333" type="line"/>
      <point x="1016.96" y="672.0666666666667" type="line"/>
      <point x="1147.9733333333334" y="708.4666666666667"/>
      <point x="1212.4933333333333" y="779.9733333333334"/>
      <point x="1212.4933333333333" y="888.5733333333334" type="curve" smooth="yes"/>
      <point x="1212.4933333333333" y="1034.6"/>
      <point x="1109.6133333333332" y="1106.1066666666666"/>
      <point x="879.1066666666667" y="1106.1066666666666" type="curve" smooth="yes"/>
      <point x="582.52" y="1106.1066666666666" type="line"/>
    </contour>
    <contour>
      <point x="753.9066666666666" y="733.4" type="line"/>
      <point x="753.9066666666666" y="1044.2533333333333" type="line"/>
      <point x="861.3733333333333" y="1044.2533333333333" type="line" smooth="yes"/>
      <point x="993.5066666666667" y="1044.2533333333333"/>
      <point x="1055.04" y="994.7066666666667"/>
      <point x="1055.04" y="889.0666666666667" type="curve" smooth="yes"/>
      <point x="1055.04" y="783.44"/>
      <point x="994.5066666666667" y="733.4"/>
      <point x="865.3733333333333" y="733.4" type="curve" smooth="yes"/>
    </contour>
  </outline>
</glyph>
<glyph name="degree" format="2">
  <advance width="813.6533333333333"/>
  <unicode hex="00B0"/>
  <note>
degree
</note>
  <outline>
    <contour>
      <point x="404.5733333333333" y="905.6933333333334" type="curve" smooth="yes"/>
      <point x="562.3066666666666" y="905.6933333333334"/>
      <point x="693.6133333333333" y="1024.04"/>
      <point x="693.6133333333333" y="1169.84" type="curve" smooth="yes"/>
      <point x="693.6133333333333" y="1315.64"/>
      <point x="562.3066666666666" y="1433.48"/>
      <point x="406.5733333333333" y="1433.48" type="curve" smooth="yes"/>
      <point x="249.34666666666666" y="1433.48"/>
      <point x="120.04" y="1317.64"/>
      <point x="120.04" y="1169.84" type="curve" smooth="yes"/>
      <point x="120.04" y="1022.04"/>
      <point x="247.34666666666666" y="905.6933333333334"/>
    </contour>
    <contour>
      <point x="406.5733333333333" y="932.6266666666667" type="curve" smooth="yes"/>
      <point x="305.62666666666667" y="932.6266666666667"/>
      <point x="225.16" y="1036.5066666666667"/>
      <point x="225.16" y="1169.84" type="curve" smooth="yes"/>
      <point x="225.16" y="1301.1733333333334"/>
      <point x="307.12" y="1405.0533333333333"/>
      <point x="406.5733333333333" y="1405.0533333333333" type="curve" smooth="yes"/>
      <point x="506.53333333333336" y="1405.0533333333333"/>
      <point x="586.4933333333333" y="1301.6666666666667"/>
      <point x="586.4933333333333" y="1169.84" type="curve" smooth="yes"/>
      <point x="586.4933333333333" y="1036.5066666666667"/>
      <point x="506.53333333333336" y="932.6266666666667"/>
    </contour>
  </outline>
</glyph>
<glyph name="plusminus" format="2">
  <advance width="1018.16"/>
  <unicode hex="00B1"/>
  <note>
plusminus
</note>
  <outline>
    <contour>
      <point x="453.26666666666665" y="360.2" type="line"/>
      <point x="609.16" y="360.2" type="line"/>
      <point x="609.16" y="590.3066666666666" type="line"/>
      <point x="920.0133333333333" y="590.3066666666666" type="line"/>
      <point x="920.0133333333333" y="746.2" type="line"/>
      <point x="609.16" y="746.2" type="line"/>
      <point x="609.16" y="975.8" type="line"/>
      <point x="453.26666666666665" y="975.8" type="line"/>
      <point x="453.26666666666665" y="746.2" type="line"/>
      <point x="142.41333333333333" y="746.2" type="line"/>
      <point x="142.41333333333333" y="590.3066666666666" type="line"/>
      <point x="453.26666666666665" y="590.3066666666666" type="line"/>
    </contour>
    <contour>
      <point x="141.41333333333333" y="86.78666666666666" type="line"/>
      <point x="919.0133333333333" y="86.78666666666666" type="line"/>
      <point x="919.0133333333333" y="242.68" type="line"/>
      <point x="141.41333333333333" y="242.68" type="line"/>
    </contour>
  </outline>
</glyph>
<glyph name="paragraph" format="2">
  <advance width="1246.9866666666667"/>
  <unicode hex="00B6"/>
  <note>
paragraph
</note>
  <outline>
    <contour>
      <point x="457.50666666666666" y="0.0" type="line"/>
      <point x="668.9466666666667" y="0.0" type="line"/>
      <point x="668.9466666666667" y="1433.5066666666667" type="line"/>
      <point x="813.0266666666666" y="1433.5066666666667" type="line"/>
      <point x="813.0266666666666" y="0.0" type="line"/>
      <point x="1022.9733333333334" y="0.0" type="line"/>
      <point x="1022.9733333333334" y="1433.5066666666667" type="line"/>
      <point x="1115.9866666666667" y="1433.5066666666667" type="line"/>
      <point x="1115.9866666666667" y="1455.4533333333334" type="line"/>
      <point x="523.7866666666666" y="1455.4533333333334" type="line" smooth="yes"/>
      <point x="267.8933333333333" y="1455.4533333333334"/>
      <point x="91.50666666666667" y="1286.6"/>
      <point x="91.50666666666667" y="1061.6933333333334" type="curve" smooth="yes"/>
      <point x="91.50666666666667" y="858.2266666666667"/>
      <point x="233.49333333333334" y="673.9466666666667"/>
      <point x="457.50666666666666" y="671.4133333333333" type="curve"/>
    </contour>
  </outline>
</glyph>
<glyph name="ordmasculine" format="2">
  <advance width="931.16"/>
  <unicode hex="00BA"/>
  <note>
ordmasculine
</note>
  <outline>
    <contour>
      <point x="461.1333333333333" y="834.12" type="curve" smooth="yes"/>
      <point x="657.8533333333334" y="834.12"/>
      <point x="808.3466666666667" y="956.04"/>
      <point x="808.3466666666667" y="1146.5066666666667" type="curve" smooth="yes"/>
      <point x="808.3466666666667" y="1336.9733333333334"/>
      <point x="659.36" y="1462.8933333333334"/>
      <point x="461.1333333333333" y="1462.8933333333334" type="curve" smooth="yes"/>
      <point x="263.92" y="1462.8933333333334"/>
      <point x="114.93333333333334" y="1337.48"/>
      <point x="114.93333333333334" y="1146.5066666666667" type="curve" smooth="yes"/>
      <point x="114.93333333333334" y="956.04"/>
      <point x="264.41333333333336" y="834.12"/>
    </contour>
    <contour>
      <point x="460.14666666666665" y="866.12" type="curve" smooth="yes"/>
      <point x="376.6533333333333" y="866.12"/>
      <point x="305.44" y="1012.8266666666667"/>
      <point x="305.44" y="1146.5066666666667" type="curve" smooth="yes"/>
      <point x="305.44" y="1280.68"/>
      <point x="377.6533333333333" y="1430.3866666666668"/>
      <point x="460.14666666666665" y="1430.3866666666668" type="curve" smooth="yes"/>
      <point x="543.1333333333333" y="1430.3866666666668"/>
      <point x="616.3466666666667" y="1280.1733333333334"/>
      <point x="616.3466666666667" y="1146.5066666666667" type="curve" smooth="yes"/>
      <point x="616.3466666666667" y="1013.32"/>
      <point x="544.1333333333333" y="866.12"/>
    </contour>
    <contour>
      <point x="109.65333333333334" y="706.8666666666667" type="line"/>
      <point x="828.4000000000001" y="706.8666666666667" type="line"/>
      <point x="828.4000000000001" y="759.5333333333333" type="line"/>
      <point x="109.65333333333334" y="759.5333333333333" type="line"/>
    </contour>
  </outline>
</glyph>
<glyph name="AE" format="2">
  <advance width="1828.4533333333334"/>
  <unicode hex="00C6"/>
  <note>
AE
</note>
  <anchor x="936.48" y="-5.066666666666663" name="bottom"/>
  <anchor x="936.48" y="1442.5333333333333" name="top"/>
  <outline>
    <contour>
      <point x="31.520000000000024" y="-2.5333333333333337" type="line"/>
      <point x="182.50666666666666" y="-2.5333333333333337" type="line"/>
      <point x="972.76" y="1441.4533333333334" type="line"/>
      <point x="822.7733333333333" y="1441.4533333333334" type="line"/>
    </contour>
    <contour>
      <point x="381.28" y="423.15999999999997" type="line"/>
      <point x="1042.56" y="423.15999999999997" type="line"/>
      <point x="1023.1466666666666" y="449.6666666666667" type="line"/>
      <point x="402.18666666666667" y="449.6666666666667" type="line"/>
    </contour>
    <contour>
      <point x="960.28" y="-2.5333333333333337" type="line"/>
      <point x="1759.9333333333334" y="-2.5333333333333337" type="line"/>
      <point x="1759.9333333333334" y="23.97333333333333" type="line"/>
      <point x="1027.12" y="23.97333333333333" type="line"/>
      <point x="1154.68" y="9.96" type="line"/>
      <point x="1154.68" y="750.48" type="line"/>
      <point x="1048.0266666666666" y="715.0" type="line"/>
      <point x="1759.9333333333334" y="715.0" type="line"/>
      <point x="1759.9333333333334" y="741.5066666666667" type="line"/>
      <point x="1027.12" y="741.5066666666667" type="line"/>
      <point x="1154.68" y="711.5466666666666" type="line"/>
      <point x="1154.68" y="1431.0" type="line"/>
      <point x="943.4933333333333" y="1414.9466666666667" type="line"/>
      <point x="1759.9333333333334" y="1414.9466666666667" type="line"/>
      <point x="1759.9333333333334" y="1441.4533333333334" type="line"/>
      <point x="960.28" y="1441.4533333333334" type="line"/>
    </contour>
  </outline>
</glyph>
<glyph name="Thorn" format="2">
  <advance width="1171.5333333333333"/>
  <unicode hex="00DE"/>
  <note>
Thorn
</note>
  <anchor x="593.36" y="3.552713678800501e-15" name="bottom"/>
  <anchor x="593.36" y="1439.9333333333334" name="top"/>
  <outline>
    <contour>
      <point x="309.8666666666667" y="324.38666666666666" type="line"/>
      <point x="584.4399999999999" y="324.88" type="line" smooth="yes"/>
      <point x="754.8933333333334" y="325.37333333333333"/>
      <point x="880.6666666666667" y="353.41333333333336"/>
      <point x="966.0266666666666" y="425.3333333333333" type="curve" smooth="yes"/>
      <point x="1058.6666666666665" y="502.97333333333336"/>
      <point x="1103.2" y="609.4666666666667"/>
      <point x="1101.72" y="748.7733333333333" type="curve" smooth="yes"/>
      <point x="1100.24" y="879.2533333333333"/>
      <point x="1056.16" y="976.3466666666667"/>
      <point x="969.52" y="1047.5066666666667" type="curve" smooth="yes"/>
      <point x="887.12" y="1116.4933333333333"/>
      <point x="755.2666666666667" y="1148.5466666666666"/>
      <point x="573.48" y="1148.5466666666666" type="curve" smooth="yes"/>
      <point x="293.5866666666667" y="1148.5466666666666" type="line"/>
      <point x="291.12" y="1117.4533333333334" type="line"/>
      <point x="538.1333333333333" y="1116.4666666666667" type="line" smooth="yes"/>
      <point x="731.1866666666666" y="1115.9733333333334"/>
      <point x="861.6533333333333" y="975.92"/>
      <point x="864.12" y="735.88" type="curve" smooth="yes"/>
      <point x="866.5866666666667" y="496.84"/>
      <point x="739.04" y="356.4666666666667"/>
      <point x="544.0533333333334" y="356.96000000000004" type="curve" smooth="yes"/>
      <point x="309.37333333333333" y="357.4533333333333" type="line"/>
    </contour>
    <contour>
      <point x="169.53333333333333" y="0.0" type="line"/>
      <point x="414.5733333333334" y="0.0" type="line"/>
      <point x="414.5733333333334" y="1440.96" type="line"/>
      <point x="169.53333333333333" y="1440.96" type="line"/>
    </contour>
  </outline>
</glyph>
<glyph name="germandbls" format="2">
  <advance width="1275.5866666666666"/>
  <unicode hex="00DF"/>
  <note>
germandbls
</note>
  <anchor x="645.8" y="-3.552713678800501e-15" name="bottom"/>
  <anchor x="645.8" y="925.4533333333334" name="top"/>
  <outline>
    <contour>
      <point x="833.04" y="-30.933333333333334" type="curve" smooth="yes"/>
      <point x="1076.3600000000001" y="-30.933333333333334"/>
      <point x="1250.08" y="54.17333333333333"/>
      <point x="1250.08" y="264.49333333333334" type="curve" smooth="yes"/>
      <point x="1250.08" y="437.8933333333333"/>
      <point x="1128.6666666666667" y="535.7866666666666"/>
      <point x="935.2133333333334" y="578.7733333333333" type="curve" smooth="yes"/>
      <point x="816.5466666666666" y="605.3066666666666"/>
      <point x="707.12" y="642.8133333333334"/>
      <point x="707.12" y="740.9866666666667" type="curve" smooth="yes"/>
      <point x="707.12" y="816.6"/>
      <point x="715.8666666666667" y="899.9466666666667"/>
      <point x="810.7733333333333" y="968.3466666666667" type="curve" smooth="yes"/>
      <point x="901.8133333333333" y="1033.3466666666666"/>
      <point x="1074.56" y="1037.6"/>
      <point x="1074.56" y="1239.48" type="curve" smooth="yes"/>
      <point x="1074.56" y="1456.2933333333333"/>
      <point x="875.9733333333334" y="1564.8133333333333"/>
      <point x="609.2666666666667" y="1564.8133333333333" type="curve" smooth="yes"/>
      <point x="319.85333333333335" y="1564.8133333333333"/>
      <point x="173.94666666666666" y="1432.4533333333334"/>
      <point x="173.94666666666666" y="1153.0133333333333" type="curve" smooth="yes"/>
      <point x="173.94666666666666" y="0.0" type="line"/>
      <point x="401.25333333333333" y="0.0" type="line"/>
      <point x="401.25333333333333" y="1153.0133333333333" type="line" smooth="yes"/>
      <point x="401.25333333333333" y="1474.72"/>
      <point x="484.3466666666667" y="1536.3866666666668"/>
      <point x="620.7466666666667" y="1536.3866666666668" type="curve" smooth="yes"/>
      <point x="731.2933333333333" y="1536.3866666666668"/>
      <point x="876.1066666666667" y="1480.1333333333332"/>
      <point x="876.1066666666667" y="1229.44" type="curve" smooth="yes"/>
      <point x="876.1066666666667" y="1144.6266666666666"/>
      <point x="851.8933333333333" y="1035.8133333333333"/>
      <point x="785.3333333333334" y="989.3066666666667" type="curve" smooth="yes"/>
      <point x="690.8266666666666" y="922.84"/>
      <point x="528.5866666666667" y="901.7733333333333"/>
      <point x="528.5866666666667" y="722.4666666666667" type="curve" smooth="yes"/>
      <point x="528.5866666666667" y="591.3333333333334"/>
      <point x="599.5866666666667" y="492.0133333333333"/>
      <point x="854.28" y="426.0133333333333" type="curve" smooth="yes"/>
      <point x="917.16" y="408.8933333333333"/>
      <point x="1043.6533333333334" y="370.48"/>
      <point x="1043.6533333333334" y="228.53333333333333" type="curve" smooth="yes"/>
      <point x="1043.6533333333334" y="105.90666666666667"/>
      <point x="966.1333333333333" y="-2.5066666666666606"/>
      <point x="832.5333333333333" y="-2.5066666666666606" type="curve" smooth="yes"/>
      <point x="703.04" y="-2.5066666666666606"/>
      <point x="602.1066666666667" y="48.06666666666667"/>
      <point x="568.4666666666667" y="177.82666666666665" type="curve"/>
      <point x="512.72" y="123.74666666666667" type="line"/>
      <point x="560.2533333333333" y="37.93333333333333"/>
      <point x="652.7866666666666" y="-30.933333333333334"/>
    </contour>
    <contour>
      <point x="7.066666666666663" y="901.0133333333333" type="line"/>
      <point x="342.32" y="901.0133333333333" type="line"/>
      <point x="342.32" y="925.9466666666667" type="line"/>
      <point x="7.066666666666663" y="925.9466666666667" type="line"/>
    </contour>
  </outline>
</glyph>
<glyph name="ae" format="2">
  <advance width="2087.3866666666668"/>
  <unicode hex="00E6"/>
  <note>
ae
</note>
  <anchor x="1044.4533333333334" y="-3.552713678800501e-15" name="bottom"/>
  <anchor x="1044.4533333333334" y="925.4533333333334" name="top"/>
  <outline>
    <contour>
      <point x="546.7733333333333" y="-32.46666666666667" type="curve" smooth="yes"/>
      <point x="745.2533333333333" y="-32.46666666666667"/>
      <point x="897.2533333333333" y="52.16"/>
      <point x="913.4666666666667" y="364.5466666666667" type="curve"/>
      <point x="897.5066666666667" y="251.6" type="line"/>
      <point x="897.5066666666667" y="0.0" type="line"/>
      <point x="1128.2933333333333" y="0.0" type="line"/>
      <point x="1128.2933333333333" y="924.9466666666667" type="line"/>
      <point x="897.5066666666667" y="924.9466666666667" type="line"/>
      <point x="897.5066666666667" y="737.5733333333334" type="line"/>
      <point x="927.4" y="537.0133333333333" type="line"/>
      <point x="912.68" y="819.0533333333333"/>
      <point x="788.0666666666666" y="962.4"/>
      <point x="560.2133333333334" y="962.4" type="curve" smooth="yes"/>
      <point x="243.48" y="962.4"/>
      <point x="54.49333333333334" y="776.84"/>
      <point x="50.013333333333335" y="460.9866666666667" type="curve" smooth="yes"/>
      <point x="45.53333333333333" y="147.12"/>
      <point x="253.93333333333334" y="-32.46666666666667"/>
    </contour>
    <contour>
      <point x="585.6" y="-5.026666666666664" type="curve" smooth="yes"/>
      <point x="391.48" y="-5.026666666666664"/>
      <point x="275.85333333333335" y="200.97333333333333"/>
      <point x="278.84" y="464.0133333333333" type="curve" smooth="yes"/>
      <point x="281.82666666666665" y="747.0"/>
      <point x="398.49333333333334" y="934.96"/>
      <point x="582.6133333333333" y="934.96" type="curve" smooth="yes"/>
      <point x="788.2" y="934.96"/>
      <point x="897.3466666666667" y="767.8266666666667"/>
      <point x="894.36" y="460.48" type="curve" smooth="yes"/>
      <point x="891.3733333333333" y="158.56"/>
      <point x="781.6666666666666" y="-5.026666666666664"/>
    </contour>
    <contour>
      <point x="1551.1466666666665" y="-32.96" type="curve" smooth="yes"/>
      <point x="1794.4" y="-29.973333333333333"/>
      <point x="1947.04" y="76.54666666666667"/>
      <point x="2015.4533333333334" y="261.50666666666666" type="curve"/>
      <point x="1931.5066666666667" y="261.50666666666666" type="line"/>
      <point x="1853.0533333333333" y="80.54666666666667"/>
      <point x="1707.6533333333332" y="-4.533333333333331"/>
      <point x="1558.12" y="-6.026666666666657" type="curve" smooth="yes"/>
      <point x="1387.96" y="-7.519999999999982"/>
      <point x="1283.76" y="156.56"/>
      <point x="1283.76" y="456.49333333333334" type="curve" smooth="yes"/>
      <point x="1283.76" y="763.3733333333333"/>
      <point x="1394.8933333333334" y="931.4666666666667"/>
      <point x="1558.12" y="933.96" type="curve" smooth="yes"/>
      <point x="1720.2266666666667" y="935.9466666666667"/>
      <point x="1823.96" y="769.0533333333333"/>
      <point x="1830.5466666666666" y="487.58666666666664" type="curve"/>
      <point x="2044.4133333333334" y="487.58666666666664" type="line"/>
      <point x="2061.253333333333" y="792.9466666666667"/>
      <point x="1847.28" y="965.88"/>
      <point x="1551.1466666666668" y="961.4" type="curve" smooth="yes"/>
      <point x="1234.9333333333334" y="956.92"/>
      <point x="1053.4666666666667" y="751.3333333333334"/>
      <point x="1053.4666666666667" y="449.48" type="curve" smooth="yes"/>
      <point x="1053.4666666666667" y="129.13333333333333"/>
      <point x="1228.52" y="-36.946666666666665"/>
    </contour>
    <contour>
      <point x="1211.4666666666667" y="487.09333333333336" type="line"/>
      <point x="1867.4533333333334" y="487.58666666666664" type="line"/>
      <point x="1867.4533333333334" y="512.52" type="line"/>
      <point x="1196.04" y="512.52" type="line"/>
    </contour>
  </outline>
</glyph>
<glyph name="eth" format="2">
  <advance width="1167.28"/>
  <unicode hex="00F0"/>
  <note>
eth
</note>
  <outline>
    <contour>
      <point x="575.1066666666667" y="-49.85333333333334" type="curve" smooth="yes"/>
      <point x="746.0133333333333" y="-49.85333333333334"/>
      <point x="887.4133333333333" y="18.6"/>
      <point x="980.3466666666667" y="132.02666666666667" type="curve" smooth="yes"/>
      <point x="1054.7866666666666" y="224.96"/>
      <point x="1097.24" y="346.88"/>
      <point x="1097.24" y="486.81333333333333" type="curve" smooth="yes"/>
      <point x="1097.24" y="655.52"/>
      <point x="1051.7866666666666" y="844.3333333333334"/>
      <point x="986.3333333333334" y="979.32" type="curve" smooth="yes"/>
      <point x="853.96" y="1248.68"/>
      <point x="538.64" y="1459.3600000000001"/>
      <point x="164.90666666666667" y="1522.84" type="curve"/>
      <point x="129.56" y="1470.56" type="line"/>
      <point x="481.12" y="1408.4266666666667"/>
      <point x="750.7466666666667" y="1137.68"/>
      <point x="832.44" y="709.4133333333333" type="curve"/>
      <point x="945.6533333333333" y="782.08" type="line"/>
      <point x="857.28" y="881.7466666666667"/>
      <point x="730.24" y="948.9200000000001"/>
      <point x="575.1066666666667" y="948.9200000000001" type="curve" smooth="yes"/>
      <point x="436.17333333333335" y="948.9200000000001"/>
      <point x="287.8666666666667" y="919.8266666666667"/>
      <point x="188.04" y="814.5066666666667" type="curve" smooth="yes"/>
      <point x="103.50666666666666" y="724.9733333333334"/>
      <point x="51.98666666666667" y="590.5333333333333"/>
      <point x="51.98666666666667" y="443.50666666666666" type="curve" smooth="yes"/>
      <point x="51.98666666666667" y="310.44"/>
      <point x="102.49333333333334" y="169.57333333333332"/>
      <point x="192.98666666666668" y="75.58666666666667" type="curve" smooth="yes"/>
      <point x="298.81333333333333" y="-33.733333333333334"/>
      <point x="453.12" y="-49.85333333333334"/>
    </contour>
    <contour>
      <point x="574.6133333333333" y="7.45333333333334" type="curve" smooth="yes"/>
      <point x="442.72" y="7.45333333333334"/>
      <point x="322.62666666666667" y="216.32"/>
      <point x="322.62666666666667" y="446.5333333333333" type="curve" smooth="yes"/>
      <point x="322.62666666666667" y="676.7466666666667"/>
      <point x="444.2266666666667" y="891.6133333333333"/>
      <point x="574.6133333333333" y="891.6133333333333" type="curve" smooth="yes"/>
      <point x="703.9866666666667" y="891.6133333333333"/>
      <point x="826.0933333333334" y="675.2266666666667"/>
      <point x="826.0933333333334" y="444.0" type="curve" smooth="yes"/>
      <point x="826.0933333333334" y="215.30666666666667"/>
      <point x="706.0" y="7.45333333333334"/>
    </contour>
    <contour>
      <point x="184.26666666666665" y="1085.56" type="line"/>
      <point x="323.8" y="1085.56" type="line"/>
      <point x="812.6133333333333" y="1554.4" type="line"/>
      <point x="673.08" y="1554.4" type="line"/>
    </contour>
  </outline>
</glyph>
<glyph name="divide" format="2">
  <advance width="1018.16"/>
  <unicode hex="00F7"/>
  <note>
divide
</note>
  <outline>
    <contour>
      <point x="82.52000000000001" y="557.4266666666666" type="line"/>
      <point x="1249.7733333333333" y="557.4266666666666" type="line"/>
      <point x="1249.7733333333333" y="672.5466666666666" type="line"/>
      <point x="82.52000000000001" y="672.5466666666666" type="line"/>
    </contour>
    <contour>
      <point x="666.1466666666666" y="106.12" type="curve" smooth="yes"/>
      <point x="746.9333333333334" y="106.12"/>
      <point x="811.2533333333333" y="170.44"/>
      <point x="811.2533333333333" y="251.22666666666666" type="curve" smooth="yes"/>
      <point x="811.2533333333333" y="332.0133333333333"/>
      <point x="746.4266666666667" y="395.82666666666665"/>
      <point x="666.1466666666666" y="395.82666666666665" type="curve" smooth="yes"/>
      <point x="585.8666666666667" y="395.82666666666665"/>
      <point x="521.5466666666666" y="332.0133333333333"/>
      <point x="521.5466666666666" y="251.22666666666666" type="curve" smooth="yes"/>
      <point x="521.5466666666666" y="170.44"/>
      <point x="585.8666666666667" y="106.12"/>
    </contour>
    <contour>
      <point x="666.1466666666666" y="834.6533333333333" type="curve" smooth="yes"/>
      <point x="746.9333333333334" y="834.6533333333333"/>
      <point x="811.2533333333333" y="898.9733333333334"/>
      <point x="811.2533333333333" y="979.76" type="curve" smooth="yes"/>
      <point x="811.2533333333333" y="1060.5466666666666"/>
      <point x="746.4266666666667" y="1124.36"/>
      <point x="666.1466666666666" y="1124.36" type="curve" smooth="yes"/>
      <point x="585.8666666666667" y="1124.36"/>
      <point x="521.5466666666666" y="1060.5466666666666"/>
      <point x="521.5466666666666" y="979.76" type="curve" smooth="yes"/>
      <point x="521.5466666666666" y="898.9733333333334"/>
      <point x="585.8666666666667" y="834.6533333333333"/>
    </contour>
  </outline>
</glyph>
<glyph name="thorn" format="2">
  <advance width="1222.5066666666667"/>
  <unicode hex="00FE"/>
  <note>
thorn
</note>
  <anchor x="637.0533333333333" y="-3.552713678800501e-15" name="bottom"/>
  <anchor x="637.0533333333333" y="914.0" name="top"/>
  <outline>
    <contour>
      <point x="152.01333333333332" y="-544.7466666666667" type="line"/>
      <point x="418.14666666666665" y="-544.7466666666667" type="line"/>
      <point x="418.14666666666665" y="298.6533333333333" type="line"/>
      <point x="350.41333333333336" y="254.8" type="line"/>
      <point x="402.50666666666666" y="71.97333333333333"/>
      <point x="496.72" y="-36.946666666666665"/>
      <point x="702.5866666666667" y="-36.946666666666665" type="curve" smooth="yes"/>
      <point x="983.5066666666667" y="-36.946666666666665"/>
      <point x="1173.0" y="159.09333333333333"/>
      <point x="1173.0" y="466.97333333333336" type="curve" smooth="yes"/>
      <point x="1173.0" y="761.4133333333333"/>
      <point x="998.9333333333334" y="965.88"/>
      <point x="713.04" y="965.88" type="curve" smooth="yes"/>
      <point x="510.15999999999997" y="965.88"/>
      <point x="395.03999999999996" y="862.9466666666667"/>
      <point x="339.96" y="682.12" type="curve"/>
      <point x="415.16" y="631.2933333333333" type="line"/>
      <point x="415.16" y="1523.9333333333334" type="line"/>
      <point x="152.01333333333332" y="1523.9333333333334" type="line"/>
    </contour>
    <contour>
      <point x="678.6933333333334" y="20.36" type="curve" smooth="yes"/>
      <point x="535.8666666666667" y="20.36"/>
      <point x="409.72" y="218.8"/>
      <point x="409.72" y="466.93333333333334" type="curve" smooth="yes"/>
      <point x="409.72" y="707.0666666666667"/>
      <point x="528.3466666666667" y="908.5733333333333"/>
      <point x="674.7066666666667" y="908.5733333333333" type="curve" smooth="yes"/>
      <point x="811.0666666666666" y="908.5733333333333"/>
      <point x="902.36" y="734.52"/>
      <point x="902.36" y="463.49333333333334" type="curve" smooth="yes"/>
      <point x="902.36" y="195.48"/>
      <point x="814.5866666666667" y="20.36"/>
    </contour>
  </outline>
</glyph>
<glyph name="idotless" format="2">
  <advance width="509.64"/>
  <unicode hex="0131"/>
  <note>
dotlessi
</note>
  <anchor x="259.5733333333333" y="0.0" name="bottom"/>
  <anchor x="285.93333333333334" y="0.0" name="ogonek"/>
  <anchor x="259.5733333333333" y="924.9466666666667" name="top"/>
  <outline>
    <contour>
      <point x="126.0" y="0.0" type="line"/>
      <point x="383.64" y="0.0" type="line"/>
      <point x="383.64" y="924.9466666666667" type="line"/>
      <point x="126.0" y="924.9466666666667" type="line"/>
    </contour>
  </outline>
</glyph>
<glyph name="kgreenlandic" format="2">
  <advance width="1029.16"/>
  <unicode hex="0138"/>
  <anchor x="521.5066666666667" y="-3.552713678800501e-15" name="bottom"/>
  <anchor x="521.5066666666667" y="922.92" name="top"/>
  <outline>
    <contour>
      <point x="125.52000000000001" y="0.0" type="line"/>
      <point x="355.84" y="0.0" type="line"/>
      <point x="355.84" y="924.9466666666666" type="line"/>
      <point x="125.52000000000001" y="924.4399999999999" type="line"/>
    </contour>
    <contour>
      <point x="832.6" y="0.0" type="line"/>
      <point x="1027.6666666666667" y="0.0" type="line"/>
      <point x="555.9200000000001" y="602.7733333333333" type="line"/>
      <point x="440.7066666666667" y="496.5333333333333" type="line"/>
    </contour>
    <contour>
      <point x="263.17333333333335" y="276.64" type="line"/>
      <point x="902.3466666666667" y="924.9466666666667" type="line"/>
      <point x="859.3733333333333" y="924.9466666666667" type="line"/>
      <point x="320.85333333333335" y="384.28" type="line"/>
    </contour>
  </outline>
</glyph>
<glyph name="lslash" format="2">
  <advance width="696.1333333333333"/>
  <unicode hex="0142"/>
  <outline>
    <contour>
      <point x="217.49333333333334" y="0.0" type="line"/>
      <point x="483.62666666666667" y="0.0" type="line"/>
      <point x="483.62666666666667" y="1525.4533333333334" type="line"/>
      <point x="217.49333333333334" y="1525.4533333333334" type="line"/>
    </contour>
    <contour>
      <point x="31.85333333333334" y="502.6533333333333" type="line"/>
      <point x="699.6266666666667" y="879.3866666666667" type="line"/>
      <point x="664.28" y="941.6666666666666" type="line"/>
      <point x="-3.493333333333325" y="564.9333333333334" type="line"/>
    </contour>
  </outline>
</glyph>
<glyph name="Eng" format="2">
  <advance width="1520.36"/>
  <unicode hex="014A"/>
  <outline>
    <contour>
      <point x="1109.4266666666667" y="-433.64" type="curve" smooth="yes"/>
      <point x="1274.2666666666667" y="-433.64"/>
      <point x="1357.28" y="-331.61333333333334"/>
      <point x="1357.28" y="-146.29333333333335" type="curve" smooth="yes"/>
      <point x="1357.28" y="1441.4533333333334" type="line"/>
      <point x="1308.4533333333334" y="1441.4533333333334" type="line"/>
      <point x="1308.4533333333334" y="188.05333333333334" type="line"/>
      <point x="1338.84" y="277.73333333333335" type="line"/>
      <point x="194.42666666666668" y="1449.0533333333333" type="line"/>
      <point x="171.51999999999998" y="1449.0533333333333" type="line"/>
      <point x="171.51999999999998" y="0.0" type="line"/>
      <point x="220.34666666666664" y="0.0" type="line"/>
      <point x="220.34666666666664" y="1250.44" type="line"/>
      <point x="205.38666666666666" y="1145.8266666666666" type="line"/>
      <point x="1231.56" y="92.8" type="line" smooth="yes"/>
      <point x="1301.8533333333332" y="24.479999999999997"/>
      <point x="1308.4533333333334" y="-16.97333333333333"/>
      <point x="1308.4533333333334" y="-174.2" type="curve" smooth="yes"/>
      <point x="1308.4533333333334" y="-348.72"/>
      <point x="1208.3333333333333" y="-386.3066666666667"/>
      <point x="1110.4266666666667" y="-386.3066666666667" type="curve" smooth="yes"/>
      <point x="1017.08" y="-386.3066666666667"/>
      <point x="898.2" y="-351.76"/>
      <point x="838.3066666666666" y="-237.44" type="curve"/>
      <point x="838.3066666666666" y="-326.6933333333333" type="line"/>
      <point x="875.8933333333333" y="-380.7733333333333"/>
      <point x="989.6933333333334" y="-433.64"/>
    </contour>
  </outline>
</glyph>
